{"glyphs":{"0":{"ha":794,"x_min":36,"x_max":758,"o":"m 71 219 q 53 270 71 219 q 36 453 36 321 q 71 686 36 585 q 189 853 106 788 q 397 919 272 919 q 606 853 522 919 q 724 686 689 788 q 758 453 758 585 q 724 219 758 321 q 606 52 689 118 q 397 -14 522 -14 q 189 52 272 -14 q 71 219 106 118 m 397 104 q 464 104 397 104 q 531 453 531 104 q 397 801 531 801 q 264 453 264 801 q 397 104 264 104 z "},"1":{"ha":592,"x_min":50,"x_max":568,"o":"m 244 226 l 244 672 l 101 618 l 50 704 q 246 854 218 832 l 314 933 l 457 917 q 446 592 446 661 l 446 268 q 452 163 446 219 q 460 107 458 107 l 568 99 l 560 -7 q 294 0 453 0 l 115 -7 l 108 90 l 232 107 q 244 226 244 199 z "},"2":{"ha":760,"x_min":26,"x_max":703,"o":"m 58 871 q 344 919 194 919 q 576 857 493 919 q 658 683 658 794 q 579 463 658 572 q 275 164 500 354 l 442 164 q 563 178 507 164 l 585 249 l 594 300 l 703 292 l 692 24 l 650 -4 q 499 0 525 0 l 46 0 l 26 138 q 352 463 269 357 q 435 663 435 569 q 401 752 435 721 q 308 783 367 783 q 189 750 250 783 q 178 697 178 715 l 178 638 l 68 631 l 58 871 z "},"3":{"ha":682,"x_min":26,"x_max":628,"o":"m 26 879 q 288 919 147 919 q 509 858 429 919 q 589 676 589 796 q 549 555 589 611 q 435 461 508 499 q 572 381 517 443 q 628 242 628 318 q 465 -17 628 93 q 57 -146 303 -128 l 26 -40 q 298 52 196 -21 q 400 226 400 125 q 258 375 400 375 l 172 369 l 153 471 q 320 544 263 489 q 378 685 378 599 q 268 797 378 797 q 167 781 217 797 q 156 726 156 732 l 156 653 l 46 646 l 26 879 z "},"4":{"ha":782,"x_min":14,"x_max":736,"o":"m 408 379 l 408 514 l 603 581 l 603 392 l 733 399 l 733 253 l 603 253 l 603 222 q 615 107 603 169 l 736 99 l 729 -7 q 432 0 585 0 l 256 -7 l 249 90 l 396 107 q 401 140 399 124 q 404 172 403 156 q 407 202 406 188 q 408 224 408 217 l 408 253 l 117 253 l 14 381 l 506 1026 l 644 910 q 479 736 500 768 l 215 379 l 408 379 z "},"5":{"ha":675,"x_min":58,"x_max":625,"o":"m 368 724 l 238 724 l 225 526 q 311 532 263 532 q 544 460 463 532 q 625 260 625 388 q 90 -146 625 -64 l 60 -43 q 326 62 244 -1 q 408 228 408 125 q 247 389 408 389 q 124 369 190 389 l 58 444 l 93 881 l 119 906 l 242 906 l 579 919 l 588 743 q 368 724 410 724 z "},"6":{"ha":767,"x_min":42,"x_max":725,"o":"m 449 574 q 651 497 578 574 q 725 287 725 419 q 628 69 725 154 q 381 -15 532 -15 q 136 82 231 -15 q 42 342 42 179 q 196 772 42 574 q 393 940 271 868 q 667 1038 515 1011 l 689 946 q 490 841 575 908 q 356 690 404 774 q 263 342 263 528 q 313 150 263 214 q 397 113 343 113 q 476 163 450 113 q 503 288 503 214 q 477 413 503 361 q 394 464 451 464 l 347 460 l 339 560 q 449 574 381 574 z "},"7":{"ha":710,"x_min":49,"x_max":719,"o":"m 256 906 l 697 906 l 719 810 l 281 -146 l 107 -86 l 419 526 q 481 722 438 561 l 268 722 q 190 717 251 722 l 169 658 l 158 594 l 49 599 l 64 890 l 89 918 q 256 906 224 906 z "},"8":{"ha":754,"x_min":42,"x_max":710,"o":"m 72 725 q 164 888 72 829 q 376 947 256 947 q 588 887 497 947 q 679 721 679 826 q 532 485 679 596 q 663 373 615 435 q 710 226 710 311 q 658 88 710 142 q 375 -14 563 -14 q 139 48 236 -14 q 42 228 42 110 q 218 475 42 364 q 72 725 72 574 m 246 229 q 281 135 246 169 q 376 100 317 100 q 470 133 436 100 q 504 224 504 165 q 465 320 504 282 q 347 400 425 358 q 246 229 246 322 m 479 719 q 452 801 479 769 q 378 833 425 833 q 301 802 331 833 q 272 720 272 771 q 307 631 272 669 q 406 556 342 593 q 479 719 479 638 z "},"9":{"ha":767,"x_min":42,"x_max":725,"o":"m 332 331 q 119 406 196 331 q 42 611 42 481 q 139 831 42 742 q 375 919 236 919 q 633 821 540 919 q 725 563 725 722 q 575 128 725 329 q 381 -46 501 28 q 108 -146 260 -119 l 78 -43 q 255 33 178 -17 q 378 143 332 83 q 453 278 424 203 q 504 563 504 403 q 472 726 504 660 q 378 792 440 792 q 290 741 317 792 q 264 615 264 690 q 294 490 264 540 q 372 440 324 440 l 419 444 l 428 344 q 332 331 386 331 z "}," ":{"ha":249,"x_min":0,"x_max":0,"o":""},"!":{"ha":332,"x_min":76,"x_max":296,"o":"m 265 335 l 242 313 q 100 319 200 319 q 101 411 101 369 l 89 989 l 256 1001 l 296 963 q 261 442 261 660 l 265 335 m 103 169 q 117 185 103 169 q 179 200 131 200 q 255 170 228 200 q 282 90 282 140 q 255 9 282 39 q 179 -21 228 -21 q 103 9 131 -21 q 76 89 76 39 q 103 169 76 139 z "},"\"":{"ha":499,"x_min":56,"x_max":443,"o":"m 56 1050 l 221 1050 l 203 711 l 81 718 l 82 847 l 56 1050 m 278 1050 l 443 1050 l 425 711 l 303 718 l 304 847 l 278 1050 z "},"#":{"ha":792,"x_min":44,"x_max":760,"o":"m 732 194 l 544 194 l 511 -21 l 400 -7 l 432 194 l 306 194 l 272 -21 l 161 -7 l 193 194 l 44 194 l 44 314 l 211 315 l 233 456 l 72 454 l 72 581 l 253 581 l 288 794 l 399 781 l 367 581 l 493 581 l 526 794 l 638 781 l 606 581 l 760 581 l 760 461 l 586 460 l 564 319 l 732 321 l 732 194 m 347 457 l 325 317 l 451 318 l 474 458 l 347 457 z "},"$":{"ha":753,"x_min":61,"x_max":699,"o":"m 350 108 q 439 133 403 108 q 475 203 475 157 q 444 283 475 249 q 368 339 414 317 q 269 392 322 361 q 169 456 215 424 q 93 548 124 489 q 63 683 63 607 q 144 860 63 796 q 356 926 225 924 l 361 1054 l 450 1050 l 444 922 q 656 883 522 915 l 638 672 l 536 678 l 536 753 q 533 768 536 754 q 422 806 492 806 q 319 780 353 806 q 285 710 285 754 q 327 630 285 665 q 431 565 369 594 q 553 500 492 536 q 656 401 614 464 q 699 251 699 338 q 617 63 699 133 q 407 -19 536 -8 l 403 -128 l 313 -124 l 317 -18 q 183 3 247 -14 q 90 33 119 19 l 61 47 l 82 267 l 181 260 q 182 199 181 213 q 190 144 179 189 q 350 108 236 108 z "},"%":{"ha":1247,"x_min":25,"x_max":1213,"o":"m 960 -11 q 895 -11 960 -11 q 769 68 831 -11 q 707 270 707 147 q 769 472 707 393 q 960 551 831 551 q 1151 472 1089 551 q 1213 270 1213 393 q 1151 68 1213 147 q 960 -11 1089 -11 m 868 270 q 868 177 868 270 q 960 85 868 85 q 1051 270 1051 85 q 960 456 1051 456 q 868 270 868 456 m 85 520 q 55 559 85 520 q 25 717 25 597 q 85 913 25 836 q 267 989 144 989 q 449 913 389 989 q 508 717 508 836 q 449 520 508 597 q 267 443 389 443 q 85 520 144 443 m 267 536 q 311 536 267 536 q 354 717 354 536 q 267 897 354 897 q 181 717 181 897 q 267 536 181 536 m 822 1000 l 919 938 l 331 -68 l 232 -6 l 822 1000 z "},"&":{"ha":833,"x_min":43,"x_max":835,"o":"m 113 571 q 113 615 113 571 q 176 706 113 658 q 356 753 240 753 q 561 726 472 753 l 549 517 l 449 522 q 447 589 449 569 l 435 628 q 373 640 407 640 q 320 620 339 640 q 301 574 301 600 q 358 455 301 521 q 557 272 415 389 q 568 327 568 301 q 565 369 568 353 l 508 376 l 513 474 q 664 466 596 465 q 774 471 732 467 l 781 374 l 707 369 l 700 304 q 667 181 692 236 l 693 154 q 742 119 704 144 q 785 90 781 94 l 835 86 l 831 -6 q 622 1 764 1 l 607 1 l 599 6 l 557 54 q 347 -11 481 -11 q 128 42 213 -11 q 43 189 43 94 q 81 310 43 265 q 193 389 118 354 q 113 571 113 483 m 282 296 q 247 217 247 260 q 277 147 247 174 q 365 119 307 119 q 456 146 422 119 l 282 296 z "},"'":{"ha":276,"x_min":56,"x_max":221,"o":"m 56 1050 l 221 1050 l 203 711 l 81 718 l 82 847 l 56 1050 z "},"(":{"ha":442,"x_min":56,"x_max":400,"o":"m 311 867 q 232 440 232 656 q 311 14 232 225 q 381 -97 318 -8 l 400 -126 l 325 -187 q 56 440 56 63 q 325 1068 56 818 l 400 1007 q 311 867 321 894 z "},")":{"ha":442,"x_min":42,"x_max":386,"o":"m 131 14 q 210 440 210 225 q 131 867 210 656 q 61 978 124 889 l 42 1007 l 117 1068 q 386 440 386 818 q 117 -187 386 63 l 42 -126 q 131 14 121 -14 z "},"*":{"ha":568,"x_min":50,"x_max":517,"o":"m 221 897 q 228 951 228 946 l 228 1025 l 329 1036 l 343 900 q 378 914 363 908 q 394 921 393 919 l 457 957 l 517 875 l 406 794 q 450 761 433 772 l 513 725 l 471 632 l 346 688 q 339 633 339 643 l 339 561 l 238 550 l 224 686 q 174 665 179 668 l 110 629 l 50 711 l 160 790 q 118 824 131 815 l 54 861 l 96 954 l 221 897 z "},"+":{"ha":807,"x_min":46,"x_max":761,"o":"m 331 0 l 331 285 l 46 282 l 46 428 l 331 428 l 331 710 l 469 710 l 472 428 l 761 428 l 761 289 l 474 286 l 476 0 l 331 0 z "},",":{"ha":332,"x_min":38,"x_max":272,"o":"m 157 -14 q 87 21 111 -11 q 63 103 63 53 q 89 183 63 153 q 167 214 115 214 q 272 72 272 214 q 215 -94 272 -18 q 54 -189 158 -171 l 38 -144 q 157 -14 147 -107 z "},"-":{"ha":392,"x_min":42,"x_max":350,"o":"m 44 286 l 42 418 l 350 418 l 343 286 l 44 286 z "},".":{"ha":344,"x_min":63,"x_max":282,"o":"m 92 181 q 106 198 92 181 q 172 214 121 214 q 253 183 224 214 q 282 97 282 151 q 253 11 282 43 q 172 -21 224 -21 q 92 11 121 -21 q 63 96 63 43 q 92 181 63 149 z "},"/":{"ha":550,"x_min":10,"x_max":564,"o":"m 140 -90 l 10 -49 l 435 1074 l 564 1032 l 140 -90 z "},":":{"ha":331,"x_min":63,"x_max":268,"o":"m 90 646 q 103 661 90 646 q 165 676 117 676 q 241 647 214 676 q 268 566 268 617 q 241 485 268 515 q 165 456 214 456 q 90 485 117 456 q 63 565 63 515 q 90 646 63 615 m 90 169 q 103 185 90 169 q 165 200 117 200 q 241 170 214 200 q 268 90 268 140 q 241 9 268 39 q 165 -21 214 -21 q 90 9 117 -21 q 63 89 63 39 q 90 169 63 139 z "},";":{"ha":332,"x_min":38,"x_max":272,"o":"m 157 -14 q 87 21 111 -11 q 63 103 63 53 q 89 183 63 153 q 167 214 115 214 q 272 72 272 214 q 215 -94 272 -18 q 54 -189 158 -171 l 38 -144 q 157 -14 147 -107 m 90 632 q 103 647 90 632 q 165 663 117 663 q 241 633 214 663 q 268 552 268 603 q 241 472 268 501 q 165 442 214 442 q 90 472 117 442 q 63 551 63 501 q 90 632 63 601 z "},"<":{"ha":668,"x_min":56,"x_max":557,"o":"m 467 -21 l 56 346 l 467 713 l 557 608 l 258 346 l 557 83 l 467 -21 z "},"=":{"ha":813,"x_min":90,"x_max":722,"o":"m 90 547 l 722 547 l 722 407 l 90 400 l 90 547 m 90 283 l 722 283 l 722 143 l 90 136 l 90 283 z "},">":{"ha":668,"x_min":111,"x_max":613,"o":"m 201 711 l 613 344 l 201 -22 l 111 82 l 410 344 l 111 607 l 201 711 z "},"?":{"ha":586,"x_min":42,"x_max":586,"o":"m 266 546 q 294 546 266 546 q 361 597 322 546 q 400 726 400 647 q 363 856 400 806 q 258 907 325 907 q 158 885 192 907 q 150 807 150 856 l 153 757 l 58 750 l 42 956 q 265 1010 161 1010 q 501 935 415 1010 q 586 728 586 860 q 506 524 586 597 q 294 446 426 450 l 299 335 l 275 313 q 136 318 225 318 l 132 322 l 132 503 l 175 550 q 266 546 210 546 m 134 169 q 148 185 134 169 q 210 200 161 200 q 285 170 258 200 q 313 90 313 140 q 285 9 313 39 q 210 -21 258 -21 q 134 9 161 -21 q 107 89 107 39 q 134 169 107 139 z "},"@":{"ha":1325,"x_min":42,"x_max":1283,"o":"m 583 -14 q 434 39 489 -14 q 379 183 379 92 q 563 375 379 343 l 760 407 l 760 449 q 739 549 760 513 q 666 586 718 586 q 553 556 614 586 l 547 501 l 549 433 l 444 429 l 424 661 q 685 699 561 699 q 881 632 808 699 q 954 449 954 565 l 954 268 q 964 122 954 221 l 967 93 l 965 92 q 1057 158 1019 106 q 1124 399 1124 253 q 1001 712 1124 593 q 669 831 879 831 q 472 794 557 831 q 338 705 386 758 q 260 578 290 651 q 210 335 210 460 q 236 120 210 210 q 317 -39 263 31 q 676 -182 428 -182 q 894 -139 721 -182 l 951 -124 l 974 -176 q 676 -296 753 -296 q 419 -258 532 -296 q 236 -161 306 -221 q 122 -19 167 -101 q 42 322 42 128 q 183 736 42 561 q 379 875 254 824 q 669 926 504 926 q 1117 786 951 926 q 1283 399 1283 646 q 1182 142 1283 263 q 1056 46 1133 85 q 888 0 979 7 l 786 0 l 775 100 q 583 -14 711 -14 m 585 211 q 660 129 585 129 q 760 240 754 129 l 760 317 l 657 297 q 601 270 618 290 q 585 211 585 250 z "},"A":{"ha":926,"x_min":1,"x_max":928,"o":"m 928 90 l 921 -7 q 804 0 853 0 l 521 -7 l 514 94 l 596 107 l 589 179 l 569 249 l 307 249 l 283 160 l 275 107 l 356 90 l 349 -7 q 201 0 267 0 l 8 -7 l 1 94 l 64 104 l 122 224 l 385 979 l 540 994 l 818 178 l 850 103 l 928 90 m 444 692 l 344 363 l 533 365 l 444 692 z "},"B":{"ha":879,"x_min":71,"x_max":844,"o":"m 207 979 l 489 993 q 710 928 619 993 q 801 754 801 864 q 748 600 801 664 q 608 515 694 536 l 608 506 q 780 428 715 489 q 844 263 844 367 q 750 62 844 131 q 513 -7 656 -7 l 206 0 l 78 -7 l 71 90 l 154 107 q 167 226 167 165 l 167 711 q 154 865 167 808 l 72 882 l 79 986 q 207 979 142 979 m 382 753 l 382 268 q 386 111 382 169 q 464 107 424 107 q 586 153 540 107 q 632 282 632 200 q 449 444 632 444 l 435 444 l 444 565 l 453 565 q 561 609 522 565 q 600 725 600 653 q 559 838 600 797 q 454 879 518 879 q 386 874 431 879 q 382 753 382 840 z "},"C":{"ha":885,"x_min":38,"x_max":836,"o":"m 524 -21 q 163 117 288 -21 q 38 489 38 256 q 163 861 38 722 q 524 1000 288 1000 q 824 953 632 1000 l 807 704 l 700 710 l 696 794 q 679 851 696 808 q 524 871 590 871 q 345 767 403 871 q 288 490 288 663 q 344 213 288 318 q 522 108 401 108 q 694 129 600 108 q 701 148 696 132 q 712 178 707 164 q 717 197 717 192 l 721 263 l 825 265 l 836 26 q 524 -21 644 -21 z "},"D":{"ha":1026,"x_min":63,"x_max":989,"o":"m 210 979 l 500 993 q 863 856 736 993 q 989 491 989 719 q 863 127 989 263 q 500 -8 736 -8 q 208 0 500 -8 l 69 -7 l 63 90 l 154 107 q 167 226 167 199 l 167 711 q 158 842 167 783 l 154 865 l 64 882 l 71 986 q 210 979 144 979 m 481 878 q 388 867 451 878 q 382 753 382 772 l 382 268 q 388 111 382 178 q 478 107 433 107 q 691 211 625 107 q 757 492 757 315 q 696 764 757 660 q 481 878 629 878 z "},"E":{"ha":856,"x_min":63,"x_max":807,"o":"m 210 979 l 582 979 l 740 993 l 767 968 l 776 751 l 676 744 q 664 828 668 811 q 650 860 660 844 q 540 865 594 865 l 388 865 q 382 753 382 765 l 382 554 q 418 553 396 553 l 496 553 q 557 565 525 553 l 569 654 l 656 647 q 654 532 654 560 l 658 356 l 569 347 l 557 431 q 468 439 496 439 l 425 439 q 382 438 392 439 l 382 268 q 386 121 382 204 l 560 121 q 667 132 611 121 q 710 271 700 193 l 807 264 l 786 19 l 760 -6 q 601 0 629 0 l 210 0 l 69 -7 l 63 90 l 154 107 q 167 226 167 149 l 167 711 q 154 865 167 813 l 64 882 l 71 986 q 210 979 160 979 z "},"F":{"ha":790,"x_min":63,"x_max":776,"o":"m 540 865 l 388 865 q 382 753 382 765 l 382 539 q 415 538 397 538 l 496 538 q 557 550 517 538 l 569 639 l 656 632 q 654 517 654 544 l 658 340 l 569 332 l 557 415 q 468 424 496 424 l 417 424 q 382 422 393 424 l 382 264 q 394 107 382 160 l 526 99 l 519 -7 q 208 0 365 0 l 69 -7 l 63 90 l 154 107 q 167 226 167 149 l 167 711 q 154 865 167 822 l 64 882 l 71 986 q 210 979 144 979 l 582 979 l 740 993 l 767 968 l 776 751 l 676 744 q 666 819 668 811 q 651 858 664 828 q 540 865 582 865 z "},"G":{"ha":971,"x_min":38,"x_max":890,"o":"m 547 1000 q 865 953 661 1000 l 847 724 l 738 729 l 733 794 q 717 851 733 808 q 547 871 622 871 q 351 766 415 871 q 288 490 288 661 q 351 213 288 318 q 546 108 414 108 q 682 119 608 108 q 692 178 692 163 l 692 272 l 678 357 l 531 368 l 538 504 l 692 504 l 851 508 l 890 474 q 878 272 878 342 l 878 26 q 547 -21 674 -21 q 169 117 300 -21 q 38 489 38 256 q 169 861 38 722 q 547 1000 300 1000 z "},"H":{"ha":1149,"x_min":63,"x_max":1086,"o":"m 154 107 l 167 226 l 167 711 q 154 865 167 765 l 64 882 l 71 986 q 210 979 144 979 l 479 986 l 486 874 l 394 865 q 382 753 382 803 l 382 540 l 767 546 l 767 711 q 754 865 767 765 l 664 882 l 671 986 q 810 979 744 979 l 1079 986 l 1086 874 l 994 865 q 982 753 982 803 l 982 268 q 994 107 982 194 l 1085 99 l 1078 -7 q 808 0 965 0 l 669 -7 l 663 90 l 754 107 l 767 226 l 767 419 l 382 419 l 382 268 q 394 107 382 194 l 485 99 l 478 -7 q 208 0 365 0 l 69 -7 l 63 90 l 154 107 z "},"I":{"ha":563,"x_min":69,"x_max":493,"o":"m 161 107 l 174 226 l 174 711 q 161 865 174 765 l 71 882 l 78 986 q 217 979 151 979 l 486 986 l 493 874 l 401 865 q 389 753 389 803 l 389 268 q 401 107 389 194 l 492 99 l 485 -7 q 215 0 372 0 l 76 -7 l 69 90 l 161 107 z "},"J":{"ha":515,"x_min":44,"x_max":469,"o":"m 365 753 l 365 14 q 119 -278 365 -50 l 44 -235 q 150 15 150 -12 l 150 711 q 138 865 150 803 l 47 882 l 54 986 q 193 979 128 979 l 463 986 l 469 874 l 378 865 q 365 753 365 808 z "},"K":{"ha":1043,"x_min":67,"x_max":1050,"o":"m 1050 99 l 1043 -7 q 763 0 918 0 l 631 -7 l 624 90 l 678 101 q 596 228 618 197 l 388 490 l 613 801 l 651 874 l 608 882 l 615 986 q 750 979 683 979 l 981 986 l 988 874 l 907 865 q 801 758 843 804 l 622 514 q 907 179 715 410 q 983 107 918 165 l 1050 99 m 154 107 l 167 226 l 167 711 q 154 865 167 765 l 68 882 l 75 986 q 208 979 142 979 l 475 986 l 482 874 l 394 865 q 382 753 382 803 l 382 268 q 394 107 382 194 l 479 99 l 472 -7 q 207 0 363 0 l 74 -7 l 67 90 l 154 107 z "},"L":{"ha":785,"x_min":63,"x_max":771,"o":"m 154 107 l 167 226 l 167 711 q 154 865 167 765 l 64 882 l 71 986 q 210 979 144 979 l 479 986 l 486 874 l 394 865 q 382 753 382 803 l 382 268 q 393 121 382 199 l 524 121 q 631 132 578 121 q 663 213 656 186 q 674 271 669 239 l 771 264 l 750 19 l 724 -6 q 565 0 593 0 l 208 0 l 69 -7 l 63 90 l 154 107 z "},"M":{"ha":1361,"x_min":51,"x_max":1310,"o":"m 257 979 l 453 979 l 481 951 q 540 742 524 793 l 683 307 l 839 763 l 896 951 l 924 979 l 1058 979 l 1242 986 l 1247 886 l 1158 871 q 1154 790 1154 833 l 1199 183 q 1209 133 1203 156 q 1217 103 1215 111 l 1310 94 l 1303 -7 q 1053 0 1203 0 l 910 -7 l 903 86 l 996 103 q 1001 225 1001 167 l 979 719 l 724 0 l 596 0 l 347 719 l 321 225 q 326 103 321 167 l 421 94 l 413 -7 q 199 0 349 0 l 58 -7 l 51 86 l 146 103 q 165 183 151 121 l 204 790 q 196 869 204 819 l 103 886 l 110 986 q 257 979 197 979 z "},"N":{"ha":1114,"x_min":63,"x_max":1086,"o":"m 982 753 l 982 0 l 794 0 l 343 625 l 343 268 q 356 107 343 232 l 446 99 l 439 -7 q 208 0 365 0 l 69 -7 l 63 90 l 154 107 q 167 226 167 175 l 167 711 q 154 865 167 797 l 64 882 l 71 986 q 210 979 144 979 l 351 979 l 378 951 q 500 746 479 776 l 806 319 l 806 711 q 793 865 806 765 l 703 882 l 710 986 l 849 979 l 1079 986 l 1086 874 l 994 865 q 982 753 982 790 z "},"O":{"ha":1067,"x_min":38,"x_max":1029,"o":"m 533 1006 q 647 1006 533 1006 q 894 865 760 1006 q 1029 490 1029 725 q 894 114 1029 254 q 533 -26 760 -26 q 172 114 307 -26 q 38 490 38 254 q 172 865 38 725 q 533 1006 307 1006 m 533 871 q 471 871 533 871 q 348 777 408 871 q 288 490 288 683 q 348 202 288 296 q 533 108 408 108 q 719 202 658 108 q 779 490 779 296 q 719 777 779 683 q 533 871 658 871 z "},"P":{"ha":856,"x_min":63,"x_max":835,"o":"m 208 979 l 507 993 q 745 913 656 993 q 835 690 835 832 q 724 462 835 547 q 458 376 614 376 l 382 376 l 382 268 q 394 107 382 194 l 499 99 l 492 -7 q 208 0 365 0 l 69 -7 l 63 90 l 154 107 q 167 226 154 107 l 167 711 q 154 865 167 765 l 64 882 l 71 986 q 208 979 143 979 m 426 879 l 388 878 q 382 753 382 806 l 382 490 l 406 490 q 556 543 501 490 q 611 692 611 596 q 567 834 611 789 q 426 879 524 879 z "},"Q":{"ha":1075,"x_min":38,"x_max":1074,"o":"m 533 -26 q 172 114 307 -26 q 38 490 38 254 q 172 865 38 725 q 533 1006 307 1006 q 894 865 760 1006 q 1029 489 1029 725 q 958 200 1029 322 q 758 19 886 78 l 854 -44 l 1074 -139 l 949 -311 l 563 -26 l 533 -26 m 533 871 q 471 871 533 871 q 348 777 408 871 q 288 490 288 683 q 348 202 288 296 q 533 108 408 108 q 719 202 658 108 q 779 490 779 296 q 719 777 779 683 q 533 871 658 871 z "},"R":{"ha":918,"x_min":63,"x_max":919,"o":"m 214 979 l 500 993 q 736 915 647 993 q 825 700 825 836 q 779 546 825 614 q 656 436 733 478 q 804 182 699 350 l 853 104 l 919 99 l 913 -7 q 647 0 804 0 q 579 161 597 128 l 464 385 l 443 385 q 382 389 417 385 l 382 268 q 394 107 382 194 l 485 99 l 478 -7 q 208 0 365 0 l 69 -7 l 63 90 l 154 107 l 167 226 l 167 711 q 154 865 167 747 l 64 882 l 71 986 q 214 979 144 979 m 419 879 q 390 878 403 879 q 382 753 382 794 l 382 501 l 415 501 q 557 550 513 501 q 601 697 601 599 q 419 879 601 879 z "},"S":{"ha":796,"x_min":61,"x_max":742,"o":"m 197 307 q 199 213 199 226 q 218 153 199 200 q 361 114 292 114 q 472 144 431 114 q 513 226 513 174 q 480 315 513 278 q 398 376 447 353 q 292 430 349 399 q 185 494 235 461 q 103 587 136 528 q 71 724 71 646 q 162 925 71 850 q 394 1000 253 1000 q 703 950 536 1000 l 683 682 l 568 689 l 568 792 q 551 839 568 799 q 434 871 493 871 q 338 841 375 871 q 300 760 300 811 q 346 669 300 708 q 456 601 392 631 q 585 536 521 572 q 696 436 650 500 q 742 283 742 372 q 640 62 742 144 q 385 -21 539 -21 q 220 -4 301 -21 q 100 29 139 13 l 61 46 l 82 314 l 197 307 z "},"T":{"ha":869,"x_min":14,"x_max":857,"o":"m 315 107 l 328 226 l 328 711 q 315 865 328 758 l 250 865 q 139 858 208 865 q 122 812 126 828 q 114 731 118 796 l 14 738 l 24 968 l 50 993 q 208 979 181 979 l 661 979 l 819 993 l 846 968 l 857 738 l 757 731 q 749 812 753 796 q 732 858 744 828 q 626 865 669 865 l 556 865 q 543 753 543 799 l 543 268 q 556 107 543 194 l 646 99 l 639 -7 q 369 0 526 0 l 231 -7 l 224 90 l 315 107 z "},"U":{"ha":1082,"x_min":36,"x_max":1047,"o":"m 943 753 l 943 372 q 839 85 943 190 q 540 -21 735 -21 q 242 85 346 -21 q 139 372 139 190 l 139 711 q 126 865 139 807 l 36 882 l 43 986 q 182 979 117 979 l 458 986 l 465 874 l 374 865 q 361 753 361 819 l 361 361 q 415 201 361 264 q 569 138 468 138 q 715 194 669 138 q 760 361 760 251 l 760 711 q 747 865 760 772 l 657 882 l 664 986 q 803 979 738 979 l 1040 986 l 1047 874 l 956 865 q 943 753 943 807 z "},"V":{"ha":982,"x_min":-1,"x_max":979,"o":"m 410 0 l 119 801 q 82 876 111 825 l -1 889 l 6 986 q 133 979 82 979 l 422 986 l 429 885 l 339 872 q 350 800 342 825 l 511 288 l 688 819 l 697 872 l 608 889 l 615 986 q 768 979 703 979 l 972 986 l 979 885 l 910 875 q 847 756 863 797 l 569 0 l 410 0 z "},"W":{"ha":1429,"x_min":3,"x_max":1422,"o":"m 343 872 q 342 846 342 864 q 349 800 342 828 l 474 288 l 658 938 l 815 938 l 997 288 l 1138 819 q 1140 872 1146 847 l 1051 889 l 1058 986 q 1211 979 1146 979 l 1415 986 l 1422 885 l 1353 875 q 1297 756 1315 811 l 1056 0 l 896 0 l 718 588 l 532 0 l 372 0 l 118 801 l 86 876 l 3 889 l 10 986 q 138 979 86 979 l 426 986 l 433 885 l 343 872 z "},"X":{"ha":968,"x_min":10,"x_max":974,"o":"m 368 476 l 160 775 l 86 878 l 13 889 l 21 986 q 151 979 100 979 l 422 986 l 426 883 l 368 876 q 425 771 400 806 l 504 651 l 599 803 q 639 878 617 829 l 582 889 l 590 986 q 729 979 664 979 l 933 986 l 939 883 l 849 872 q 767 790 779 806 l 593 525 l 835 183 q 903 106 882 128 l 974 99 l 965 -7 q 694 0 851 0 l 572 -7 l 567 90 l 618 100 q 564 197 582 174 l 456 351 l 342 183 q 299 104 325 158 l 367 99 l 358 -7 q 154 0 269 0 l 15 -7 l 10 90 l 82 103 q 196 228 178 203 l 368 476 z "},"Y":{"ha":989,"x_min":-8,"x_max":986,"o":"m 376 107 l 389 226 l 389 346 l 142 801 q 88 865 125 832 l 75 876 l -8 889 l -1 986 q 126 979 75 979 l 415 986 l 422 885 l 349 872 q 372 800 358 826 l 518 513 l 671 819 l 676 872 l 615 889 l 622 986 q 775 979 710 979 l 979 986 l 986 885 l 903 875 q 817 756 840 800 l 604 347 l 604 268 q 617 107 604 194 l 707 99 l 700 -7 q 431 0 588 0 l 292 -7 l 285 90 l 376 107 z "},"Z":{"ha":849,"x_min":44,"x_max":803,"o":"m 299 856 q 183 849 253 856 l 165 810 q 144 704 150 753 l 44 711 l 54 968 l 82 993 q 242 979 214 979 l 768 979 l 782 868 l 633 644 l 417 294 l 328 124 l 546 124 q 663 135 604 124 q 697 222 689 189 q 708 282 706 256 l 803 275 l 782 19 l 754 -6 q 594 0 622 0 l 58 0 l 44 111 q 199 329 165 272 l 442 717 l 511 856 l 299 856 z "},"[":{"ha":368,"x_min":56,"x_max":326,"o":"m 218 835 l 218 56 q 228 -50 218 15 l 231 -69 l 326 -82 l 322 -174 q 89 -168 185 -168 l 56 -128 q 63 131 63 103 l 63 765 l 56 1018 l 89 1058 l 322 1064 l 326 972 l 231 960 q 218 835 218 890 z "},"\\":{"ha":553,"x_min":-10,"x_max":544,"o":"m 544 -49 l 414 -90 l -10 1032 l 119 1074 l 544 -49 z "},"]":{"ha":368,"x_min":42,"x_max":313,"o":"m 150 56 l 150 835 q 142 942 150 892 l 138 960 l 42 972 l 46 1064 q 279 1058 183 1058 l 313 1018 q 306 765 306 793 l 306 131 l 313 -128 l 279 -168 l 46 -174 l 42 -82 l 138 -69 q 150 56 150 0 z "},"^":{"ha":817,"x_min":28,"x_max":789,"o":"m 408 1017 l 789 518 l 665 436 l 408 803 l 151 436 l 28 518 l 408 1017 z "},"_":{"ha":700,"x_min":0,"x_max":700,"o":"m 3 -322 l 0 -190 l 700 -190 l 693 -322 l 3 -322 z "},"`":{"ha":500,"x_min":74,"x_max":426,"o":"m 426 865 l 361 785 l 268 853 l 74 943 l 139 1049 l 426 865 z "},"a":{"ha":726,"x_min":1,"x_max":725,"o":"m 725 75 l 719 -8 q 639 0 678 0 l 386 -6 l 381 86 l 436 89 l 443 111 l 432 158 l 247 158 l 238 114 l 233 89 l 289 75 l 283 -8 q 158 0 218 0 l 7 -6 l 1 86 l 40 88 l 85 171 l 292 744 l 442 757 l 653 122 l 668 83 l 725 75 m 349 492 l 281 264 l 400 264 l 349 492 z "},"b":{"ha":707,"x_min":61,"x_max":686,"o":"m 172 744 l 393 754 q 577 706 501 754 q 653 581 653 657 q 612 457 653 506 q 504 392 571 408 l 504 385 q 637 327 588 372 q 686 203 686 282 q 609 46 686 97 q 411 -6 532 -6 q 158 0 411 -6 l 67 -6 l 61 81 l 118 90 q 128 188 128 126 l 128 508 q 118 646 128 610 l 63 658 l 68 750 q 172 744 86 744 m 331 649 l 329 575 l 329 219 q 332 97 329 128 q 383 96 339 96 q 460 130 426 96 q 494 221 494 164 q 369 328 494 328 l 358 328 l 367 438 l 372 438 q 442 469 414 438 q 469 561 469 500 q 440 624 469 597 q 364 651 410 651 q 331 649 356 651 z "},"c":{"ha":707,"x_min":26,"x_max":664,"o":"m 419 -15 q 127 90 228 -15 q 26 372 26 194 q 128 655 26 550 q 419 760 229 760 q 654 724 515 760 l 640 517 l 549 521 l 543 594 q 531 632 543 610 q 419 642 468 642 q 261 372 261 642 q 418 103 261 103 q 543 114 478 103 q 563 163 563 153 l 565 211 l 654 214 l 664 19 q 419 -15 519 -15 z "},"d":{"ha":811,"x_min":56,"x_max":785,"o":"m 182 744 l 406 754 q 687 649 589 754 q 785 372 785 544 q 688 96 785 199 q 406 -7 592 -7 q 157 0 406 -7 l 61 -6 l 56 81 l 118 90 q 124 133 119 94 q 128 188 128 172 l 128 508 q 118 646 128 606 l 56 658 l 61 750 l 169 744 q 182 744 174 744 m 329 219 l 332 97 l 350 97 q 378 96 367 96 q 526 169 483 96 q 569 375 569 243 q 382 654 569 654 q 332 643 379 654 l 329 575 l 329 219 z "},"e":{"ha":686,"x_min":56,"x_max":644,"o":"m 329 219 l 331 110 l 454 110 q 531 117 496 110 q 550 167 533 122 q 561 221 557 190 l 644 215 l 628 15 l 608 -4 q 486 0 507 0 l 160 0 l 61 -6 l 56 81 l 118 90 q 128 188 128 113 l 128 508 q 118 646 128 614 l 56 658 l 61 750 q 160 744 113 744 l 471 744 l 592 754 l 613 736 l 619 560 l 535 554 q 522 639 531 606 q 439 643 490 643 l 332 643 l 329 575 l 329 422 l 399 422 q 436 432 414 422 l 446 499 l 521 493 l 521 406 l 524 261 l 446 256 l 436 314 q 378 321 399 321 l 329 321 l 329 219 z "},"f":{"ha":628,"x_min":56,"x_max":619,"o":"m 535 554 l 524 638 q 439 643 440 643 l 332 643 l 329 575 l 329 410 l 399 410 l 436 418 l 446 485 l 521 479 l 521 393 l 524 249 l 446 242 l 436 301 q 378 307 399 307 l 329 307 l 329 214 q 340 90 329 129 l 439 85 l 435 -6 q 157 0 297 0 l 61 -6 l 56 81 l 118 90 q 128 188 128 113 l 128 508 q 118 646 128 619 l 56 658 l 61 750 q 160 744 94 744 l 471 744 l 592 754 l 613 736 l 619 560 l 535 554 z "},"g":{"ha":778,"x_min":26,"x_max":706,"o":"m 438 760 q 688 724 538 760 l 672 540 l 575 543 l 571 594 q 558 632 571 603 q 439 642 503 642 q 263 372 263 642 q 438 103 263 103 q 518 104 490 103 q 524 135 524 122 l 524 207 l 513 265 l 399 274 l 404 400 l 524 400 l 671 404 l 706 372 q 696 225 696 278 l 696 19 q 438 -15 543 -15 q 133 90 239 -15 q 26 372 26 194 q 133 654 26 549 q 438 760 239 760 z "},"h":{"ha":926,"x_min":56,"x_max":872,"o":"m 586 90 l 596 188 l 596 304 l 329 304 l 329 219 q 340 90 329 213 l 396 85 l 392 -6 q 157 0 297 0 l 61 -6 l 56 81 l 118 90 q 128 188 128 158 l 128 508 q 118 646 128 578 l 56 658 l 61 750 q 160 744 94 744 l 399 750 l 404 651 l 340 646 q 329 575 329 601 l 329 417 l 596 421 l 596 508 q 586 646 596 578 l 524 658 l 529 750 q 626 744 561 744 l 867 750 l 872 651 l 808 646 q 797 575 797 601 l 797 219 q 808 90 797 151 l 864 85 l 860 -6 q 625 0 764 0 l 528 -6 l 524 81 l 586 90 z "},"i":{"ha":468,"x_min":60,"x_max":410,"o":"m 124 90 l 133 188 l 133 508 q 128 604 133 565 q 124 646 124 643 l 61 658 l 67 750 q 164 744 99 744 l 403 750 l 410 651 l 346 646 q 335 575 335 601 l 335 219 q 346 90 335 151 l 401 85 l 397 -6 q 163 0 301 0 l 65 -6 l 60 81 l 124 90 z "},"j":{"ha":431,"x_min":32,"x_max":388,"o":"m 313 575 l 313 22 q 101 -211 313 -28 l 32 -174 q 111 11 111 -10 l 111 508 q 101 646 111 604 l 39 658 l 44 750 q 142 744 76 744 l 381 750 l 388 651 l 324 646 q 313 575 313 601 z "},"k":{"ha":844,"x_min":60,"x_max":851,"o":"m 851 85 l 847 -6 q 597 0 735 0 l 514 -6 l 510 81 l 540 85 l 483 174 l 331 372 l 493 610 l 517 654 l 496 658 l 501 750 q 600 744 533 744 l 800 750 l 806 651 l 754 646 q 686 576 696 586 l 550 390 q 618 311 574 363 q 767 136 692 224 l 813 90 l 851 85 m 329 575 l 329 219 q 340 90 329 213 l 389 85 l 385 -6 q 156 0 293 0 l 65 -6 l 60 81 l 118 90 q 128 188 128 158 l 128 508 q 118 646 128 578 l 61 658 l 67 750 q 157 744 90 744 l 393 750 l 400 651 l 340 646 q 329 575 329 601 z "},"l":{"ha":633,"x_min":56,"x_max":617,"o":"m 329 575 l 329 219 q 339 110 329 168 l 426 110 q 503 117 472 110 q 525 176 521 161 q 533 221 529 190 l 617 215 l 600 15 l 581 -4 q 458 0 479 0 l 157 0 l 61 -6 l 56 81 l 118 90 q 128 188 128 158 l 128 508 q 118 646 128 578 l 56 658 l 61 750 q 160 744 94 744 l 399 750 l 404 651 l 340 646 q 329 575 329 601 z "},"m":{"ha":1089,"x_min":51,"x_max":1035,"o":"m 711 744 l 856 744 l 983 750 l 988 665 l 928 651 q 925 600 925 607 l 958 139 q 971 86 960 128 l 1035 81 l 1029 -6 q 818 0 949 0 l 717 -6 l 711 75 l 776 86 q 781 171 781 131 l 769 508 l 592 0 l 463 0 l 293 508 l 276 171 q 279 86 276 114 l 346 81 l 339 -6 q 161 0 293 0 l 56 -6 l 51 75 l 118 86 q 128 125 126 114 q 131 139 129 136 l 163 600 q 154 650 163 608 l 92 663 l 97 750 q 192 743 133 744 l 390 743 l 413 724 q 453 567 439 613 l 547 260 l 653 586 l 690 724 l 711 744 z "},"n":{"ha":892,"x_min":56,"x_max":863,"o":"m 792 581 l 792 143 l 793 4 l 607 4 l 297 414 l 297 219 q 303 133 297 175 q 308 90 308 92 l 369 85 l 365 -6 q 163 0 303 0 l 61 -6 l 56 81 l 118 90 q 128 188 128 129 l 128 508 q 118 646 128 613 l 57 658 l 63 750 q 161 744 96 744 l 303 743 l 322 724 q 411 571 396 594 l 624 282 l 624 514 q 614 647 624 540 l 551 664 l 557 751 l 674 744 l 857 750 l 863 647 l 799 647 q 792 581 792 606 z "},"o":{"ha":849,"x_min":26,"x_max":822,"o":"m 711 660 q 767 606 711 660 q 822 372 822 553 q 711 85 822 192 q 424 -22 600 -22 q 137 85 247 -22 q 26 372 26 192 q 137 660 26 553 q 424 767 247 767 q 711 660 600 767 m 299 580 q 279 550 299 580 q 260 372 260 521 q 299 165 260 224 q 424 106 338 106 q 550 165 511 106 q 589 372 589 224 q 550 580 589 521 q 424 639 511 639 q 299 580 338 639 z "},"p":{"ha":694,"x_min":56,"x_max":674,"o":"m 197 744 l 414 754 q 601 691 529 754 q 674 519 674 628 q 583 342 674 410 q 369 275 493 275 l 329 275 l 329 219 q 340 90 329 213 l 410 85 l 406 -6 q 157 0 297 0 l 61 -6 l 56 81 l 118 90 q 128 188 128 158 l 128 508 q 118 646 128 578 l 56 658 l 61 750 q 160 744 94 744 l 197 744 m 329 575 l 329 379 q 428 420 392 382 q 464 525 464 458 q 438 621 464 592 q 343 650 411 650 l 332 650 q 329 575 329 597 z "},"q":{"ha":853,"x_min":26,"x_max":857,"o":"m 438 -24 l 424 -22 q 137 85 247 -22 q 26 372 26 192 q 137 660 26 553 q 424 767 247 767 q 711 660 600 767 q 822 372 822 553 q 769 163 822 253 q 625 22 717 72 l 689 -18 l 857 -87 l 744 -236 l 438 -24 m 299 580 q 279 550 299 580 q 260 372 260 521 q 299 165 260 224 q 424 106 338 106 q 550 165 511 106 q 589 372 589 224 q 550 580 589 521 q 424 639 511 639 q 299 580 338 639 z "},"r":{"ha":728,"x_min":56,"x_max":729,"o":"m 189 744 l 406 754 q 592 692 519 754 q 664 529 664 631 q 546 332 664 407 q 653 153 594 235 q 661 139 661 140 l 692 88 l 729 85 l 725 -6 q 503 0 642 0 q 453 122 467 97 l 372 278 l 353 278 q 329 281 349 278 l 329 219 q 340 90 329 213 l 396 85 l 392 -6 q 157 0 297 0 l 61 -6 l 56 81 l 118 90 q 128 188 128 158 l 128 508 q 118 646 128 568 l 56 658 l 61 750 l 174 744 q 189 744 181 744 m 331 388 q 427 422 400 388 q 454 523 454 456 q 427 620 454 590 q 335 650 400 650 l 329 575 l 329 388 l 331 388 z "},"s":{"ha":632,"x_min":49,"x_max":590,"o":"m 164 254 q 165 172 165 178 q 167 162 165 165 q 174 151 169 158 q 182 138 179 143 q 275 108 224 108 q 381 172 381 108 q 264 290 381 240 q 169 338 217 311 q 87 417 121 365 q 53 542 53 468 q 126 700 53 640 q 317 760 200 760 q 560 719 435 760 l 544 492 l 443 496 l 443 592 l 431 615 q 356 640 393 640 q 293 622 319 640 q 267 570 267 603 q 300 511 267 538 q 381 465 333 485 q 476 419 428 444 q 557 344 524 393 q 590 228 590 296 q 509 52 590 119 q 306 -15 428 -15 q 177 -3 242 -15 q 81 19 113 8 l 49 32 l 65 258 l 164 254 z "},"t":{"ha":699,"x_min":17,"x_max":683,"o":"m 508 643 l 461 643 q 450 575 450 603 l 450 219 q 461 90 450 213 l 517 85 l 513 -6 q 278 0 418 0 l 182 -6 l 176 81 l 239 90 q 249 188 249 158 l 249 508 q 239 643 249 585 l 199 643 q 113 638 196 643 q 107 607 113 625 q 101 543 101 589 l 17 547 l 24 736 l 44 754 q 167 744 144 744 l 532 744 l 654 754 l 674 736 l 683 547 l 599 543 q 593 606 599 589 q 586 638 588 624 q 508 643 519 643 z "},"u":{"ha":874,"x_min":39,"x_max":838,"o":"m 764 578 l 764 285 q 678 65 764 146 q 435 -15 593 -15 q 194 65 278 -15 q 110 285 110 146 l 110 511 q 100 646 110 610 l 39 658 l 43 750 q 142 744 76 744 l 385 750 l 392 651 l 328 646 q 317 578 317 619 l 317 271 q 355 173 317 213 q 463 133 393 133 q 561 166 533 133 q 589 271 589 199 l 589 511 q 579 646 589 588 l 518 658 l 522 750 q 626 744 561 744 l 832 750 l 838 651 l 774 646 q 764 578 764 593 z "},"v":{"ha":775,"x_min":4,"x_max":769,"o":"m 300 656 l 300 642 q 296 633 300 629 l 403 253 l 526 629 l 532 656 l 469 669 l 475 753 q 604 744 544 744 l 763 750 l 769 658 l 725 657 q 678 574 685 592 l 458 0 l 306 0 l 85 621 l 65 660 l 4 669 l 10 753 q 99 744 57 744 l 356 750 l 361 658 l 300 656 z "},"w":{"ha":1122,"x_min":8,"x_max":1110,"o":"m 1110 658 l 1065 657 q 1026 574 1040 617 l 835 0 l 682 0 l 567 399 l 433 0 l 281 0 l 85 621 l 69 660 l 8 669 l 14 753 q 103 744 61 744 l 358 750 l 365 658 l 303 656 q 294 633 294 647 l 376 253 l 506 707 l 660 707 l 778 253 l 874 629 q 871 656 879 647 l 810 669 l 815 753 q 943 744 883 744 l 1103 750 l 1110 658 z "},"x":{"ha":744,"x_min":4,"x_max":746,"o":"m 263 356 l 47 663 l 7 669 l 13 751 q 115 744 67 744 l 329 750 l 331 656 l 307 660 q 350 586 319 633 l 390 522 l 446 610 q 475 663 463 631 l 451 669 l 458 751 q 576 744 515 744 l 719 750 l 724 656 l 656 651 q 604 600 614 613 l 472 404 l 661 139 q 681 117 665 135 q 707 88 696 99 l 746 85 l 740 -7 q 535 0 643 0 q 426 -6 426 0 l 424 82 l 446 83 q 408 150 419 136 l 344 239 l 275 139 q 243 86 265 128 l 279 85 l 272 -7 q 78 0 201 0 l 7 -6 l 4 82 l 54 88 q 135 174 121 154 l 263 356 z "},"y":{"ha":800,"x_min":-7,"x_max":801,"o":"m 504 219 q 515 90 504 213 l 571 85 l 567 -6 q 332 0 472 0 l 236 -6 l 231 81 l 293 90 q 303 188 303 158 l 303 257 l 100 621 q 53 660 89 635 l -7 669 l -3 753 q 86 744 46 744 l 343 750 l 349 658 l 307 656 l 311 633 l 425 404 l 540 629 l 531 656 l 501 669 l 507 753 q 636 744 576 744 l 796 750 l 801 658 l 742 657 q 675 574 689 596 l 504 249 l 504 219 z "},"z":{"ha":694,"x_min":33,"x_max":650,"o":"m 235 633 q 147 628 231 633 l 136 601 l 118 526 l 33 531 l 42 736 l 63 754 q 186 744 165 744 l 618 744 l 631 646 l 517 472 l 369 236 l 307 111 l 449 111 q 536 119 492 111 q 571 228 561 176 l 650 222 l 635 15 l 613 -4 q 489 0 510 0 l 56 0 l 43 97 q 161 261 139 221 l 339 542 l 382 633 l 235 633 z "},"{":{"ha":401,"x_min":42,"x_max":374,"o":"m 279 381 l 265 56 q 275 -50 265 15 l 278 -69 l 374 -82 l 369 -174 q 136 -168 232 -168 l 103 -128 l 143 358 q 91 394 126 376 q 42 411 56 411 l 47 479 q 93 497 58 479 q 144 532 128 514 l 103 1018 l 136 1058 l 369 1064 l 374 972 l 278 960 q 265 835 265 890 l 279 510 q 197 458 244 478 l 183 451 l 183 439 q 279 381 238 419 z "},"|":{"ha":388,"x_min":128,"x_max":260,"o":"m 260 -169 l 128 -157 l 128 1056 l 260 1044 l 260 -169 z "},"}":{"ha":401,"x_min":28,"x_max":360,"o":"m 122 510 l 136 835 q 128 942 136 892 l 124 960 l 28 972 l 32 1064 q 265 1058 169 1058 l 299 1018 l 257 532 q 309 497 274 514 q 360 479 344 479 l 354 411 q 308 393 343 411 q 257 358 274 375 l 299 -128 l 265 -168 l 32 -174 l 28 -82 l 124 -69 q 136 56 136 0 l 122 381 q 203 433 157 413 l 218 439 l 218 451 q 122 510 164 471 z "},"~":{"ha":839,"x_min":83,"x_max":756,"o":"m 727 338 q 718 325 727 338 q 666 267 710 311 q 585 222 622 222 q 418 264 549 222 q 261 306 288 306 q 172 256 213 306 l 158 238 l 83 300 q 112 345 94 318 q 173 417 129 372 q 247 461 217 461 q 426 419 299 461 q 579 378 553 378 q 667 428 626 378 l 681 446 l 756 383 q 727 338 744 365 z "}," ":{"ha":249,"x_min":0,"x_max":0,"o":""},"¡":{"ha":332,"x_min":36,"x_max":256,"o":"m 67 350 l 90 372 q 232 365 132 365 q 231 274 231 315 l 243 -304 l 76 -317 l 36 -278 q 71 243 71 25 l 67 350 m 77 675 q 91 690 77 675 q 153 706 104 706 q 228 676 201 706 q 256 595 256 646 q 228 515 256 544 q 153 485 201 485 q 77 515 104 485 q 50 594 50 544 q 77 675 50 644 z "},"¢":{"ha":703,"x_min":56,"x_max":654,"o":"m 513 664 q 423 700 471 700 q 344 681 375 700 q 300 625 314 663 q 276 451 276 560 q 443 225 276 225 q 526 236 486 225 q 586 258 567 247 l 606 269 l 654 189 q 426 90 551 99 l 421 -58 l 331 -54 l 336 94 q 126 203 197 111 q 56 449 56 294 q 135 701 56 604 q 365 808 215 799 l 372 957 l 461 953 l 456 807 q 617 782 544 799 l 642 776 l 621 531 l 517 535 l 518 610 l 513 664 z "},"£":{"ha":856,"x_min":63,"x_max":814,"o":"m 186 649 q 275 853 186 781 q 504 926 364 926 q 786 882 606 926 l 769 656 l 669 660 l 665 722 q 654 775 665 736 q 503 804 585 804 q 419 767 451 804 q 388 678 388 731 l 388 560 l 632 571 l 635 482 l 388 469 l 388 413 l 639 424 l 642 335 l 388 322 l 388 268 q 397 121 388 218 l 567 121 q 672 132 619 121 q 717 271 707 197 l 814 264 l 793 19 l 767 -6 q 608 0 636 0 l 217 0 l 89 -7 l 82 90 l 174 107 q 186 226 186 199 l 186 314 l 72 308 l 69 399 l 186 403 l 186 461 l 65 456 l 63 546 l 186 551 l 186 649 z "},"¥":{"ha":908,"x_min":17,"x_max":892,"o":"m 531 913 q 683 906 619 906 q 867 911 826 906 l 885 913 l 892 807 l 824 799 q 731 679 740 701 l 664 567 l 764 571 l 767 482 l 610 475 l 575 415 l 771 424 l 774 335 l 557 325 l 557 268 q 567 132 557 219 l 569 107 l 343 107 q 356 226 356 199 l 356 317 l 149 308 l 146 399 l 322 406 l 290 461 l 142 456 l 139 546 l 240 550 l 147 717 q 85 800 133 743 l 17 815 l 24 913 q 156 906 90 906 l 404 913 l 411 807 l 335 800 q 356 747 350 757 l 475 531 l 607 763 l 619 799 l 524 815 l 531 913 m 343 107 l 569 107 l 660 99 l 653 -7 q 404 0 561 0 l 258 -7 l 251 90 l 343 107 z "},"¦":{"ha":388,"x_min":128,"x_max":260,"o":"m 260 544 l 128 556 l 128 1056 l 260 1044 l 260 544 m 128 294 l 260 285 l 260 -169 l 128 -157 l 128 294 z "},"§":{"ha":797,"x_min":111,"x_max":700,"o":"m 700 78 q 619 -87 700 -29 q 406 -146 538 -146 q 126 -106 274 -146 l 143 117 l 242 110 l 242 35 q 249 -8 242 22 q 356 -33 288 -33 q 456 -9 424 -33 q 488 54 488 15 q 449 122 488 93 q 355 172 410 150 q 244 219 300 194 q 150 286 189 244 q 111 374 111 328 q 130 461 111 419 q 167 526 149 503 l 186 550 l 208 536 q 259 451 208 489 q 382 383 310 413 q 526 317 454 353 q 649 219 599 281 q 700 78 700 158 m 111 776 q 190 942 111 883 q 392 1000 269 1000 q 657 960 515 1000 l 640 751 l 542 758 l 542 833 q 536 861 542 836 q 444 888 504 888 q 354 863 385 888 q 324 800 324 839 q 363 733 324 761 q 456 682 401 704 q 567 635 511 660 q 661 568 622 610 q 700 481 700 526 q 681 393 700 435 q 644 328 663 351 l 625 304 l 603 318 q 552 403 603 365 q 429 472 501 442 q 285 538 357 501 q 162 635 213 574 q 111 776 111 696 z "},"¨":{"ha":500,"x_min":-8,"x_max":508,"o":"m 17 981 q 29 994 17 981 q 86 1007 42 1007 q 155 981 131 1007 q 179 910 179 956 q 155 840 179 865 q 86 814 131 814 q 17 840 42 814 q -8 910 -8 867 q 17 981 -8 954 m 347 981 q 359 994 347 981 q 415 1007 371 1007 q 484 981 460 1007 q 508 910 508 956 q 484 840 508 865 q 415 814 460 814 q 347 840 371 814 q 322 910 322 865 q 347 981 322 954 z "},"©":{"ha":1174,"x_min":79,"x_max":1094,"o":"m 588 854 q 693 854 588 854 q 947 707 799 854 q 1094 350 1094 560 q 945 -10 1094 140 q 587 -160 796 -160 q 228 -12 378 -160 q 79 346 79 135 q 228 706 79 557 q 588 854 378 854 m 587 -64 q 672 -64 587 -64 q 877 57 757 -64 q 997 347 997 178 q 876 637 997 515 q 586 758 756 758 q 296 639 417 758 q 175 349 175 519 q 296 57 175 178 q 587 -64 417 -64 m 604 61 q 384 140 460 61 q 308 352 308 219 q 384 564 308 485 q 604 643 460 643 q 785 615 664 643 l 772 464 l 704 467 l 700 521 q 690 550 700 531 q 604 558 640 558 q 479 352 479 558 q 603 146 479 146 q 701 157 650 146 q 714 192 714 188 l 718 231 l 783 232 l 790 89 q 604 61 669 61 z "},"ª":{"ha":492,"x_min":28,"x_max":476,"o":"m 164 615 q 64 651 100 615 q 28 747 28 686 q 149 872 28 853 l 276 892 l 276 918 q 260 978 276 960 q 210 996 244 996 q 139 979 175 996 l 132 944 l 133 899 l 61 896 l 47 1054 q 225 1079 142 1079 q 362 1037 308 1079 q 415 922 415 994 l 415 804 l 422 697 l 476 692 l 471 621 q 292 625 426 625 l 286 689 q 164 615 244 615 m 221 824 q 175 765 175 814 q 221 717 175 717 q 276 765 261 717 l 276 831 l 221 824 z "},"«":{"ha":617,"x_min":28,"x_max":575,"o":"m 28 336 l 240 658 l 333 596 l 188 336 l 333 76 l 240 14 l 28 336 m 269 336 l 482 658 l 575 596 l 429 336 l 575 76 l 482 14 l 269 336 z "},"¬":{"ha":813,"x_min":90,"x_max":722,"o":"m 90 428 l 722 428 l 722 90 l 589 90 l 592 293 l 90 288 l 90 428 z "},"®":{"ha":1174,"x_min":79,"x_max":1094,"o":"m 588 854 q 693 854 588 854 q 947 707 799 854 q 1094 350 1094 560 q 945 -10 1094 140 q 587 -160 796 -160 q 228 -12 378 -160 q 79 346 79 135 q 228 706 79 557 q 588 854 378 854 m 587 -64 q 672 -64 587 -64 q 877 57 757 -64 q 997 347 997 178 q 876 637 997 515 q 586 758 756 758 q 296 639 417 758 q 175 349 175 519 q 296 57 175 178 q 587 -64 417 -64 m 433 646 l 608 654 q 751 608 696 654 q 806 477 806 563 q 713 338 806 392 q 772 233 746 271 q 801 192 799 196 q 813 175 804 189 l 825 154 l 856 150 l 853 85 q 686 89 789 89 q 647 181 657 161 l 583 301 l 547 301 l 547 250 q 557 156 547 233 l 601 150 l 599 85 q 424 89 526 89 l 347 85 l 343 147 l 393 156 q 400 226 400 197 l 400 475 q 393 574 400 490 l 344 583 l 349 650 q 433 646 388 646 m 558 579 l 551 579 q 547 518 547 542 l 547 376 l 554 376 q 629 403 608 376 q 650 481 650 429 q 629 556 650 533 q 558 579 608 579 z "},"¯":{"ha":500,"x_min":26,"x_max":474,"o":"m 26 828 l 26 929 l 474 929 l 464 828 l 26 828 z "},"°":{"ha":529,"x_min":42,"x_max":488,"o":"m 427 869 q 457 842 427 869 q 488 718 488 814 q 427 567 488 622 q 264 511 367 511 q 101 567 161 511 q 42 718 42 622 q 101 869 42 814 q 264 925 161 925 q 427 869 367 925 m 199 806 q 188 788 199 806 q 176 718 176 771 q 199 631 176 665 q 265 596 221 596 q 331 631 310 596 q 353 718 353 665 q 331 806 353 771 q 265 840 310 840 q 199 806 221 840 z "},"±":{"ha":835,"x_min":101,"x_max":733,"o":"m 347 190 l 347 419 l 101 417 l 101 556 l 347 556 l 347 781 l 479 781 l 482 556 l 733 556 l 733 424 l 483 421 l 486 190 l 347 190 m 733 0 l 101 0 l 101 126 l 733 133 l 733 0 z "},"²":{"ha":518,"x_min":19,"x_max":481,"o":"m 42 1189 q 235 1222 133 1222 q 391 1180 336 1222 q 446 1065 446 1138 q 397 930 446 993 q 201 740 347 867 l 307 740 l 379 750 q 393 797 390 788 l 401 835 l 481 829 l 472 640 l 442 622 q 340 625 357 625 l 33 625 l 19 722 q 235 930 182 868 q 288 1051 288 992 q 265 1106 288 1085 q 209 1126 243 1126 q 135 1104 175 1126 q 128 1068 128 1082 l 128 1029 l 47 1024 l 42 1189 z "},"³":{"ha":465,"x_min":21,"x_max":426,"o":"m 190 1222 q 401 1063 401 1222 q 300 924 401 975 q 390 873 353 914 q 426 783 426 832 q 317 614 426 686 q 44 531 208 542 l 24 604 q 198 660 132 615 q 264 772 264 706 q 176 865 264 865 l 121 861 l 108 932 q 215 981 178 944 q 251 1072 251 1017 q 183 1138 251 1138 q 118 1128 150 1138 q 114 1103 114 1108 l 113 1046 l 33 1040 l 21 1196 q 190 1222 96 1222 z "},"´":{"ha":500,"x_min":74,"x_max":426,"o":"m 361 1049 l 426 943 q 232 853 257 865 l 139 785 l 74 865 l 361 1049 z "},"µ":{"ha":821,"x_min":56,"x_max":792,"o":"m 374 -6 q 271 15 311 -6 l 271 -96 l 278 -303 l 85 -303 l 56 -276 q 76 -54 76 -124 l 76 451 l 69 686 l 256 686 l 285 660 q 271 410 271 479 l 271 261 q 297 169 271 204 q 374 133 322 133 q 467 182 426 133 q 511 315 508 231 l 511 465 l 504 686 l 690 686 l 719 660 q 704 424 706 500 l 704 232 q 717 124 704 142 q 759 92 729 107 q 792 76 789 78 l 765 -21 q 732 -17 756 -19 q 701 -15 708 -15 q 676 -11 694 -14 q 650 -6 657 -8 l 631 0 q 610 10 615 6 q 594 22 604 15 q 578 39 583 29 q 551 86 560 67 q 374 -6 486 -6 z "},"¶":{"ha":868,"x_min":38,"x_max":811,"o":"m 625 979 q 804 986 756 979 l 811 874 l 719 865 l 718 865 q 714 753 714 799 l 714 143 l 726 -106 l 486 -18 q 499 101 499 74 l 499 979 l 625 979 m 372 404 q 134 484 231 404 q 38 694 38 564 q 124 905 38 825 q 343 985 211 985 q 429 979 388 985 l 429 458 l 372 404 m 486 -18 l 726 -106 l 700 -131 q 513 -125 550 -125 l 374 -132 l 367 -35 l 486 -18 z "},"·":{"ha":338,"x_min":56,"x_max":275,"o":"m 85 501 q 99 517 85 501 q 165 533 114 533 q 246 502 217 533 q 275 417 275 471 q 246 331 275 363 q 165 299 217 299 q 85 331 114 299 q 56 415 56 363 q 85 501 56 468 z "},"¸":{"ha":500,"x_min":128,"x_max":419,"o":"m 279 -82 q 381 -115 342 -83 q 419 -206 419 -147 q 376 -296 419 -265 q 256 -326 332 -326 q 128 -301 181 -326 l 153 -233 q 229 -249 201 -249 q 294 -203 294 -249 q 236 -160 294 -160 l 207 -161 l 192 -142 l 207 14 l 299 14 l 279 -82 z "},"¹":{"ha":408,"x_min":40,"x_max":393,"o":"m 169 776 l 169 1054 l 76 1024 l 40 1083 q 171 1181 153 1165 l 215 1232 l 321 1221 q 313 1010 313 1054 l 313 804 q 316 736 313 757 q 320 709 319 715 q 322 697 321 703 l 393 692 l 388 621 q 203 625 313 625 l 83 621 l 79 688 l 161 697 l 164 711 q 169 776 169 760 z "},"º":{"ha":511,"x_min":26,"x_max":485,"o":"m 425 1019 q 455 989 425 1019 q 485 844 485 958 q 426 671 485 731 q 256 611 367 611 q 85 671 144 611 q 26 845 26 731 q 85 1019 26 960 q 255 1079 144 1079 q 425 1019 365 1079 m 255 693 q 274 693 255 693 q 310 727 293 693 q 328 845 328 761 q 310 963 328 929 q 255 997 293 997 q 200 963 217 997 q 183 845 183 929 q 200 727 183 761 q 255 693 217 693 z "},"»":{"ha":617,"x_min":42,"x_max":589,"o":"m 347 336 l 135 14 l 42 76 l 188 336 l 42 596 l 135 658 l 347 336 m 589 336 l 376 14 l 283 76 l 429 336 l 283 596 l 376 658 l 589 336 z "},"¼":{"ha":1189,"x_min":40,"x_max":1144,"o":"m 169 568 l 169 846 l 76 815 l 40 875 q 171 972 153 957 l 215 1024 l 321 1013 q 313 801 313 846 l 313 596 q 316 528 313 549 q 320 501 319 507 q 322 489 321 494 l 393 483 l 388 413 q 203 417 313 417 l 83 413 l 79 479 l 161 489 l 164 503 q 169 568 169 551 m 808 1000 l 906 938 l 317 -68 l 218 -6 l 808 1000 m 910 257 l 910 339 l 1054 388 l 1054 265 l 1144 271 l 1144 167 l 1054 167 l 1054 147 q 1064 74 1054 99 l 1125 68 l 1121 -4 q 924 0 1035 0 l 815 -4 l 811 63 l 901 74 q 904 97 903 86 q 907 118 906 107 q 910 154 910 140 l 910 167 l 717 167 l 640 258 l 979 688 l 1081 604 q 969 493 983 514 l 788 257 l 910 257 z "},"½":{"ha":1257,"x_min":40,"x_max":1204,"o":"m 169 568 l 169 846 l 76 815 l 40 875 q 171 972 153 957 l 215 1024 l 321 1013 q 313 801 313 846 l 313 596 q 316 528 313 549 q 320 501 319 507 q 322 489 321 494 l 393 483 l 388 413 q 203 417 313 417 l 83 413 l 79 479 l 161 489 l 164 503 q 169 568 169 551 m 808 1000 l 906 938 l 317 -68 l 218 -6 l 808 1000 m 751 583 q 951 617 847 617 q 1115 574 1056 617 q 1174 458 1174 532 q 1117 310 1174 385 q 911 115 1060 236 l 1017 115 l 1103 125 q 1117 172 1114 163 l 1125 210 l 1204 204 l 1196 15 l 1165 -3 q 1064 0 1081 0 l 743 0 l 729 97 q 949 306 890 233 q 1008 442 1008 379 q 986 499 1008 479 q 926 518 964 518 q 844 496 889 518 q 838 463 838 474 l 838 424 l 757 418 l 751 583 z "},"¾":{"ha":1163,"x_min":21,"x_max":1118,"o":"m 190 1014 q 401 854 401 1014 q 300 715 401 767 q 390 665 353 706 q 426 575 426 624 q 317 406 426 478 q 44 322 208 333 l 24 396 q 198 452 132 407 q 264 564 264 497 q 176 657 264 657 l 121 653 l 108 724 q 215 772 178 736 q 251 864 251 808 q 183 929 251 929 q 118 919 150 929 q 114 894 114 900 l 113 838 l 33 832 l 21 988 q 190 1014 96 1014 m 782 1000 l 879 938 l 290 -68 l 192 -6 l 782 1000 m 883 257 l 883 339 l 1028 388 l 1028 265 l 1118 271 l 1118 167 l 1028 167 l 1028 147 q 1038 74 1028 99 l 1099 68 l 1094 -4 q 897 0 1008 0 l 789 -4 l 785 63 l 875 74 q 878 97 876 86 q 881 118 879 107 q 883 154 883 140 l 883 167 l 690 167 l 614 258 l 953 688 l 1054 604 q 943 493 957 514 l 761 257 l 883 257 z "},"¿":{"ha":586,"x_min":14,"x_max":558,"o":"m 333 139 q 306 139 333 139 q 239 88 278 139 q 200 -42 200 38 q 238 -172 200 -121 q 342 -222 275 -222 q 442 -200 408 -222 q 450 -122 450 -171 l 447 -72 l 542 -65 l 558 -271 q 335 -325 439 -325 q 99 -250 185 -325 q 14 -44 14 -175 q 94 161 14 88 q 306 239 174 235 l 301 350 l 325 372 q 464 367 375 367 l 468 363 l 468 182 l 425 135 q 333 139 389 139 m 313 675 q 327 690 313 675 q 389 706 340 706 q 465 676 438 706 q 492 595 492 646 q 465 515 492 544 q 389 485 438 485 q 313 515 340 485 q 286 594 286 544 q 313 675 286 644 z "},"À":{"ha":926,"x_min":1,"x_max":928,"o":"m 928 90 l 921 -7 q 804 0 853 0 l 521 -7 l 514 94 l 596 107 l 589 179 l 569 249 l 307 249 l 283 160 l 275 107 l 356 90 l 349 -7 q 201 0 267 0 l 8 -7 l 1 94 l 64 104 l 122 224 l 385 979 l 540 994 l 818 178 l 850 103 l 928 90 m 444 692 l 344 363 l 533 365 l 444 692 m 625 1117 l 574 1028 l 471 1081 l 246 1144 l 296 1261 l 625 1117 z "},"Á":{"ha":926,"x_min":1,"x_max":928,"o":"m 928 90 l 921 -7 q 804 0 853 0 l 521 -7 l 514 94 l 596 107 l 589 179 l 569 249 l 307 249 l 283 160 l 275 107 l 356 90 l 349 -7 q 201 0 267 0 l 8 -7 l 1 94 l 64 104 l 122 224 l 385 979 l 540 994 l 818 178 l 850 103 l 928 90 m 444 692 l 344 363 l 533 365 l 444 692 m 631 1247 l 681 1131 q 456 1067 482 1075 l 353 1014 l 301 1103 l 631 1247 z "},"Â":{"ha":926,"x_min":1,"x_max":928,"o":"m 928 90 l 921 -7 q 804 0 853 0 l 521 -7 l 514 94 l 596 107 l 589 179 l 569 249 l 307 249 l 283 160 l 275 107 l 356 90 l 349 -7 q 201 0 267 0 l 8 -7 l 1 94 l 64 104 l 122 224 l 385 979 l 540 994 l 818 178 l 850 103 l 928 90 m 444 692 l 344 363 l 533 365 l 444 692 m 464 1261 l 739 1076 l 674 996 l 581 1064 l 464 1121 l 347 1064 l 254 996 l 189 1076 l 464 1261 z "},"Ã":{"ha":926,"x_min":1,"x_max":928,"o":"m 928 90 l 921 -7 q 804 0 853 0 l 521 -7 l 514 94 l 596 107 l 589 179 l 569 249 l 307 249 l 283 160 l 275 107 l 356 90 l 349 -7 q 201 0 267 0 l 8 -7 l 1 94 l 64 104 l 122 224 l 385 979 l 540 994 l 818 178 l 850 103 l 928 90 m 444 692 l 344 363 l 533 365 l 444 692 m 712 1149 q 706 1137 712 1149 q 667 1086 700 1125 q 606 1047 635 1047 q 479 1074 578 1047 q 358 1100 381 1100 q 293 1056 322 1100 l 283 1042 l 218 1081 q 278 1180 240 1133 q 343 1226 315 1226 q 470 1200 371 1226 q 592 1174 569 1174 q 654 1214 629 1174 l 663 1226 l 731 1188 q 712 1149 724 1172 z "},"Ä":{"ha":926,"x_min":1,"x_max":928,"o":"m 928 90 l 921 -7 q 804 0 853 0 l 521 -7 l 514 94 l 596 107 l 589 179 l 569 249 l 307 249 l 283 160 l 275 107 l 356 90 l 349 -7 q 201 0 267 0 l 8 -7 l 1 94 l 64 104 l 122 224 l 385 979 l 540 994 l 818 178 l 850 103 l 928 90 m 444 692 l 344 363 l 533 365 l 444 692 m 231 1218 q 243 1231 231 1218 q 300 1244 256 1244 q 369 1219 344 1244 q 393 1148 393 1193 q 369 1077 393 1103 q 300 1051 344 1051 q 231 1078 256 1051 q 206 1148 206 1104 q 231 1218 206 1192 m 560 1218 q 573 1231 560 1218 q 629 1244 585 1244 q 698 1219 674 1244 q 722 1148 722 1193 q 698 1077 722 1103 q 629 1051 674 1051 q 560 1077 585 1051 q 536 1147 536 1103 q 560 1218 536 1192 z "},"Å":{"ha":926,"x_min":1,"x_max":928,"o":"m 928 90 l 921 -7 q 804 0 853 0 l 521 -7 l 514 94 l 596 107 l 589 179 l 569 249 l 307 249 l 283 160 l 275 107 l 356 90 l 349 -7 q 201 0 267 0 l 8 -7 l 1 94 l 64 104 l 122 224 l 385 979 l 540 994 l 818 178 l 850 103 l 928 90 m 444 692 l 344 363 l 533 365 l 444 692 m 361 1250 q 379 1268 361 1250 q 464 1286 397 1286 q 566 1251 531 1286 q 601 1153 601 1215 q 566 1056 601 1092 q 464 1021 531 1021 q 361 1056 397 1021 q 325 1153 325 1092 q 361 1250 325 1214 m 508 1153 q 508 1180 508 1153 q 465 1206 508 1206 q 421 1153 421 1206 q 465 1101 421 1101 q 508 1153 508 1101 z "},"Æ":{"ha":1267,"x_min":1,"x_max":1263,"o":"m 996 858 l 764 858 q 772 753 768 789 l 803 556 q 839 553 814 553 l 951 553 q 1013 565 981 553 l 1025 654 l 1111 647 q 1110 536 1110 564 l 1114 360 l 1025 351 l 1013 435 q 924 443 951 443 l 846 443 q 821 440 829 443 l 847 268 l 875 121 l 1015 121 q 1122 132 1067 121 q 1154 213 1147 186 q 1165 271 1161 239 l 1263 264 l 1242 19 l 1215 -6 q 1057 0 1085 0 l 681 0 l 568 -7 l 561 90 l 654 107 q 651 183 654 167 l 640 256 l 339 256 l 285 160 q 281 150 283 158 q 263 107 276 140 l 358 99 l 351 -7 q 147 0 263 0 l 8 -7 l 1 90 l 72 103 q 156 224 139 194 l 521 865 l 432 882 l 439 986 q 578 979 513 979 l 1038 979 l 1196 993 l 1222 968 l 1232 744 l 1132 738 q 1122 813 1124 804 q 1107 851 1119 821 q 996 858 1038 858 m 403 369 l 622 372 l 576 665 l 574 676 l 403 369 z "},"Ç":{"ha":885,"x_min":38,"x_max":836,"o":"m 551 -82 q 653 -115 614 -83 q 692 -206 692 -147 q 648 -296 692 -265 q 528 -326 604 -326 q 400 -301 453 -326 l 425 -233 q 501 -249 474 -249 q 567 -203 567 -249 q 508 -160 567 -160 l 479 -161 l 464 -142 l 475 -19 q 150 131 263 -6 q 38 495 38 268 q 163 861 38 722 q 524 1000 288 1000 q 824 953 632 1000 l 807 704 l 700 710 l 696 794 q 679 851 696 808 q 524 871 590 871 q 345 767 403 871 q 288 490 288 663 q 344 213 288 318 q 522 108 401 108 q 694 129 600 108 q 701 148 696 132 q 712 178 707 164 q 717 197 717 192 l 721 263 l 825 265 l 836 26 q 564 -19 663 -15 l 551 -82 z "},"È":{"ha":856,"x_min":63,"x_max":807,"o":"m 210 979 l 582 979 l 740 993 l 767 968 l 776 751 l 676 744 q 664 828 668 811 q 650 860 660 844 q 540 865 594 865 l 388 865 q 382 753 382 765 l 382 554 q 418 553 396 553 l 496 553 q 557 565 525 553 l 569 654 l 656 647 q 654 532 654 560 l 658 356 l 569 347 l 557 431 q 468 439 496 439 l 425 439 q 382 438 392 439 l 382 268 q 386 121 382 204 l 560 121 q 667 132 611 121 q 710 271 700 193 l 807 264 l 786 19 l 760 -6 q 601 0 629 0 l 210 0 l 69 -7 l 63 90 l 154 107 q 167 226 167 149 l 167 711 q 154 865 167 813 l 64 882 l 71 986 q 210 979 160 979 m 585 1117 l 533 1028 l 431 1081 l 206 1144 l 256 1261 l 585 1117 z "},"É":{"ha":856,"x_min":63,"x_max":807,"o":"m 210 979 l 582 979 l 740 993 l 767 968 l 776 751 l 676 744 q 664 828 668 811 q 650 860 660 844 q 540 865 594 865 l 388 865 q 382 753 382 765 l 382 554 q 418 553 396 553 l 496 553 q 557 565 525 553 l 569 654 l 656 647 q 654 532 654 560 l 658 356 l 569 347 l 557 431 q 468 439 496 439 l 425 439 q 382 438 392 439 l 382 268 q 386 121 382 204 l 560 121 q 667 132 611 121 q 710 271 700 193 l 807 264 l 786 19 l 760 -6 q 601 0 629 0 l 210 0 l 69 -7 l 63 90 l 154 107 q 167 226 167 149 l 167 711 q 154 865 167 813 l 64 882 l 71 986 q 210 979 160 979 m 590 1247 l 640 1131 q 415 1067 442 1075 l 313 1014 l 261 1103 l 590 1247 z "},"Ê":{"ha":856,"x_min":63,"x_max":807,"o":"m 210 979 l 582 979 l 740 993 l 767 968 l 776 751 l 676 744 q 664 828 668 811 q 650 860 660 844 q 540 865 594 865 l 388 865 q 382 753 382 765 l 382 554 q 418 553 396 553 l 496 553 q 557 565 525 553 l 569 654 l 656 647 q 654 532 654 560 l 658 356 l 569 347 l 557 431 q 468 439 496 439 l 425 439 q 382 438 392 439 l 382 268 q 386 121 382 204 l 560 121 q 667 132 611 121 q 710 271 700 193 l 807 264 l 786 19 l 760 -6 q 601 0 629 0 l 210 0 l 69 -7 l 63 90 l 154 107 q 167 226 167 149 l 167 711 q 154 865 167 813 l 64 882 l 71 986 q 210 979 160 979 m 424 1317 l 699 1132 l 633 1051 l 540 1119 l 424 1176 l 307 1119 l 214 1051 l 149 1132 l 424 1317 z "},"Ë":{"ha":856,"x_min":63,"x_max":807,"o":"m 210 979 l 582 979 l 740 993 l 767 968 l 776 751 l 676 744 q 664 828 668 811 q 650 860 660 844 q 540 865 594 865 l 388 865 q 382 753 382 765 l 382 554 q 418 553 396 553 l 496 553 q 557 565 525 553 l 569 654 l 656 647 q 654 532 654 560 l 658 356 l 569 347 l 557 431 q 468 439 496 439 l 425 439 q 382 438 392 439 l 382 268 q 386 121 382 204 l 560 121 q 667 132 611 121 q 710 271 700 193 l 807 264 l 786 19 l 760 -6 q 601 0 629 0 l 210 0 l 69 -7 l 63 90 l 154 107 q 167 226 167 149 l 167 711 q 154 865 167 813 l 64 882 l 71 986 q 210 979 160 979 m 190 1218 q 203 1231 190 1218 q 260 1244 215 1244 q 328 1219 304 1244 q 353 1148 353 1193 q 328 1077 353 1103 q 260 1051 304 1051 q 190 1078 215 1051 q 165 1148 165 1104 q 190 1218 165 1192 m 520 1218 q 532 1231 520 1218 q 589 1244 544 1244 q 658 1219 633 1244 q 682 1148 682 1193 q 658 1077 682 1103 q 589 1051 633 1051 q 520 1077 544 1051 q 496 1147 496 1103 q 520 1218 496 1192 z "},"Ì":{"ha":563,"x_min":64,"x_max":493,"o":"m 161 107 l 174 226 l 174 711 q 161 865 174 765 l 71 882 l 78 986 q 217 979 151 979 l 486 986 l 493 874 l 401 865 q 389 753 389 803 l 389 268 q 401 107 389 194 l 492 99 l 485 -7 q 215 0 372 0 l 76 -7 l 69 90 l 161 107 m 443 1117 l 392 1028 l 289 1081 l 64 1144 l 114 1261 l 443 1117 z "},"Í":{"ha":563,"x_min":69,"x_max":499,"o":"m 161 107 l 174 226 l 174 711 q 161 865 174 765 l 71 882 l 78 986 q 217 979 151 979 l 486 986 l 493 874 l 401 865 q 389 753 389 803 l 389 268 q 401 107 389 194 l 492 99 l 485 -7 q 215 0 372 0 l 76 -7 l 69 90 l 161 107 m 449 1247 l 499 1131 q 274 1067 300 1075 l 171 1014 l 119 1103 l 449 1247 z "},"Î":{"ha":563,"x_min":7,"x_max":557,"o":"m 161 107 l 174 226 l 174 711 q 161 865 174 765 l 71 882 l 78 986 q 217 979 151 979 l 486 986 l 493 874 l 401 865 q 389 753 389 803 l 389 268 q 401 107 389 194 l 492 99 l 485 -7 q 215 0 372 0 l 76 -7 l 69 90 l 161 107 m 282 1303 l 557 1118 l 492 1038 l 399 1106 l 282 1163 l 165 1106 l 72 1038 l 7 1118 l 282 1303 z "},"Ï":{"ha":563,"x_min":69,"x_max":493,"o":"m 93 1218 q 105 1231 93 1218 q 160 1244 117 1244 q 226 1219 203 1244 q 250 1148 250 1193 q 226 1077 250 1103 q 160 1051 203 1051 q 93 1078 117 1051 q 69 1148 69 1104 q 93 1218 69 1192 m 335 1218 q 347 1231 335 1218 q 401 1244 358 1244 q 468 1219 444 1244 q 492 1148 492 1193 q 468 1077 492 1103 q 401 1051 444 1051 q 335 1077 358 1051 q 313 1147 313 1103 q 335 1218 313 1192 m 161 107 l 174 226 l 174 711 q 161 865 174 765 l 71 882 l 78 986 q 217 979 151 979 l 486 986 l 493 874 l 401 865 q 389 753 389 803 l 389 268 q 401 107 389 194 l 492 99 l 485 -7 q 215 0 372 0 l 76 -7 l 69 90 l 161 107 z "},"Ð":{"ha":950,"x_min":50,"x_max":976,"o":"m 488 -8 l 196 0 l 57 -7 l 50 90 l 142 107 q 154 226 154 199 l 154 447 l 58 447 l 58 549 l 154 549 l 154 711 q 144 842 154 763 l 142 865 l 51 882 l 58 986 q 197 979 132 979 l 488 993 q 850 856 724 993 q 976 491 976 719 q 850 127 976 263 q 488 -8 724 -8 m 369 447 l 369 268 q 375 111 369 178 q 465 107 421 107 q 678 211 613 107 q 744 492 744 315 q 683 764 744 660 q 468 878 617 878 q 375 867 439 878 q 369 753 369 772 l 369 549 l 506 549 l 499 447 l 369 447 z "},"Ñ":{"ha":1114,"x_min":63,"x_max":1086,"o":"m 982 753 l 982 0 l 794 0 l 343 625 l 343 268 q 356 107 343 232 l 446 99 l 439 -7 q 208 0 365 0 l 69 -7 l 63 90 l 154 107 q 167 226 167 175 l 167 711 q 154 865 167 797 l 64 882 l 71 986 q 210 979 144 979 l 351 979 l 378 951 q 500 746 479 776 l 806 319 l 806 711 q 793 865 806 765 l 703 882 l 710 986 l 849 979 l 1079 986 l 1086 874 l 994 865 q 982 753 982 790 m 819 1149 q 813 1137 819 1149 q 774 1086 807 1125 q 713 1047 742 1047 q 587 1074 685 1047 q 467 1100 489 1100 q 400 1056 429 1100 l 390 1042 l 325 1081 q 385 1180 347 1133 q 450 1226 422 1226 q 577 1200 478 1226 q 699 1174 676 1174 q 761 1214 736 1174 l 769 1226 l 838 1188 q 819 1149 831 1172 z "},"Ò":{"ha":1067,"x_min":38,"x_max":1029,"o":"m 533 1006 q 647 1006 533 1006 q 894 865 760 1006 q 1029 490 1029 725 q 894 114 1029 254 q 533 -26 760 -26 q 172 114 307 -26 q 38 490 38 254 q 172 865 38 725 q 533 1006 307 1006 m 533 871 q 471 871 533 871 q 348 777 408 871 q 288 490 288 683 q 348 202 288 296 q 533 108 408 108 q 719 202 658 108 q 779 490 779 296 q 719 777 779 683 q 533 871 658 871 m 693 1117 l 642 1028 l 539 1081 l 314 1144 l 364 1261 l 693 1117 z "},"Ó":{"ha":1067,"x_min":38,"x_max":1029,"o":"m 533 1006 q 647 1006 533 1006 q 894 865 760 1006 q 1029 490 1029 725 q 894 114 1029 254 q 533 -26 760 -26 q 172 114 307 -26 q 38 490 38 254 q 172 865 38 725 q 533 1006 307 1006 m 533 871 q 471 871 533 871 q 348 777 408 871 q 288 490 288 683 q 348 202 288 296 q 533 108 408 108 q 719 202 658 108 q 779 490 779 296 q 719 777 779 683 q 533 871 658 871 m 699 1261 l 749 1144 q 524 1081 550 1089 l 421 1028 l 369 1117 l 699 1261 z "},"Ô":{"ha":1067,"x_min":38,"x_max":1029,"o":"m 533 1006 q 647 1006 533 1006 q 894 865 760 1006 q 1029 490 1029 725 q 894 114 1029 254 q 533 -26 760 -26 q 172 114 307 -26 q 38 490 38 254 q 172 865 38 725 q 533 1006 307 1006 m 533 871 q 471 871 533 871 q 348 777 408 871 q 288 490 288 683 q 348 202 288 296 q 533 108 408 108 q 719 202 658 108 q 779 490 779 296 q 719 777 779 683 q 533 871 658 871 m 532 1303 l 807 1118 l 742 1038 l 649 1106 l 532 1163 l 415 1106 l 322 1038 l 257 1118 l 532 1303 z "},"Õ":{"ha":1067,"x_min":38,"x_max":1029,"o":"m 533 1006 q 647 1006 533 1006 q 894 865 760 1006 q 1029 490 1029 725 q 894 114 1029 254 q 533 -26 760 -26 q 172 114 307 -26 q 38 490 38 254 q 172 865 38 725 q 533 1006 307 1006 m 533 871 q 471 871 533 871 q 348 777 408 871 q 288 490 288 683 q 348 202 288 296 q 533 108 408 108 q 719 202 658 108 q 779 490 779 296 q 719 777 779 683 q 533 871 658 871 m 765 1149 q 759 1137 765 1149 q 720 1086 753 1125 q 659 1047 688 1047 q 532 1074 631 1047 q 411 1100 433 1100 q 346 1056 375 1100 l 336 1042 l 271 1081 q 331 1180 293 1133 q 396 1226 368 1226 q 523 1200 424 1226 q 644 1174 622 1174 q 707 1214 682 1174 l 715 1226 l 783 1188 q 765 1149 776 1172 z "},"Ö":{"ha":1067,"x_min":38,"x_max":1029,"o":"m 533 1006 q 647 1006 533 1006 q 894 865 760 1006 q 1029 490 1029 725 q 894 114 1029 254 q 533 -26 760 -26 q 172 114 307 -26 q 38 490 38 254 q 172 865 38 725 q 533 1006 307 1006 m 533 871 q 471 871 533 871 q 348 777 408 871 q 288 490 288 683 q 348 202 288 296 q 533 108 408 108 q 719 202 658 108 q 779 490 779 296 q 719 777 779 683 q 533 871 658 871 m 299 1218 q 311 1231 299 1218 q 368 1244 324 1244 q 437 1219 413 1244 q 461 1148 461 1193 q 437 1077 461 1103 q 368 1051 413 1051 q 299 1078 324 1051 q 274 1148 274 1104 q 299 1218 274 1192 m 628 1218 q 641 1231 628 1218 q 697 1244 653 1244 q 766 1219 742 1244 q 790 1148 790 1193 q 766 1077 790 1103 q 697 1051 742 1051 q 628 1077 653 1051 q 604 1147 604 1103 q 628 1218 604 1192 z "},"×":{"ha":772,"x_min":83,"x_max":689,"o":"m 385 433 l 586 639 l 686 540 l 483 338 l 689 136 l 590 36 l 386 239 l 181 33 l 85 128 l 289 336 l 83 542 l 178 638 l 385 433 z "},"Ø":{"ha":1067,"x_min":38,"x_max":1029,"o":"m 1029 489 q 894 114 1029 254 q 533 -26 760 -26 q 332 8 425 -26 l 228 -190 l 149 -150 l 253 49 q 94 227 150 114 q 38 489 38 340 q 172 865 38 725 q 533 1006 307 1006 q 736 969 644 1006 l 839 1164 l 921 1124 l 817 928 q 974 749 918 863 q 1029 489 1029 636 m 533 871 q 348 777 408 871 q 288 495 288 683 q 339 214 288 307 l 665 833 q 533 871 611 871 m 533 108 q 779 481 779 108 q 729 760 779 667 l 403 143 q 533 108 456 108 z "},"Ù":{"ha":1082,"x_min":36,"x_max":1047,"o":"m 943 753 l 943 372 q 839 85 943 190 q 540 -21 735 -21 q 242 85 346 -21 q 139 372 139 190 l 139 711 q 126 865 139 807 l 36 882 l 43 986 q 182 979 117 979 l 458 986 l 465 874 l 374 865 q 361 753 361 819 l 361 361 q 415 201 361 264 q 569 138 468 138 q 715 194 669 138 q 760 361 760 251 l 760 711 q 747 865 760 772 l 657 882 l 664 986 q 803 979 738 979 l 1040 986 l 1047 874 l 956 865 q 943 753 943 807 m 703 1117 l 651 1028 l 549 1081 l 324 1144 l 374 1261 l 703 1117 z "},"Ú":{"ha":1082,"x_min":36,"x_max":1047,"o":"m 943 753 l 943 372 q 839 85 943 190 q 540 -21 735 -21 q 242 85 346 -21 q 139 372 139 190 l 139 711 q 126 865 139 807 l 36 882 l 43 986 q 182 979 117 979 l 458 986 l 465 874 l 374 865 q 361 753 361 819 l 361 361 q 415 201 361 264 q 569 138 468 138 q 715 194 669 138 q 760 361 760 251 l 760 711 q 747 865 760 772 l 657 882 l 664 986 q 803 979 738 979 l 1040 986 l 1047 874 l 956 865 q 943 753 943 807 m 708 1247 l 758 1131 q 533 1067 560 1075 l 431 1014 l 379 1103 l 708 1247 z "},"Û":{"ha":1082,"x_min":36,"x_max":1047,"o":"m 943 753 l 943 372 q 839 85 943 190 q 540 -21 735 -21 q 242 85 346 -21 q 139 372 139 190 l 139 711 q 126 865 139 807 l 36 882 l 43 986 q 182 979 117 979 l 458 986 l 465 874 l 374 865 q 361 753 361 819 l 361 361 q 415 201 361 264 q 569 138 468 138 q 715 194 669 138 q 760 361 760 251 l 760 711 q 747 865 760 772 l 657 882 l 664 986 q 803 979 738 979 l 1040 986 l 1047 874 l 956 865 q 943 753 943 807 m 542 1303 l 817 1118 l 751 1038 l 658 1106 l 542 1163 l 425 1106 l 332 1038 l 267 1118 l 542 1303 z "},"Ü":{"ha":1082,"x_min":36,"x_max":1047,"o":"m 943 753 l 943 372 q 839 85 943 190 q 540 -21 735 -21 q 242 85 346 -21 q 139 372 139 190 l 139 711 q 126 865 139 807 l 36 882 l 43 986 q 182 979 117 979 l 458 986 l 465 874 l 374 865 q 361 753 361 819 l 361 361 q 415 201 361 264 q 569 138 468 138 q 715 194 669 138 q 760 361 760 251 l 760 711 q 747 865 760 772 l 657 882 l 664 986 q 803 979 738 979 l 1040 986 l 1047 874 l 956 865 q 943 753 943 807 m 308 1218 q 321 1231 308 1218 q 378 1244 333 1244 q 447 1219 422 1244 q 471 1148 471 1193 q 447 1077 471 1103 q 378 1051 422 1051 q 308 1078 333 1051 q 283 1148 283 1104 q 308 1218 283 1192 m 638 1218 q 650 1231 638 1218 q 707 1244 663 1244 q 776 1219 751 1244 q 800 1148 800 1193 q 776 1077 800 1103 q 707 1051 751 1051 q 638 1077 663 1051 q 614 1147 614 1103 q 638 1218 614 1192 z "},"Ý":{"ha":989,"x_min":-8,"x_max":986,"o":"m 376 107 l 389 226 l 389 346 l 142 801 q 88 865 125 832 l 75 876 l -8 889 l -1 986 q 126 979 75 979 l 415 986 l 422 885 l 349 872 q 372 800 358 826 l 518 513 l 671 819 l 676 872 l 615 889 l 622 986 q 775 979 710 979 l 979 986 l 986 885 l 903 875 q 817 756 840 800 l 604 347 l 604 268 q 617 107 604 194 l 707 99 l 700 -7 q 431 0 588 0 l 292 -7 l 285 90 l 376 107 m 661 1247 l 711 1131 q 486 1067 513 1075 l 383 1014 l 332 1103 l 661 1247 z "},"Þ":{"ha":833,"x_min":56,"x_max":828,"o":"m 147 107 l 160 226 l 160 711 q 147 865 160 765 l 57 882 l 64 986 q 203 979 138 979 l 472 986 l 479 874 l 388 865 q 376 786 381 831 q 500 792 471 792 q 738 713 649 792 q 828 498 828 635 q 728 282 828 361 q 481 203 628 203 l 378 203 l 388 107 l 478 99 l 471 -7 q 201 0 358 0 l 63 -7 l 56 90 l 147 107 m 375 317 l 399 317 q 549 363 494 317 q 604 500 604 410 q 560 634 604 590 q 419 678 515 678 q 375 676 394 678 l 375 317 z "},"ß":{"ha":839,"x_min":35,"x_max":807,"o":"m 176 0 q 40 -6 71 0 l 35 81 l 99 90 q 110 181 110 179 l 110 464 q 197 680 110 600 q 433 760 283 760 q 617 735 522 760 q 774 671 711 710 l 590 414 q 765 301 722 344 q 807 193 807 257 q 733 42 807 103 q 546 -18 658 -18 q 451 -8 497 -18 q 381 14 404 3 l 358 25 l 374 233 l 469 228 l 471 153 l 486 126 q 549 104 511 104 q 607 153 607 104 q 568 225 607 193 q 378 343 529 257 l 549 583 q 443 611 526 611 q 351 571 388 611 q 315 469 315 531 l 317 219 q 329 0 317 94 l 176 0 z "},"à":{"ha":726,"x_min":1,"x_max":725,"o":"m 725 75 l 719 -8 q 639 0 678 0 l 386 -6 l 381 86 l 436 89 l 443 111 l 432 158 l 247 158 l 238 114 l 233 89 l 289 75 l 283 -8 q 158 0 218 0 l 7 -6 l 1 86 l 40 88 l 85 171 l 292 744 l 442 757 l 653 122 l 668 83 l 725 75 m 349 492 l 281 264 l 400 264 l 349 492 m 533 865 l 468 785 l 375 853 l 181 943 l 246 1049 l 533 865 z "},"á":{"ha":726,"x_min":1,"x_max":725,"o":"m 725 75 l 719 -8 q 639 0 678 0 l 386 -6 l 381 86 l 436 89 l 443 111 l 432 158 l 247 158 l 238 114 l 233 89 l 289 75 l 283 -8 q 158 0 218 0 l 7 -6 l 1 86 l 40 88 l 85 171 l 292 744 l 442 757 l 653 122 l 668 83 l 725 75 m 349 492 l 281 264 l 400 264 l 349 492 m 514 1049 l 579 943 q 385 853 410 865 l 292 785 l 226 865 l 514 1049 z "},"â":{"ha":726,"x_min":1,"x_max":725,"o":"m 725 75 l 719 -8 q 639 0 678 0 l 386 -6 l 381 86 l 436 89 l 443 111 l 432 158 l 247 158 l 238 114 l 233 89 l 289 75 l 283 -8 q 158 0 218 0 l 7 -6 l 1 86 l 40 88 l 85 171 l 292 744 l 442 757 l 653 122 l 668 83 l 725 75 m 379 1063 l 654 864 l 589 783 l 496 857 q 379 918 440 885 l 263 857 l 169 783 l 104 864 l 379 1063 m 349 492 l 281 264 l 400 264 l 349 492 z "},"ã":{"ha":726,"x_min":1,"x_max":725,"o":"m 725 75 l 719 -8 q 639 0 678 0 l 386 -6 l 381 86 l 436 89 l 443 111 l 432 158 l 247 158 l 238 114 l 233 89 l 289 75 l 283 -8 q 158 0 218 0 l 7 -6 l 1 86 l 40 88 l 85 171 l 292 744 l 442 757 l 653 122 l 668 83 l 725 75 m 349 492 l 281 264 l 400 264 l 349 492 m 583 926 q 577 915 583 926 q 538 864 571 903 q 478 825 506 825 q 365 851 450 825 q 257 878 279 878 q 192 833 221 878 l 182 819 l 117 858 q 176 958 139 911 q 242 1004 214 1004 q 355 978 269 1004 q 463 951 440 951 q 525 992 500 951 l 533 1004 l 601 965 q 583 926 594 950 z "},"ä":{"ha":726,"x_min":1,"x_max":725,"o":"m 725 75 l 719 -8 q 639 0 678 0 l 386 -6 l 381 86 l 436 89 l 443 111 l 432 158 l 247 158 l 238 114 l 233 89 l 289 75 l 283 -8 q 158 0 218 0 l 7 -6 l 1 86 l 40 88 l 85 171 l 292 744 l 442 757 l 653 122 l 668 83 l 725 75 m 349 492 l 281 264 l 400 264 l 349 492 m 146 981 q 158 994 146 981 q 215 1007 171 1007 q 284 981 260 1007 q 308 910 308 956 q 284 840 308 865 q 215 814 260 814 q 146 840 171 814 q 121 910 121 867 q 146 981 121 954 m 476 981 q 488 994 476 981 q 544 1007 500 1007 q 613 981 589 1007 q 638 910 638 956 q 613 840 638 865 q 544 814 589 814 q 476 840 500 814 q 451 910 451 865 q 476 981 451 954 z "},"å":{"ha":726,"x_min":1,"x_max":725,"o":"m 725 75 l 719 -8 q 639 0 678 0 l 386 -6 l 381 86 l 436 89 l 443 111 l 432 158 l 247 158 l 238 114 l 233 89 l 289 75 l 283 -8 q 158 0 218 0 l 7 -6 l 1 86 l 40 88 l 85 171 l 292 744 l 442 757 l 653 122 l 668 83 l 725 75 m 349 492 l 281 264 l 400 264 l 349 492 m 264 1022 q 282 1039 264 1022 q 367 1057 300 1057 q 469 1022 433 1057 q 504 924 504 986 q 469 827 504 863 q 367 792 433 792 q 264 827 300 792 q 228 924 228 863 q 264 1022 228 986 m 411 924 q 411 950 411 924 q 367 976 411 976 q 324 924 324 976 q 367 872 324 872 q 411 924 411 872 z "},"æ":{"ha":989,"x_min":13,"x_max":1000,"o":"m 635 635 l 639 572 l 661 431 l 661 429 l 767 429 q 804 439 788 429 l 814 506 l 889 500 q 888 415 888 436 l 892 271 l 814 265 l 804 324 q 744 331 767 331 l 669 331 l 671 329 l 678 329 l 694 215 l 714 110 l 810 110 q 886 117 854 110 q 917 221 914 183 l 1000 215 l 983 15 l 964 -4 q 842 0 863 0 l 522 0 l 457 -6 l 451 81 l 514 90 l 514 140 l 511 157 l 271 157 l 253 129 q 233 90 251 129 l 300 85 l 294 -6 q 129 0 219 0 l 18 -6 l 13 81 l 63 86 q 126 175 107 146 l 429 646 l 363 658 l 368 750 q 467 744 401 744 l 838 744 l 960 754 l 981 736 l 988 551 l 903 546 q 899 577 901 551 q 895 608 897 603 q 890 629 893 614 q 806 635 851 635 l 635 635 m 322 261 l 494 263 l 472 507 l 322 261 z "},"ç":{"ha":707,"x_min":26,"x_max":664,"o":"m 438 -82 q 539 -115 500 -83 q 578 -206 578 -147 q 534 -296 578 -265 q 415 -326 490 -326 q 286 -301 339 -326 l 311 -233 q 388 -249 360 -249 q 453 -203 453 -249 q 394 -160 453 -160 l 365 -161 l 350 -142 l 363 -12 q 113 106 199 3 q 26 379 26 208 q 128 655 26 550 q 419 760 229 760 q 654 724 515 760 l 640 517 l 549 521 l 543 594 q 531 632 543 610 q 419 642 468 642 q 261 372 261 642 q 418 103 261 103 q 543 114 478 103 q 563 163 563 153 l 565 211 l 654 214 l 664 19 q 451 -14 543 -11 l 438 -82 z "},"è":{"ha":686,"x_min":56,"x_max":644,"o":"m 329 219 l 331 110 l 454 110 q 531 117 496 110 q 550 167 533 122 q 561 221 557 190 l 644 215 l 628 15 l 608 -4 q 486 0 507 0 l 160 0 l 61 -6 l 56 81 l 118 90 q 128 188 128 113 l 128 508 q 118 646 128 614 l 56 658 l 61 750 q 160 744 113 744 l 471 744 l 592 754 l 613 736 l 619 560 l 535 554 q 522 639 531 606 q 439 643 490 643 l 332 643 l 329 575 l 329 422 l 399 422 q 436 432 414 422 l 446 499 l 521 493 l 521 406 l 524 261 l 446 256 l 436 314 q 378 321 399 321 l 329 321 l 329 219 m 490 865 l 425 785 l 332 853 l 138 943 l 203 1049 l 490 865 z "},"é":{"ha":686,"x_min":56,"x_max":644,"o":"m 329 219 l 331 110 l 454 110 q 531 117 496 110 q 550 167 533 122 q 561 221 557 190 l 644 215 l 628 15 l 608 -4 q 486 0 507 0 l 160 0 l 61 -6 l 56 81 l 118 90 q 128 188 128 113 l 128 508 q 118 646 128 614 l 56 658 l 61 750 q 160 744 113 744 l 471 744 l 592 754 l 613 736 l 619 560 l 535 554 q 522 639 531 606 q 439 643 490 643 l 332 643 l 329 575 l 329 422 l 399 422 q 436 432 414 422 l 446 499 l 521 493 l 521 406 l 524 261 l 446 256 l 436 314 q 378 321 399 321 l 329 321 l 329 219 m 472 1049 l 538 943 q 343 853 368 865 l 250 785 l 185 865 l 472 1049 z "},"ê":{"ha":686,"x_min":56,"x_max":644,"o":"m 329 219 l 331 110 l 454 110 q 531 117 496 110 q 550 167 533 122 q 561 221 557 190 l 644 215 l 628 15 l 608 -4 q 486 0 507 0 l 160 0 l 61 -6 l 56 81 l 118 90 q 128 188 128 113 l 128 508 q 118 646 128 614 l 56 658 l 61 750 q 160 744 113 744 l 471 744 l 592 754 l 613 736 l 619 560 l 535 554 q 522 639 531 606 q 439 643 490 643 l 332 643 l 329 575 l 329 422 l 399 422 q 436 432 414 422 l 446 499 l 521 493 l 521 406 l 524 261 l 446 256 l 436 314 q 378 321 399 321 l 329 321 l 329 219 m 338 1063 l 613 864 l 547 783 l 454 857 q 338 918 399 885 l 221 857 l 128 783 l 63 864 l 338 1063 z "},"ë":{"ha":686,"x_min":56,"x_max":644,"o":"m 329 219 l 331 110 l 454 110 q 531 117 496 110 q 550 167 533 122 q 561 221 557 190 l 644 215 l 628 15 l 608 -4 q 486 0 507 0 l 160 0 l 61 -6 l 56 81 l 118 90 q 128 188 128 113 l 128 508 q 118 646 128 614 l 56 658 l 61 750 q 160 744 113 744 l 471 744 l 592 754 l 613 736 l 619 560 l 535 554 q 522 639 531 606 q 439 643 490 643 l 332 643 l 329 575 l 329 422 l 399 422 q 436 432 414 422 l 446 499 l 521 493 l 521 406 l 524 261 l 446 256 l 436 314 q 378 321 399 321 l 329 321 l 329 219 m 104 981 q 117 994 104 981 q 174 1007 129 1007 q 242 981 218 1007 q 267 910 267 956 q 242 840 267 865 q 174 814 218 814 q 104 840 129 814 q 79 910 79 867 q 104 981 79 954 m 434 981 q 446 994 434 981 q 503 1007 458 1007 q 572 981 547 1007 q 596 910 596 956 q 572 840 596 865 q 503 814 547 814 q 434 840 458 814 q 410 910 410 865 q 434 981 410 954 z "},"ì":{"ha":468,"x_min":21,"x_max":396,"o":"m 110 90 l 119 188 l 119 508 q 115 604 119 565 q 110 646 110 643 l 47 658 l 53 750 q 150 744 85 744 l 389 750 l 396 651 l 332 646 q 321 575 321 601 l 321 219 q 332 90 321 151 l 388 85 l 383 -6 q 149 0 288 0 l 51 -6 l 46 81 l 110 90 m 374 865 l 308 785 l 215 853 l 21 943 l 86 1049 l 374 865 z "},"í":{"ha":468,"x_min":60,"x_max":435,"o":"m 124 90 l 133 188 l 133 508 q 128 604 133 565 q 124 646 124 643 l 61 658 l 67 750 q 164 744 99 744 l 403 750 l 410 651 l 346 646 q 335 575 335 601 l 335 219 q 346 90 335 151 l 401 85 l 397 -6 q 163 0 301 0 l 65 -6 l 60 81 l 124 90 m 369 1049 l 435 943 q 240 853 265 865 l 147 785 l 82 865 l 369 1049 z "},"î":{"ha":468,"x_min":-42,"x_max":508,"o":"m 124 90 l 133 188 l 133 508 q 128 604 133 565 q 124 646 124 643 l 61 658 l 67 750 q 164 744 99 744 l 403 750 l 410 651 l 346 646 q 335 575 335 601 l 335 219 q 346 90 335 151 l 401 85 l 397 -6 q 163 0 301 0 l 65 -6 l 60 81 l 124 90 m 233 1063 l 508 864 l 443 783 l 350 857 q 233 918 294 885 l 117 857 l 24 783 l -42 864 l 233 1063 z "},"ï":{"ha":468,"x_min":21,"x_max":443,"o":"m 124 90 l 133 188 l 133 508 q 128 604 133 565 q 124 646 124 643 l 61 658 l 67 750 q 164 744 99 744 l 403 750 l 410 651 l 346 646 q 335 575 335 601 l 335 219 q 346 90 335 151 l 401 85 l 397 -6 q 163 0 301 0 l 65 -6 l 60 81 l 124 90 m 44 981 q 56 994 44 981 q 111 1007 68 1007 q 178 981 154 1007 q 201 910 201 956 q 178 840 201 865 q 111 814 154 814 q 44 840 68 814 q 21 910 21 867 q 44 981 21 954 m 287 981 q 298 994 287 981 q 353 1007 310 1007 q 419 981 396 1007 q 443 910 443 956 q 419 840 443 865 q 353 814 396 814 q 287 840 310 814 q 264 910 264 865 q 287 981 264 954 z "},"ð":{"ha":797,"x_min":40,"x_max":771,"o":"m 390 -7 l 143 0 l 46 -6 l 40 81 l 104 90 q 114 188 114 178 l 114 331 l 50 331 l 50 425 l 114 425 l 114 508 q 104 646 114 597 l 42 658 l 47 750 l 154 744 q 167 744 158 744 l 390 754 q 673 649 575 754 q 771 372 771 544 q 674 96 771 199 q 390 -7 576 -7 m 326 97 l 364 96 q 512 169 469 96 q 554 375 554 243 q 367 654 554 654 q 318 643 365 654 q 315 575 315 610 l 315 425 l 394 425 l 389 331 l 315 331 l 315 219 q 318 97 315 133 l 326 97 z "},"ñ":{"ha":892,"x_min":56,"x_max":863,"o":"m 792 581 l 792 143 l 793 4 l 607 4 l 297 414 l 297 219 q 303 133 297 175 q 308 90 308 92 l 369 85 l 365 -6 q 163 0 303 0 l 61 -6 l 56 81 l 118 90 q 128 188 128 129 l 128 508 q 118 646 128 613 l 57 658 l 63 750 q 161 744 96 744 l 303 743 l 322 724 q 411 571 396 594 l 624 282 l 624 514 q 614 647 624 540 l 551 664 l 557 751 l 674 744 l 857 750 l 863 647 l 799 647 q 792 581 792 606 m 680 926 q 674 915 680 926 q 635 864 668 903 q 575 825 603 825 q 463 851 547 825 q 356 878 378 878 q 289 833 318 878 l 279 819 l 214 858 q 274 958 236 911 q 339 1004 311 1004 q 452 978 367 1004 q 560 951 538 951 q 622 992 597 951 l 631 1004 l 699 965 q 680 926 692 950 z "},"ò":{"ha":849,"x_min":26,"x_max":822,"o":"m 711 660 q 767 606 711 660 q 822 372 822 553 q 711 85 822 192 q 424 -22 600 -22 q 137 85 247 -22 q 26 372 26 192 q 137 660 26 553 q 424 767 247 767 q 711 660 600 767 m 299 580 q 279 550 299 580 q 260 372 260 521 q 299 165 260 224 q 424 106 338 106 q 550 165 511 106 q 589 372 589 224 q 550 580 589 521 q 424 639 511 639 q 299 580 338 639 m 575 865 l 510 785 l 417 853 l 222 943 l 288 1049 l 575 865 z "},"ó":{"ha":849,"x_min":26,"x_max":822,"o":"m 711 660 q 767 606 711 660 q 822 372 822 553 q 711 85 822 192 q 424 -22 600 -22 q 137 85 247 -22 q 26 372 26 192 q 137 660 26 553 q 424 767 247 767 q 711 660 600 767 m 299 580 q 279 550 299 580 q 260 372 260 521 q 299 165 260 224 q 424 106 338 106 q 550 165 511 106 q 589 372 589 224 q 550 580 589 521 q 424 639 511 639 q 299 580 338 639 m 557 1049 l 622 943 q 428 853 453 865 l 335 785 l 269 865 l 557 1049 z "},"ô":{"ha":849,"x_min":26,"x_max":822,"o":"m 711 660 q 767 606 711 660 q 822 372 822 553 q 711 85 822 192 q 424 -22 600 -22 q 137 85 247 -22 q 26 372 26 192 q 137 660 26 553 q 424 767 247 767 q 711 660 600 767 m 299 580 q 279 550 299 580 q 260 372 260 521 q 299 165 260 224 q 424 106 338 106 q 550 165 511 106 q 589 372 589 224 q 550 580 589 521 q 424 639 511 639 q 299 580 338 639 m 422 1063 l 697 864 l 632 783 l 539 857 q 422 918 483 885 l 306 857 l 213 783 l 147 864 l 422 1063 z "},"õ":{"ha":849,"x_min":26,"x_max":822,"o":"m 711 660 q 767 606 711 660 q 822 372 822 553 q 711 85 822 192 q 424 -22 600 -22 q 137 85 247 -22 q 26 372 26 192 q 137 660 26 553 q 424 767 247 767 q 711 660 600 767 m 299 580 q 279 550 299 580 q 260 372 260 521 q 299 165 260 224 q 424 106 338 106 q 550 165 511 106 q 589 372 589 224 q 550 580 589 521 q 424 639 511 639 q 299 580 338 639 m 649 926 q 643 915 649 926 q 605 864 638 903 q 544 825 572 825 q 432 851 517 825 q 325 878 347 878 q 258 833 288 878 l 249 819 l 183 858 q 243 958 206 911 q 308 1004 281 1004 q 422 978 336 1004 q 529 951 507 951 q 592 992 567 951 l 600 1004 l 668 965 q 649 926 661 950 z "},"ö":{"ha":849,"x_min":26,"x_max":822,"o":"m 711 660 q 767 606 711 660 q 822 372 822 553 q 711 85 822 192 q 424 -22 600 -22 q 137 85 247 -22 q 26 372 26 192 q 137 660 26 553 q 424 767 247 767 q 711 660 600 767 m 299 580 q 279 550 299 580 q 260 372 260 521 q 299 165 260 224 q 424 106 338 106 q 550 165 511 106 q 589 372 589 224 q 550 580 589 521 q 424 639 511 639 q 299 580 338 639 m 189 981 q 201 994 189 981 q 258 1007 214 1007 q 327 981 303 1007 q 351 910 351 956 q 327 840 351 865 q 258 814 303 814 q 189 840 214 814 q 164 910 164 867 q 189 981 164 954 m 519 981 q 531 994 519 981 q 588 1007 543 1007 q 656 981 632 1007 q 681 910 681 956 q 656 840 681 865 q 588 814 632 814 q 519 840 543 814 q 494 910 494 865 q 519 981 494 954 z "},"÷":{"ha":821,"x_min":94,"x_max":726,"o":"m 94 428 l 726 428 l 726 289 l 94 282 l 94 428 m 334 686 q 348 701 334 686 q 410 717 361 717 q 485 687 458 717 q 513 606 513 657 q 485 526 513 556 q 410 496 458 496 q 334 526 361 496 q 307 606 307 556 q 334 686 307 656 m 334 182 q 348 197 334 182 q 410 213 361 213 q 485 183 458 213 q 513 102 513 153 q 485 22 513 51 q 410 -8 458 -8 q 334 22 361 -8 q 307 101 307 51 q 334 182 307 151 z "},"ø":{"ha":838,"x_min":29,"x_max":825,"o":"m 825 372 q 715 85 825 192 q 428 -22 604 -22 q 276 1 347 -22 l 197 -146 l 128 -111 l 206 35 q 29 372 29 140 q 140 660 29 553 q 428 767 251 767 q 581 742 510 767 l 657 885 l 729 850 l 653 707 q 779 571 733 657 q 825 372 825 485 m 428 639 q 301 580 340 639 q 263 387 263 521 q 288 190 263 253 l 515 618 q 428 639 481 639 m 428 106 q 553 165 514 106 q 592 354 592 224 q 568 549 592 485 l 342 124 q 428 106 372 106 z "},"ù":{"ha":874,"x_min":39,"x_max":838,"o":"m 764 578 l 764 285 q 678 65 764 146 q 435 -15 593 -15 q 194 65 278 -15 q 110 285 110 146 l 110 511 q 100 646 110 610 l 39 658 l 43 750 q 142 744 76 744 l 385 750 l 392 651 l 328 646 q 317 578 317 619 l 317 271 q 355 173 317 213 q 463 133 393 133 q 561 166 533 133 q 589 271 589 199 l 589 511 q 579 646 589 588 l 518 658 l 522 750 q 626 744 561 744 l 832 750 l 838 651 l 774 646 q 764 578 764 593 m 589 865 l 524 785 l 431 853 l 236 943 l 301 1049 l 589 865 z "},"ú":{"ha":874,"x_min":39,"x_max":838,"o":"m 764 578 l 764 285 q 678 65 764 146 q 435 -15 593 -15 q 194 65 278 -15 q 110 285 110 146 l 110 511 q 100 646 110 610 l 39 658 l 43 750 q 142 744 76 744 l 385 750 l 392 651 l 328 646 q 317 578 317 619 l 317 271 q 355 173 317 213 q 463 133 393 133 q 561 166 533 133 q 589 271 589 199 l 589 511 q 579 646 589 588 l 518 658 l 522 750 q 626 744 561 744 l 832 750 l 838 651 l 774 646 q 764 578 764 593 m 571 1049 l 636 943 q 442 853 467 865 l 349 785 l 283 865 l 571 1049 z "},"û":{"ha":874,"x_min":39,"x_max":838,"o":"m 764 578 l 764 285 q 678 65 764 146 q 435 -15 593 -15 q 194 65 278 -15 q 110 285 110 146 l 110 511 q 100 646 110 610 l 39 658 l 43 750 q 142 744 76 744 l 385 750 l 392 651 l 328 646 q 317 578 317 619 l 317 271 q 355 173 317 213 q 463 133 393 133 q 561 166 533 133 q 589 271 589 199 l 589 511 q 579 646 589 588 l 518 658 l 522 750 q 626 744 561 744 l 832 750 l 838 651 l 774 646 q 764 578 764 593 m 436 1063 l 711 864 l 646 783 l 553 857 q 436 918 497 885 l 319 857 l 226 783 l 161 864 l 436 1063 z "},"ü":{"ha":874,"x_min":39,"x_max":838,"o":"m 764 578 l 764 285 q 678 65 764 146 q 435 -15 593 -15 q 194 65 278 -15 q 110 285 110 146 l 110 511 q 100 646 110 610 l 39 658 l 43 750 q 142 744 76 744 l 385 750 l 392 651 l 328 646 q 317 578 317 619 l 317 271 q 355 173 317 213 q 463 133 393 133 q 561 166 533 133 q 589 271 589 199 l 589 511 q 579 646 589 588 l 518 658 l 522 750 q 626 744 561 744 l 832 750 l 838 651 l 774 646 q 764 578 764 593 m 203 981 q 215 994 203 981 q 272 1007 228 1007 q 341 981 317 1007 q 365 910 365 956 q 341 840 365 865 q 272 814 317 814 q 203 840 228 814 q 178 910 178 867 q 203 981 178 954 m 533 981 q 545 994 533 981 q 601 1007 557 1007 q 670 981 646 1007 q 694 910 694 956 q 670 840 694 865 q 601 814 646 814 q 533 840 557 814 q 508 910 508 865 q 533 981 508 954 z "},"ý":{"ha":800,"x_min":-7,"x_max":801,"o":"m 504 219 q 515 90 504 213 l 571 85 l 567 -6 q 332 0 472 0 l 236 -6 l 231 81 l 293 90 q 303 188 303 158 l 303 257 l 100 621 q 53 660 89 635 l -7 669 l -3 753 q 86 744 46 744 l 343 750 l 349 658 l 307 656 l 311 633 l 425 404 l 540 629 l 531 656 l 501 669 l 507 753 q 636 744 576 744 l 796 750 l 801 658 l 742 657 q 675 574 689 596 l 504 249 l 504 219 m 535 1049 l 600 943 q 406 853 431 865 l 313 785 l 247 865 l 535 1049 z "},"þ":{"ha":661,"x_min":47,"x_max":665,"o":"m 111 90 l 121 188 l 121 508 q 116 604 121 565 q 111 646 111 643 l 47 658 l 53 750 q 151 744 86 744 l 390 750 l 396 651 l 332 646 l 322 597 q 406 600 392 600 q 593 539 521 600 q 665 375 665 478 q 588 213 665 272 q 396 153 511 153 q 362 152 386 153 q 325 151 338 151 l 332 90 l 388 85 l 383 -6 q 150 0 289 0 l 53 -6 l 47 81 l 111 90 m 322 497 l 322 257 q 421 291 385 260 q 457 381 457 322 q 431 467 457 440 q 335 494 404 494 q 322 497 329 497 z "},"ÿ":{"ha":800,"x_min":-7,"x_max":801,"o":"m 504 219 q 515 90 504 213 l 571 85 l 567 -6 q 332 0 472 0 l 236 -6 l 231 81 l 293 90 q 303 188 303 158 l 303 257 l 100 621 q 53 660 89 635 l -7 669 l -3 753 q 86 744 46 744 l 343 750 l 349 658 l 307 656 l 311 633 l 425 404 l 540 629 l 531 656 l 501 669 l 507 753 q 636 744 576 744 l 796 750 l 801 658 l 742 657 q 675 574 689 596 l 504 249 l 504 219 m 179 981 q 192 994 179 981 q 249 1007 204 1007 q 317 981 293 1007 q 342 910 342 956 q 317 840 342 865 q 249 814 293 814 q 179 840 204 814 q 154 910 154 867 q 179 981 154 954 m 509 981 q 521 994 509 981 q 578 1007 533 1007 q 647 981 622 1007 q 671 910 671 956 q 647 840 671 865 q 578 814 622 814 q 509 840 533 814 q 485 910 485 865 q 509 981 485 954 z "},"Ā":{"ha":926,"x_min":1,"x_max":928,"o":"m 928 90 l 921 -7 q 804 0 853 0 l 521 -7 l 514 94 l 596 107 l 589 179 l 569 249 l 307 249 l 283 160 l 275 107 l 356 90 l 349 -7 q 201 0 267 0 l 8 -7 l 1 94 l 64 104 l 122 224 l 385 979 l 540 994 l 818 178 l 850 103 l 928 90 m 444 692 l 344 363 l 533 365 l 444 692 m 240 1071 l 240 1172 l 688 1172 l 678 1071 l 240 1071 z "},"ā":{"ha":726,"x_min":1,"x_max":725,"o":"m 725 75 l 719 -8 q 639 0 678 0 l 386 -6 l 381 86 l 436 89 l 443 111 l 432 158 l 247 158 l 238 114 l 233 89 l 289 75 l 283 -8 q 158 0 218 0 l 7 -6 l 1 86 l 40 88 l 85 171 l 292 744 l 442 757 l 653 122 l 668 83 l 725 75 m 349 492 l 281 264 l 400 264 l 349 492 m 157 828 l 157 929 l 604 929 l 594 828 l 157 828 z "},"Ă":{"ha":926,"x_min":1,"x_max":928,"o":"m 928 90 l 921 -7 q 804 0 853 0 l 521 -7 l 514 94 l 596 107 l 589 179 l 569 249 l 307 249 l 283 160 l 275 107 l 356 90 l 349 -7 q 201 0 267 0 l 8 -7 l 1 94 l 64 104 l 122 224 l 385 979 l 540 994 l 818 178 l 850 103 l 928 90 m 444 692 l 344 363 l 533 365 l 444 692 m 586 1247 l 678 1247 q 620 1088 678 1144 q 464 1032 563 1032 q 308 1088 365 1032 q 250 1247 250 1144 l 342 1247 q 376 1167 342 1196 q 464 1138 410 1138 q 552 1167 518 1138 q 586 1247 586 1196 z "},"ă":{"ha":726,"x_min":1,"x_max":725,"o":"m 725 75 l 719 -8 q 639 0 678 0 l 386 -6 l 381 86 l 436 89 l 443 111 l 432 158 l 247 158 l 238 114 l 233 89 l 289 75 l 283 -8 q 158 0 218 0 l 7 -6 l 1 86 l 40 88 l 85 171 l 292 744 l 442 757 l 653 122 l 668 83 l 725 75 m 349 492 l 281 264 l 400 264 l 349 492 m 501 1013 l 593 1013 q 535 853 593 910 q 379 797 478 797 q 223 853 281 797 q 165 1013 165 910 l 257 1013 q 291 932 257 961 q 379 903 325 903 q 467 932 433 903 q 501 1013 501 961 z "},"Ą":{"ha":926,"x_min":1,"x_max":928,"o":"m 804 0 l 685 0 q 608 -43 636 -8 q 581 -112 581 -78 q 643 -185 581 -185 q 690 -175 665 -185 l 715 -242 q 583 -274 651 -274 q 473 -242 514 -274 q 432 -150 432 -211 q 489 -36 432 -85 q 536 4 513 -17 q 593 126 593 54 q 589 179 593 154 l 569 249 l 307 249 l 283 160 l 275 107 l 356 90 l 349 -7 q 201 0 267 0 l 8 -7 l 1 94 l 64 104 l 122 224 l 385 979 l 540 994 l 818 178 l 850 103 l 928 90 l 921 -7 q 804 0 853 0 m 444 692 l 344 363 l 533 365 l 444 692 z "},"ą":{"ha":726,"x_min":1,"x_max":725,"o":"m 639 0 l 535 0 q 458 -43 486 -8 q 431 -112 431 -78 q 493 -185 431 -185 q 540 -175 515 -185 l 565 -242 q 433 -274 501 -274 q 323 -242 364 -274 q 282 -150 282 -211 q 336 -39 282 -86 q 381 0 358 -19 q 442 113 436 50 l 432 158 l 247 158 l 238 114 l 233 89 l 289 75 l 283 -8 q 158 0 218 0 l 7 -6 l 1 86 l 40 88 l 85 171 l 292 744 l 442 757 l 653 122 l 668 83 l 725 75 l 719 -8 q 639 0 678 0 m 349 492 l 281 264 l 400 264 l 349 492 z "},"Ć":{"ha":885,"x_min":38,"x_max":836,"o":"m 524 -21 q 163 117 288 -21 q 38 489 38 256 q 163 861 38 722 q 524 1000 288 1000 q 824 953 632 1000 l 807 704 l 700 710 l 696 794 q 679 851 696 808 q 524 871 590 871 q 345 767 403 871 q 288 490 288 663 q 344 213 288 318 q 522 108 401 108 q 694 129 600 108 q 701 148 696 132 q 712 178 707 164 q 717 197 717 192 l 721 263 l 825 265 l 836 26 q 524 -21 644 -21 m 664 1247 l 714 1131 q 489 1067 515 1075 l 386 1014 l 335 1103 l 664 1247 z "},"ć":{"ha":707,"x_min":26,"x_max":664,"o":"m 419 -15 q 127 90 228 -15 q 26 372 26 194 q 128 655 26 550 q 419 760 229 760 q 654 724 515 760 l 640 517 l 549 521 l 543 594 q 531 632 543 610 q 419 642 468 642 q 261 372 261 642 q 418 103 261 103 q 543 114 478 103 q 563 163 563 153 l 565 211 l 654 214 l 664 19 q 419 -15 519 -15 m 557 1049 l 622 943 q 428 853 453 865 l 335 785 l 269 865 l 557 1049 z "},"Ĉ":{"ha":885,"x_min":38,"x_max":836,"o":"m 524 -21 q 163 117 288 -21 q 38 489 38 256 q 163 861 38 722 q 524 1000 288 1000 q 824 953 632 1000 l 807 704 l 700 710 l 696 794 q 679 851 696 808 q 524 871 590 871 q 345 767 403 871 q 288 490 288 663 q 344 213 288 318 q 522 108 401 108 q 694 129 600 108 q 701 148 696 132 q 712 178 707 164 q 717 197 717 192 l 721 263 l 825 265 l 836 26 q 524 -21 644 -21 m 525 1317 l 800 1132 l 735 1051 l 642 1119 l 525 1176 l 408 1119 l 315 1051 l 250 1132 l 525 1317 z "},"ĉ":{"ha":707,"x_min":26,"x_max":696,"o":"m 419 -15 q 127 90 228 -15 q 26 372 26 194 q 128 655 26 550 q 419 760 229 760 q 654 724 515 760 l 640 517 l 549 521 l 543 594 q 531 632 543 610 q 419 642 468 642 q 261 372 261 642 q 418 103 261 103 q 543 114 478 103 q 563 163 563 153 l 565 211 l 654 214 l 664 19 q 419 -15 519 -15 m 421 1063 l 696 864 l 631 783 l 538 857 q 421 918 482 885 l 304 857 l 211 783 l 146 864 l 421 1063 z "},"Ċ":{"ha":885,"x_min":38,"x_max":836,"o":"m 524 -21 q 163 117 288 -21 q 38 489 38 256 q 163 861 38 722 q 524 1000 288 1000 q 824 953 632 1000 l 807 704 l 700 710 l 696 794 q 679 851 696 808 q 524 871 590 871 q 345 767 403 871 q 288 490 288 663 q 344 213 288 318 q 522 108 401 108 q 694 129 600 108 q 701 148 696 132 q 712 178 707 164 q 717 197 717 192 l 721 263 l 825 265 l 836 26 q 524 -21 644 -21 m 444 1226 q 459 1242 444 1226 q 525 1257 474 1257 q 606 1227 576 1257 q 635 1147 635 1197 q 606 1066 635 1096 q 525 1036 578 1036 q 444 1066 472 1036 q 415 1146 415 1096 q 444 1226 415 1196 z "},"ċ":{"ha":707,"x_min":26,"x_max":664,"o":"m 419 -15 q 127 90 228 -15 q 26 372 26 194 q 128 655 26 550 q 419 760 229 760 q 654 724 515 760 l 640 517 l 549 521 l 543 594 q 531 632 543 610 q 419 642 468 642 q 261 372 261 642 q 418 103 261 103 q 543 114 478 103 q 563 163 563 153 l 565 211 l 654 214 l 664 19 q 419 -15 519 -15 m 342 990 q 356 1006 342 990 q 422 1021 371 1021 q 503 991 474 1021 q 532 910 532 961 q 503 830 532 860 q 422 800 475 800 q 341 830 369 800 q 313 910 313 860 q 342 990 313 960 z "},"Č":{"ha":885,"x_min":38,"x_max":836,"o":"m 524 -21 q 163 117 288 -21 q 38 489 38 256 q 163 861 38 722 q 524 1000 288 1000 q 824 953 632 1000 l 807 704 l 700 710 l 696 794 q 679 851 696 808 q 524 871 590 871 q 345 767 403 871 q 288 490 288 663 q 344 213 288 318 q 522 108 401 108 q 694 129 600 108 q 701 148 696 132 q 712 178 707 164 q 717 197 717 192 l 721 263 l 825 265 l 836 26 q 524 -21 644 -21 m 735 1304 l 800 1224 l 525 1039 l 250 1224 l 315 1304 l 408 1236 l 525 1179 l 642 1236 l 735 1304 z "},"č":{"ha":707,"x_min":26,"x_max":697,"o":"m 419 -15 q 127 90 228 -15 q 26 372 26 194 q 128 655 26 550 q 419 760 229 760 q 654 724 515 760 l 640 517 l 549 521 l 543 594 q 531 632 543 610 q 419 642 468 642 q 261 372 261 642 q 418 103 261 103 q 543 114 478 103 q 563 163 563 153 l 565 211 l 654 214 l 664 19 q 419 -15 519 -15 m 219 1063 l 313 989 q 335 975 318 986 q 422 924 360 960 q 532 989 506 976 l 625 1063 l 697 982 l 422 783 l 147 982 l 219 1063 z "},"Ď":{"ha":1026,"x_min":63,"x_max":989,"o":"m 210 979 l 500 993 q 863 856 736 993 q 989 491 989 719 q 863 127 989 263 q 500 -8 736 -8 q 208 0 500 -8 l 69 -7 l 63 90 l 154 107 q 167 226 167 199 l 167 711 q 158 842 167 783 l 154 865 l 64 882 l 71 986 q 210 979 144 979 m 481 878 q 388 867 451 878 q 382 753 382 772 l 382 268 q 388 111 382 178 q 478 107 433 107 q 691 211 625 107 q 757 492 757 315 q 696 764 757 660 q 481 878 629 878 m 696 1304 l 761 1224 l 486 1039 l 211 1224 l 276 1304 l 369 1236 l 486 1179 l 603 1236 l 696 1304 z "},"ď":{"ha":811,"x_min":56,"x_max":785,"o":"m 182 744 l 406 754 q 687 649 589 754 q 785 372 785 544 q 688 96 785 199 q 406 -7 592 -7 q 157 0 406 -7 l 61 -6 l 56 81 l 118 90 q 124 133 119 94 q 128 188 128 172 l 128 508 q 118 646 128 606 l 56 658 l 61 750 l 169 744 q 182 744 174 744 m 329 219 l 332 97 l 350 97 q 378 96 367 96 q 526 169 483 96 q 569 375 569 243 q 382 654 569 654 q 332 643 379 654 l 329 575 l 329 219 m 188 1063 l 281 989 q 303 975 286 986 q 390 924 328 960 q 500 989 474 976 l 593 1063 l 665 982 l 390 783 l 115 982 l 188 1063 z "},"Đ":{"ha":950,"x_min":50,"x_max":976,"o":"m 488 -8 l 196 0 l 57 -7 l 50 90 l 142 107 q 154 226 154 199 l 154 447 l 58 447 l 58 549 l 154 549 l 154 711 q 144 842 154 763 l 142 865 l 51 882 l 58 986 q 197 979 132 979 l 488 993 q 850 856 724 993 q 976 491 976 719 q 850 127 976 263 q 488 -8 724 -8 m 369 447 l 369 268 q 375 111 369 178 q 465 107 421 107 q 678 211 613 107 q 744 492 744 315 q 683 764 744 660 q 468 878 617 878 q 375 867 439 878 q 369 753 369 772 l 369 549 l 506 549 l 499 447 l 369 447 z "},"đ":{"ha":722,"x_min":40,"x_max":771,"o":"m 390 -7 l 143 0 l 46 -6 l 40 81 l 104 90 q 114 188 114 178 l 114 331 l 50 331 l 50 425 l 114 425 l 114 508 q 104 646 114 597 l 42 658 l 47 750 l 154 744 q 167 744 158 744 l 390 754 q 673 649 575 754 q 771 372 771 544 q 674 96 771 199 q 390 -7 576 -7 m 326 97 l 364 96 q 512 169 469 96 q 554 375 554 243 q 367 654 554 654 q 318 643 365 654 q 315 575 315 610 l 315 425 l 394 425 l 389 331 l 315 331 l 315 219 q 318 97 315 133 l 326 97 z "},"Ē":{"ha":856,"x_min":63,"x_max":807,"o":"m 210 979 l 582 979 l 740 993 l 767 968 l 776 751 l 676 744 q 664 828 668 811 q 650 860 660 844 q 540 865 594 865 l 388 865 q 382 753 382 765 l 382 554 q 418 553 396 553 l 496 553 q 557 565 525 553 l 569 654 l 656 647 q 654 532 654 560 l 658 356 l 569 347 l 557 431 q 468 439 496 439 l 425 439 q 382 438 392 439 l 382 268 q 386 121 382 204 l 560 121 q 667 132 611 121 q 710 271 700 193 l 807 264 l 786 19 l 760 -6 q 601 0 629 0 l 210 0 l 69 -7 l 63 90 l 154 107 q 167 226 167 149 l 167 711 q 154 865 167 813 l 64 882 l 71 986 q 210 979 160 979 m 204 1071 l 204 1172 l 651 1172 l 642 1071 l 204 1071 z "},"ē":{"ha":686,"x_min":56,"x_max":644,"o":"m 329 219 l 331 110 l 454 110 q 531 117 496 110 q 550 167 533 122 q 561 221 557 190 l 644 215 l 628 15 l 608 -4 q 486 0 507 0 l 160 0 l 61 -6 l 56 81 l 118 90 q 128 188 128 113 l 128 508 q 118 646 128 614 l 56 658 l 61 750 q 160 744 113 744 l 471 744 l 592 754 l 613 736 l 619 560 l 535 554 q 522 639 531 606 q 439 643 490 643 l 332 643 l 329 575 l 329 422 l 399 422 q 436 432 414 422 l 446 499 l 521 493 l 521 406 l 524 261 l 446 256 l 436 314 q 378 321 399 321 l 329 321 l 329 219 m 119 828 l 119 929 l 567 929 l 557 828 l 119 828 z "},"Ĕ":{"ha":856,"x_min":63,"x_max":807,"o":"m 210 979 l 582 979 l 740 993 l 767 968 l 776 751 l 676 744 q 664 828 668 811 q 650 860 660 844 q 540 865 594 865 l 388 865 q 382 753 382 765 l 382 554 q 418 553 396 553 l 496 553 q 557 565 525 553 l 569 654 l 656 647 q 654 532 654 560 l 658 356 l 569 347 l 557 431 q 468 439 496 439 l 425 439 q 382 438 392 439 l 382 268 q 386 121 382 204 l 560 121 q 667 132 611 121 q 710 271 700 193 l 807 264 l 786 19 l 760 -6 q 601 0 629 0 l 210 0 l 69 -7 l 63 90 l 154 107 q 167 226 167 149 l 167 711 q 154 865 167 813 l 64 882 l 71 986 q 210 979 160 979 m 546 1247 l 638 1247 q 580 1088 638 1144 q 424 1032 522 1032 q 267 1088 325 1032 q 210 1247 210 1144 l 301 1247 q 335 1167 301 1196 q 424 1138 369 1138 q 512 1167 478 1138 q 546 1247 546 1196 z "},"ĕ":{"ha":686,"x_min":56,"x_max":644,"o":"m 329 219 l 331 110 l 454 110 q 531 117 496 110 q 550 167 533 122 q 561 221 557 190 l 644 215 l 628 15 l 608 -4 q 486 0 507 0 l 160 0 l 61 -6 l 56 81 l 118 90 q 128 188 128 113 l 128 508 q 118 646 128 614 l 56 658 l 61 750 q 160 744 113 744 l 471 744 l 592 754 l 613 736 l 619 560 l 535 554 q 522 639 531 606 q 439 643 490 643 l 332 643 l 329 575 l 329 422 l 399 422 q 436 432 414 422 l 446 499 l 521 493 l 521 406 l 524 261 l 446 256 l 436 314 q 378 321 399 321 l 329 321 l 329 219 m 460 1013 l 551 1013 q 494 853 551 910 q 338 797 436 797 q 181 853 239 797 q 124 1013 124 910 l 215 1013 q 249 932 215 961 q 338 903 283 903 q 426 932 392 903 q 460 1013 460 961 z "},"Ė":{"ha":856,"x_min":63,"x_max":807,"o":"m 210 979 l 582 979 l 740 993 l 767 968 l 776 751 l 676 744 q 664 828 668 811 q 650 860 660 844 q 540 865 594 865 l 388 865 q 382 753 382 765 l 382 554 q 418 553 396 553 l 496 553 q 557 565 525 553 l 569 654 l 656 647 q 654 532 654 560 l 658 356 l 569 347 l 557 431 q 468 439 496 439 l 425 439 q 382 438 392 439 l 382 268 q 386 121 382 204 l 560 121 q 667 132 611 121 q 710 271 700 193 l 807 264 l 786 19 l 760 -6 q 601 0 629 0 l 210 0 l 69 -7 l 63 90 l 154 107 q 167 226 167 149 l 167 711 q 154 865 167 813 l 64 882 l 71 986 q 210 979 160 979 m 347 1226 q 362 1242 347 1226 q 428 1257 376 1257 q 508 1227 479 1257 q 538 1147 538 1197 q 509 1066 538 1096 q 428 1036 481 1036 q 347 1066 375 1036 q 318 1146 318 1096 q 347 1226 318 1196 z "},"ė":{"ha":686,"x_min":56,"x_max":644,"o":"m 329 219 l 331 110 l 454 110 q 531 117 496 110 q 550 167 533 122 q 561 221 557 190 l 644 215 l 628 15 l 608 -4 q 486 0 507 0 l 160 0 l 61 -6 l 56 81 l 118 90 q 128 188 128 113 l 128 508 q 118 646 128 614 l 56 658 l 61 750 q 160 744 113 744 l 471 744 l 592 754 l 613 736 l 619 560 l 535 554 q 522 639 531 606 q 439 643 490 643 l 332 643 l 329 575 l 329 422 l 399 422 q 436 432 414 422 l 446 499 l 521 493 l 521 406 l 524 261 l 446 256 l 436 314 q 378 321 399 321 l 329 321 l 329 219 m 263 990 q 277 1006 263 990 q 343 1021 292 1021 q 424 991 394 1021 q 453 910 453 961 q 424 830 453 860 q 343 800 396 800 q 262 830 290 800 q 233 910 233 860 q 263 990 233 960 z "},"Ę":{"ha":856,"x_min":63,"x_max":807,"o":"m 210 979 l 582 979 l 740 993 l 767 968 l 776 751 l 676 744 q 664 828 668 811 q 650 860 660 844 q 540 865 594 865 l 388 865 q 382 753 382 765 l 382 554 q 418 553 396 553 l 496 553 q 557 565 525 553 l 569 654 l 656 647 q 654 532 654 560 l 658 356 l 569 347 l 557 431 q 468 439 496 439 l 425 439 q 382 438 392 439 l 382 268 q 386 121 382 204 l 560 121 q 667 132 611 121 q 710 271 700 193 l 807 264 l 786 19 l 760 -6 q 713 -4 743 -4 q 634 -31 682 -4 q 586 -118 586 -58 q 602 -166 586 -147 q 644 -185 618 -185 q 696 -175 671 -185 l 721 -242 q 588 -274 657 -274 q 478 -242 519 -274 q 438 -150 438 -211 q 456 -82 438 -106 q 481 -50 474 -58 q 509 -23 488 -42 q 535 0 531 -4 l 210 0 l 69 -7 l 63 90 l 154 107 q 167 226 167 149 l 167 711 q 154 865 167 813 l 64 882 l 71 986 q 210 979 160 979 z "},"ę":{"ha":906,"x_min":56,"x_max":863,"o":"m 792 581 l 792 143 l 793 4 q 751 -68 796 -22 q 600 -211 693 -128 l 531 -174 q 611 -3 611 -11 l 297 414 l 297 219 q 303 133 297 175 q 308 90 308 92 l 369 85 l 365 -6 q 163 0 303 0 l 61 -6 l 56 81 l 118 90 q 128 188 128 129 l 128 508 q 118 646 128 613 l 57 658 l 63 750 q 161 743 96 744 l 303 743 l 322 724 q 411 571 396 594 l 624 282 l 624 514 q 614 647 624 540 l 551 664 l 557 751 l 674 744 l 857 750 l 863 647 l 799 647 q 792 581 792 606 z "},"Ě":{"ha":856,"x_min":63,"x_max":807,"o":"m 210 979 l 582 979 l 740 993 l 767 968 l 776 751 l 676 744 q 664 828 668 811 q 650 860 660 844 q 540 865 594 865 l 388 865 q 382 753 382 765 l 382 554 q 418 553 396 553 l 496 553 q 557 565 525 553 l 569 654 l 656 647 q 654 532 654 560 l 658 356 l 569 347 l 557 431 q 468 439 496 439 l 425 439 q 382 438 392 439 l 382 268 q 386 121 382 204 l 560 121 q 667 132 611 121 q 710 271 700 193 l 807 264 l 786 19 l 760 -6 q 601 0 629 0 l 210 0 l 69 -7 l 63 90 l 154 107 q 167 226 167 149 l 167 711 q 154 865 167 813 l 64 882 l 71 986 q 210 979 160 979 m 638 1290 l 703 1210 l 428 1025 l 153 1210 l 218 1290 l 311 1222 l 428 1165 l 544 1222 l 638 1290 z "},"ě":{"ha":686,"x_min":56,"x_max":644,"o":"m 329 219 l 331 110 l 454 110 q 531 117 496 110 q 550 167 533 122 q 561 221 557 190 l 644 215 l 628 15 l 608 -4 q 486 0 507 0 l 160 0 l 61 -6 l 56 81 l 118 90 q 128 188 128 113 l 128 508 q 118 646 128 614 l 56 658 l 61 750 q 160 744 113 744 l 471 744 l 592 754 l 613 736 l 619 560 l 535 554 q 522 639 531 606 q 439 643 490 643 l 332 643 l 329 575 l 329 422 l 399 422 q 436 432 414 422 l 446 499 l 521 493 l 521 406 l 524 261 l 446 256 l 436 314 q 378 321 399 321 l 329 321 l 329 219 m 140 1063 l 233 989 q 256 975 239 986 q 343 924 281 960 q 453 989 426 976 l 546 1063 l 618 982 l 343 783 l 68 982 l 140 1063 z "},"Ĝ":{"ha":971,"x_min":38,"x_max":890,"o":"m 547 1000 q 865 953 661 1000 l 847 724 l 738 729 l 733 794 q 717 851 733 808 q 547 871 622 871 q 351 766 415 871 q 288 490 288 661 q 351 213 288 318 q 546 108 414 108 q 682 119 608 108 q 692 178 692 163 l 692 272 l 678 357 l 531 368 l 538 504 l 692 504 l 851 508 l 890 474 q 878 272 878 342 l 878 26 q 547 -21 674 -21 q 169 117 300 -21 q 38 489 38 256 q 169 861 38 722 q 547 1000 300 1000 m 546 1303 l 821 1118 l 756 1038 l 663 1106 l 546 1163 l 429 1106 l 336 1038 l 271 1118 l 546 1303 z "},"ĝ":{"ha":778,"x_min":26,"x_max":707,"o":"m 438 760 q 688 724 538 760 l 672 540 l 575 543 l 571 594 q 558 632 571 603 q 439 642 503 642 q 263 372 263 642 q 438 103 263 103 q 518 104 490 103 q 524 135 524 122 l 524 207 l 513 265 l 399 274 l 404 400 l 524 400 l 671 404 l 706 372 q 696 225 696 278 l 696 19 q 438 -15 543 -15 q 133 90 239 -15 q 26 372 26 194 q 133 654 26 549 q 438 760 239 760 m 432 1063 l 707 864 l 642 783 l 549 857 q 432 918 493 885 l 315 857 l 222 783 l 157 864 l 432 1063 z "},"Ğ":{"ha":971,"x_min":38,"x_max":890,"o":"m 547 1000 q 865 953 661 1000 l 847 724 l 738 729 l 733 794 q 717 851 733 808 q 547 871 622 871 q 351 766 415 871 q 288 490 288 661 q 351 213 288 318 q 546 108 414 108 q 682 119 608 108 q 692 178 692 163 l 692 272 l 678 357 l 531 368 l 538 504 l 692 504 l 851 508 l 890 474 q 878 272 878 342 l 878 26 q 547 -21 674 -21 q 169 117 300 -21 q 38 489 38 256 q 169 861 38 722 q 547 1000 300 1000 m 668 1247 l 760 1247 q 702 1088 760 1144 q 546 1032 644 1032 q 390 1088 447 1032 q 332 1247 332 1144 l 424 1247 q 458 1167 424 1196 q 546 1138 492 1138 q 634 1167 600 1138 q 668 1247 668 1196 z "},"ğ":{"ha":778,"x_min":26,"x_max":706,"o":"m 438 760 q 688 724 538 760 l 672 540 l 575 543 l 571 594 q 558 632 571 603 q 439 642 503 642 q 263 372 263 642 q 438 103 263 103 q 518 104 490 103 q 524 135 524 122 l 524 207 l 513 265 l 399 274 l 404 400 l 524 400 l 671 404 l 706 372 q 696 225 696 278 l 696 19 q 438 -15 543 -15 q 133 90 239 -15 q 26 372 26 194 q 133 654 26 549 q 438 760 239 760 m 554 1013 l 646 1013 q 588 853 646 910 q 432 797 531 797 q 276 853 333 797 q 218 1013 218 910 l 310 1013 q 344 932 310 961 q 432 903 378 903 q 520 932 486 903 q 554 1013 554 961 z "},"Ġ":{"ha":971,"x_min":38,"x_max":890,"o":"m 547 1000 q 865 953 661 1000 l 847 724 l 738 729 l 733 794 q 717 851 733 808 q 547 871 622 871 q 351 766 415 871 q 288 490 288 661 q 351 213 288 318 q 546 108 414 108 q 682 119 608 108 q 692 178 692 163 l 692 272 l 678 357 l 531 368 l 538 504 l 692 504 l 851 508 l 890 474 q 878 272 878 342 l 878 26 q 547 -21 674 -21 q 169 117 300 -21 q 38 489 38 256 q 169 861 38 722 q 547 1000 300 1000 m 465 1226 q 480 1242 465 1226 q 546 1257 494 1257 q 626 1227 597 1257 q 656 1147 656 1197 q 627 1066 656 1096 q 546 1036 599 1036 q 465 1066 493 1036 q 436 1146 436 1096 q 465 1226 436 1196 z "},"ġ":{"ha":778,"x_min":26,"x_max":706,"o":"m 438 760 q 688 724 538 760 l 672 540 l 575 543 l 571 594 q 558 632 571 603 q 439 642 503 642 q 263 372 263 642 q 438 103 263 103 q 518 104 490 103 q 524 135 524 122 l 524 207 l 513 265 l 399 274 l 404 400 l 524 400 l 671 404 l 706 372 q 696 225 696 278 l 696 19 q 438 -15 543 -15 q 133 90 239 -15 q 26 372 26 194 q 133 654 26 549 q 438 760 239 760 m 353 990 q 367 1006 353 990 q 433 1021 382 1021 q 514 991 485 1021 q 543 910 543 961 q 515 830 543 860 q 433 800 486 800 q 352 830 381 800 q 324 910 324 860 q 353 990 324 960 z "},"Ģ":{"ha":971,"x_min":38,"x_max":890,"o":"m 547 1000 q 865 953 661 1000 l 847 724 l 738 729 l 733 794 q 717 851 733 808 q 547 871 622 871 q 351 766 415 871 q 288 490 288 661 q 351 213 288 318 q 546 108 414 108 q 682 119 608 108 q 692 178 692 163 l 692 272 l 678 357 l 531 368 l 538 504 l 692 504 l 851 508 l 890 474 q 878 272 878 342 l 878 26 q 547 -21 674 -21 q 169 117 300 -21 q 38 489 38 256 q 169 861 38 722 q 547 1000 300 1000 m 492 -250 q 435 -181 435 -231 q 461 -106 435 -131 q 527 -81 488 -81 q 591 -108 567 -81 q 615 -178 615 -136 q 594 -269 615 -221 q 551 -350 572 -318 l 531 -381 l 467 -364 q 492 -250 492 -287 z "},"ģ":{"ha":778,"x_min":26,"x_max":706,"o":"m 438 760 q 688 724 538 760 l 672 540 l 575 543 l 571 594 q 558 632 571 603 q 439 642 503 642 q 263 372 263 642 q 438 103 263 103 q 518 104 490 103 q 524 135 524 122 l 524 207 l 513 265 l 399 274 l 404 400 l 524 400 l 671 404 l 706 372 q 696 225 696 278 l 696 19 q 438 -15 543 -15 q 133 90 239 -15 q 26 372 26 194 q 133 654 26 549 q 438 760 239 760 m 410 -250 q 353 -181 353 -231 q 379 -106 353 -131 q 445 -81 406 -81 q 509 -108 485 -81 q 533 -178 533 -136 q 513 -269 533 -221 q 469 -350 492 -318 l 449 -381 l 385 -364 q 410 -250 410 -287 z "},"Ĥ":{"ha":1149,"x_min":63,"x_max":1086,"o":"m 154 107 l 167 226 l 167 711 q 154 865 167 765 l 64 882 l 71 986 q 210 979 144 979 l 479 986 l 486 874 l 394 865 q 382 753 382 803 l 382 540 l 767 546 l 767 711 q 754 865 767 765 l 664 882 l 671 986 q 810 979 744 979 l 1079 986 l 1086 874 l 994 865 q 982 753 982 803 l 982 268 q 994 107 982 194 l 1085 99 l 1078 -7 q 808 0 965 0 l 669 -7 l 663 90 l 754 107 l 767 226 l 767 419 l 382 419 l 382 268 q 394 107 382 194 l 485 99 l 478 -7 q 208 0 365 0 l 69 -7 l 63 90 l 154 107 m 575 1303 l 850 1118 l 785 1038 l 692 1106 l 575 1163 l 458 1106 l 365 1038 l 300 1118 l 575 1303 z "},"ĥ":{"ha":926,"x_min":56,"x_max":872,"o":"m 586 90 l 596 188 l 596 304 l 329 304 l 329 219 q 340 90 329 213 l 396 85 l 392 -6 q 157 0 297 0 l 61 -6 l 56 81 l 118 90 q 128 188 128 158 l 128 508 q 118 646 128 578 l 56 658 l 61 750 q 160 744 94 744 l 399 750 l 404 651 l 340 646 q 329 575 329 601 l 329 417 l 596 421 l 596 508 q 586 646 596 578 l 524 658 l 529 750 q 626 744 561 744 l 867 750 l 872 651 l 808 646 q 797 575 797 601 l 797 219 q 808 90 797 151 l 864 85 l 860 -6 q 625 0 764 0 l 528 -6 l 524 81 l 586 90 m 463 1063 l 738 864 l 672 783 l 579 857 q 463 918 524 885 l 346 857 l 253 783 l 188 864 l 463 1063 z "},"Ħ":{"ha":1149,"x_min":42,"x_max":1107,"o":"m 765 765 l 754 865 l 664 882 l 671 986 q 810 979 744 979 l 1079 986 l 1086 874 l 994 865 q 982 765 985 822 l 1107 765 l 1107 676 l 982 676 l 982 268 q 994 107 982 194 l 1085 99 l 1078 -7 q 808 0 965 0 l 669 -7 l 663 90 l 754 107 l 767 226 l 767 419 l 382 419 l 382 268 q 394 107 382 194 l 485 99 l 478 -7 q 208 0 365 0 l 69 -7 l 63 90 l 154 107 l 167 226 l 167 676 l 42 676 l 42 765 l 165 765 q 154 865 165 765 l 64 882 l 71 986 q 210 979 144 979 l 479 986 l 486 874 l 394 865 q 382 765 385 822 l 765 765 m 767 676 l 382 676 l 382 540 l 767 546 l 767 676 z "},"ħ":{"ha":926,"x_min":31,"x_max":886,"o":"m 586 90 l 596 188 l 596 304 l 329 304 l 329 219 q 340 90 329 213 l 396 85 l 392 -6 q 157 0 297 0 l 61 -6 l 56 81 l 118 90 q 128 188 128 158 l 128 499 l 31 499 l 31 578 l 125 578 q 118 646 125 586 l 56 658 l 61 750 q 160 744 94 744 l 399 750 l 404 651 l 340 646 q 329 578 329 606 l 593 578 q 586 646 593 586 l 524 658 l 529 750 q 626 744 561 744 l 867 750 l 872 651 l 808 646 q 797 578 797 606 l 886 578 l 886 499 l 797 499 l 797 219 q 808 90 797 151 l 864 85 l 860 -6 q 625 0 764 0 l 528 -6 l 524 81 l 586 90 m 596 499 l 329 499 l 329 417 l 596 421 l 596 499 z "},"Ĩ":{"ha":563,"x_min":57,"x_max":569,"o":"m 175 107 l 188 226 l 188 711 q 175 865 188 765 l 85 882 l 92 986 q 231 979 165 979 l 500 986 l 507 874 l 415 865 q 403 753 403 803 l 403 268 q 415 107 403 194 l 506 99 l 499 -7 q 229 0 386 0 l 90 -7 l 83 90 l 175 107 m 551 1149 q 545 1137 551 1149 q 506 1086 539 1125 q 445 1047 474 1047 q 318 1074 417 1047 q 197 1100 219 1100 q 132 1056 161 1100 l 122 1042 l 57 1081 q 117 1180 79 1133 q 182 1226 154 1226 q 309 1200 210 1226 q 431 1174 408 1174 q 493 1214 468 1174 l 501 1226 l 569 1188 q 551 1149 563 1172 z "},"ĩ":{"ha":468,"x_min":-18,"x_max":411,"o":"m 96 90 l 106 188 l 106 508 q 101 604 106 565 q 96 646 96 643 l 33 658 l 39 750 q 136 744 71 744 l 375 750 l 382 651 l 318 646 q 307 575 307 601 l 307 219 q 318 90 307 151 l 374 85 l 369 -6 q 135 0 274 0 l 38 -6 l 32 81 l 96 90 m 360 869 q 344 847 360 869 q 304 825 328 825 q 207 851 281 825 q 114 878 133 878 q 56 833 83 878 l 47 819 l -18 858 q -12 874 -15 864 q 4 909 -8 883 q 29 953 17 935 q 88 1004 63 1004 q 188 978 114 1004 q 281 951 263 951 q 335 992 310 951 l 343 1004 l 411 965 q 360 869 392 913 z "},"Ī":{"ha":563,"x_min":58,"x_max":482,"o":"m 92 1071 l 92 1172 l 478 1172 l 471 1071 l 92 1071 m 150 107 l 163 226 l 163 711 q 150 865 163 765 l 60 882 l 67 986 q 206 979 140 979 l 475 986 l 482 874 l 390 865 q 378 753 378 803 l 378 268 q 390 107 378 194 l 481 99 l 474 -7 q 204 0 361 0 l 65 -7 l 58 90 l 150 107 z "},"ī":{"ha":468,"x_min":11,"x_max":397,"o":"m 79 90 l 89 188 l 89 508 q 84 604 89 565 q 79 646 79 643 l 17 658 l 22 750 q 119 744 54 744 l 358 750 l 365 651 l 301 646 q 290 575 290 601 l 290 219 q 301 90 290 151 l 357 85 l 353 -6 q 118 0 257 0 l 21 -6 l 15 81 l 79 90 m 11 828 l 11 929 l 397 929 l 390 828 l 11 828 z "},"Ĭ":{"ha":563,"x_min":68,"x_max":496,"o":"m 161 107 l 174 226 l 174 711 q 161 865 174 765 l 71 882 l 78 986 q 217 979 151 979 l 486 986 l 493 874 l 401 865 q 389 753 389 803 l 389 268 q 401 107 389 194 l 492 99 l 485 -7 q 215 0 372 0 l 76 -7 l 69 90 l 161 107 m 404 1247 l 496 1247 q 438 1088 496 1144 q 282 1032 381 1032 q 126 1088 183 1032 q 68 1247 68 1144 l 160 1247 q 194 1167 160 1196 q 282 1138 228 1138 q 370 1167 336 1138 q 404 1247 404 1196 z "},"ĭ":{"ha":468,"x_min":19,"x_max":447,"o":"m 124 90 l 133 188 l 133 508 q 128 604 133 565 q 124 646 124 643 l 61 658 l 67 750 q 164 744 99 744 l 403 750 l 410 651 l 346 646 q 335 575 335 601 l 335 219 q 346 90 335 151 l 401 85 l 397 -6 q 163 0 301 0 l 65 -6 l 60 81 l 124 90 m 356 1013 l 447 1013 q 390 853 447 910 q 233 797 332 797 q 77 853 135 797 q 19 1013 19 910 l 111 1013 q 145 932 111 961 q 233 903 179 903 q 322 932 288 903 q 356 1013 356 961 z "},"Į":{"ha":563,"x_min":28,"x_max":493,"o":"m 174 226 l 174 711 q 161 865 174 765 l 71 882 l 78 986 q 217 979 151 979 l 486 986 l 493 874 l 401 865 q 389 753 389 803 l 389 268 q 401 107 389 194 l 492 99 l 485 -7 q 281 0 401 -1 q 204 -43 232 -8 q 176 -112 176 -78 q 239 -185 176 -185 q 286 -175 261 -185 l 311 -242 q 178 -274 247 -274 q 69 -242 110 -274 q 28 -160 28 -211 q 51 -74 28 -110 q 101 -10 74 -37 q 151 78 128 17 q 174 226 174 140 z "},"į":{"ha":468,"x_min":-12,"x_max":410,"o":"m 133 226 l 133 508 q 128 604 133 565 q 124 646 124 643 l 61 658 l 67 750 q 164 744 99 744 l 403 750 l 410 651 l 346 646 q 335 575 335 601 l 335 219 q 346 90 335 151 l 401 85 l 397 -6 q 240 0 335 -1 q 164 -43 192 -8 q 136 -112 136 -78 q 199 -185 136 -185 q 246 -175 221 -185 l 271 -242 q 138 -274 207 -274 q 28 -242 69 -274 q -12 -160 -12 -211 q 10 -74 -12 -110 q 60 -10 33 -37 q 110 78 88 17 q 133 226 133 140 z "},"İ":{"ha":563,"x_min":69,"x_max":493,"o":"m 161 107 l 174 226 l 174 711 q 161 865 174 765 l 71 882 l 78 986 q 217 979 151 979 l 486 986 l 493 874 l 401 865 q 389 753 389 803 l 389 268 q 401 107 389 194 l 492 99 l 485 -7 q 215 0 372 0 l 76 -7 l 69 90 l 161 107 m 201 1226 q 216 1242 201 1226 q 282 1257 231 1257 q 363 1227 333 1257 q 392 1147 392 1197 q 363 1066 392 1096 q 282 1036 335 1036 q 201 1066 229 1036 q 172 1146 172 1096 q 201 1226 172 1196 z "},"ı":{"ha":468,"x_min":60,"x_max":410,"o":"m 124 90 l 133 188 l 133 508 q 128 604 133 565 q 124 646 124 643 l 61 658 l 67 750 q 164 744 99 744 l 403 750 l 410 651 l 346 646 q 335 575 335 601 l 335 219 q 346 90 335 151 l 401 85 l 397 -6 q 163 0 301 0 l 65 -6 l 60 81 l 124 90 z "},"Ĳ":{"ha":1008,"x_min":69,"x_max":963,"o":"m 161 107 l 174 226 l 174 711 q 161 865 174 806 l 71 882 l 78 986 q 217 979 151 979 l 686 979 l 956 986 l 963 874 l 871 865 q 858 753 858 810 l 858 0 q 796 -98 858 -31 q 613 -278 733 -165 l 538 -235 q 643 15 643 -12 l 643 711 q 631 865 643 803 l 517 878 l 401 865 q 389 753 389 822 l 389 268 q 401 107 389 219 l 492 99 l 485 -7 q 215 0 372 0 l 76 -7 l 69 90 l 161 107 z "},"ĳ":{"ha":850,"x_min":60,"x_max":807,"o":"m 124 90 l 133 188 l 133 508 q 124 646 133 604 l 61 658 l 67 750 q 164 744 99 744 l 561 744 l 801 750 l 807 651 l 743 646 q 732 575 732 601 l 732 6 q 692 -57 732 -17 q 594 -149 653 -97 q 521 -211 535 -200 l 451 -174 q 531 11 531 -10 l 531 508 q 521 646 531 604 l 435 653 l 346 646 q 335 575 335 615 l 335 219 q 346 90 335 146 l 401 85 l 397 -6 q 163 0 301 0 l 65 -6 l 60 81 l 124 90 z "},"Ĵ":{"ha":515,"x_min":-17,"x_max":533,"o":"m 365 753 l 365 14 q 119 -278 365 -50 l 44 -235 q 150 15 150 -12 l 150 711 q 138 865 150 803 l 47 882 l 54 986 q 193 979 128 979 l 463 986 l 469 874 l 378 865 q 365 753 365 808 m 258 1303 l 533 1118 l 468 1038 l 375 1106 l 258 1163 l 142 1106 l 49 1038 l -17 1118 l 258 1303 z "},"ĵ":{"ha":431,"x_min":-60,"x_max":490,"o":"m 313 575 l 313 22 q 101 -211 313 -28 l 32 -174 q 111 11 111 -10 l 111 508 q 101 646 111 604 l 39 658 l 44 750 q 142 744 76 744 l 381 750 l 388 651 l 324 646 q 313 575 313 601 m 215 1063 l 490 864 l 425 783 l 332 857 q 215 918 276 885 l 99 857 l 6 783 l -60 864 l 215 1063 z "},"Ķ":{"ha":1043,"x_min":67,"x_max":1050,"o":"m 1050 99 l 1043 -7 q 763 0 918 0 l 631 -7 l 624 90 l 678 101 q 596 228 618 197 l 388 490 l 613 801 l 651 874 l 608 882 l 615 986 q 750 979 683 979 l 981 986 l 988 874 l 907 865 q 801 758 843 804 l 622 514 q 907 179 715 410 q 983 107 918 165 l 1050 99 m 154 107 l 167 226 l 167 711 q 154 865 167 765 l 68 882 l 75 986 q 208 979 142 979 l 475 986 l 482 874 l 394 865 q 382 753 382 803 l 382 268 q 394 107 382 194 l 479 99 l 472 -7 q 207 0 363 0 l 74 -7 l 67 90 l 154 107 m 492 -250 q 435 -181 435 -231 q 461 -106 435 -131 q 527 -81 488 -81 q 591 -108 567 -81 q 615 -178 615 -136 q 594 -269 615 -221 q 551 -350 572 -318 l 531 -381 l 467 -364 q 492 -250 492 -287 z "},"ķ":{"ha":844,"x_min":60,"x_max":851,"o":"m 851 85 l 847 -6 q 597 0 735 0 l 514 -6 l 510 81 l 540 85 l 483 174 l 331 372 l 493 610 l 517 654 l 496 658 l 501 750 q 600 744 533 744 l 800 750 l 806 651 l 754 646 q 686 576 696 586 l 550 390 q 618 311 574 363 q 767 136 692 224 l 813 90 l 851 85 m 329 575 l 329 219 q 340 90 329 213 l 389 85 l 385 -6 q 156 0 293 0 l 65 -6 l 60 81 l 118 90 q 128 188 128 158 l 128 508 q 118 646 128 578 l 61 658 l 67 750 q 157 744 90 744 l 393 750 l 400 651 l 340 646 q 329 575 329 601 m 422 -250 q 365 -181 365 -231 q 392 -106 365 -131 q 458 -81 418 -81 q 522 -108 497 -81 q 546 -178 546 -136 q 524 -269 546 -221 q 482 -350 503 -318 l 461 -381 l 397 -364 q 422 -250 422 -287 z "},"ĸ":{"ha":844,"x_min":60,"x_max":851,"o":"m 851 85 l 847 -6 q 597 0 735 0 l 514 -6 l 510 81 l 540 85 l 483 174 l 331 372 l 493 610 l 517 654 l 496 658 l 501 750 q 600 744 533 744 l 800 750 l 806 651 l 754 646 q 686 576 696 586 l 550 390 q 618 311 574 363 q 767 136 692 224 l 813 90 l 851 85 m 329 575 l 329 219 q 340 90 329 213 l 389 85 l 385 -6 q 156 0 293 0 l 65 -6 l 60 81 l 118 90 q 128 188 128 158 l 128 508 q 118 646 128 578 l 61 658 l 67 750 q 157 744 90 744 l 393 750 l 400 651 l 340 646 q 329 575 329 601 z "},"Ĺ":{"ha":785,"x_min":63,"x_max":771,"o":"m 154 107 l 167 226 l 167 711 q 154 865 167 765 l 64 882 l 71 986 q 210 979 144 979 l 479 986 l 486 874 l 394 865 q 382 753 382 803 l 382 268 q 393 121 382 199 l 524 121 q 631 132 578 121 q 663 213 656 186 q 674 271 669 239 l 771 264 l 750 19 l 724 -6 q 565 0 593 0 l 208 0 l 69 -7 l 63 90 l 154 107 m 407 1247 l 457 1131 q 232 1067 258 1075 l 129 1014 l 78 1103 l 407 1247 z "},"ĺ":{"ha":633,"x_min":51,"x_max":613,"o":"m 325 575 l 325 219 q 335 110 325 168 l 422 110 q 499 117 468 110 q 521 176 517 161 q 529 221 525 190 l 613 215 l 596 15 l 576 -4 q 454 0 475 0 l 153 0 l 57 -6 l 51 81 l 114 90 q 124 188 124 158 l 124 508 q 114 646 124 578 l 51 658 l 57 750 q 156 744 90 744 l 394 750 l 400 651 l 336 646 q 325 575 325 601 m 349 1049 l 414 943 q 219 853 244 865 l 126 785 l 61 865 l 349 1049 z "},"Ļ":{"ha":785,"x_min":63,"x_max":771,"o":"m 154 107 l 167 226 l 167 711 q 154 865 167 765 l 64 882 l 71 986 q 210 979 144 979 l 479 986 l 486 874 l 394 865 q 382 753 382 803 l 382 268 q 393 121 382 199 l 524 121 q 631 132 578 121 q 663 213 656 186 q 674 271 669 239 l 771 264 l 750 19 l 724 -6 q 565 0 593 0 l 208 0 l 69 -7 l 63 90 l 154 107 m 389 -250 q 332 -181 332 -231 q 358 -106 332 -131 q 424 -81 385 -81 q 488 -108 464 -81 q 513 -178 513 -136 q 491 -269 513 -221 q 449 -350 469 -318 l 428 -381 l 364 -364 q 389 -250 389 -287 z "},"ļ":{"ha":633,"x_min":56,"x_max":617,"o":"m 329 575 l 329 219 q 339 110 329 168 l 426 110 q 503 117 472 110 q 525 176 521 161 q 533 221 529 190 l 617 215 l 600 15 l 581 -4 q 458 0 479 0 l 157 0 l 61 -6 l 56 81 l 118 90 q 128 188 128 158 l 128 508 q 118 646 128 578 l 56 658 l 61 750 q 160 744 94 744 l 399 750 l 404 651 l 340 646 q 329 575 329 601 m 326 -250 q 269 -181 269 -231 q 296 -106 269 -131 q 362 -81 322 -81 q 426 -108 401 -81 q 450 -178 450 -136 q 429 -269 450 -221 q 386 -350 408 -318 l 365 -381 l 301 -364 q 326 -250 326 -287 z "},"Ľ":{"ha":785,"x_min":63,"x_max":771,"o":"m 518 801 l 683 801 l 665 463 l 543 469 l 544 599 l 518 801 m 154 107 l 167 226 l 167 711 q 154 865 167 765 l 64 882 l 71 986 q 210 979 144 979 l 479 986 l 486 874 l 394 865 q 382 753 382 803 l 382 268 q 393 121 382 199 l 524 121 q 631 132 578 121 q 663 213 656 186 q 674 271 669 239 l 771 264 l 750 19 l 724 -6 q 565 0 593 0 l 208 0 l 69 -7 l 63 90 l 154 107 z "},"ľ":{"ha":633,"x_min":56,"x_max":617,"o":"m 449 651 l 600 651 l 582 313 l 474 319 l 475 449 l 449 651 m 329 575 l 329 219 q 339 110 329 168 l 426 110 q 503 117 472 110 q 525 176 521 161 q 533 221 529 190 l 617 215 l 600 15 l 581 -4 q 458 0 479 0 l 157 0 l 61 -6 l 56 81 l 118 90 q 128 188 128 158 l 128 508 q 118 646 128 578 l 56 658 l 61 750 q 160 744 94 744 l 399 750 l 404 651 l 340 646 q 329 575 329 601 z "},"Ŀ":{"ha":785,"x_min":63,"x_max":771,"o":"m 519 620 q 534 636 519 620 q 600 653 549 653 q 681 622 651 653 q 710 536 710 590 q 681 450 710 482 q 600 418 651 418 q 519 450 549 418 q 490 535 490 482 q 519 620 490 588 m 154 107 l 167 226 l 167 711 q 154 865 167 765 l 64 882 l 71 986 q 210 979 144 979 l 479 986 l 486 874 l 394 865 q 382 753 382 803 l 382 268 q 393 121 382 199 l 524 121 q 631 132 578 121 q 663 213 656 186 q 674 271 669 239 l 771 264 l 750 19 l 724 -6 q 565 0 593 0 l 208 0 l 69 -7 l 63 90 l 154 107 z "},"ŀ":{"ha":633,"x_min":56,"x_max":617,"o":"m 415 538 q 430 555 415 538 q 496 571 444 571 q 576 540 547 571 q 606 454 606 508 q 576 368 606 400 q 496 336 547 336 q 415 368 444 336 q 386 453 386 400 q 415 538 386 506 m 329 575 l 329 219 q 339 110 329 168 l 426 110 q 503 117 472 110 q 525 176 521 161 q 533 221 529 190 l 617 215 l 600 15 l 581 -4 q 458 0 479 0 l 157 0 l 61 -6 l 56 81 l 118 90 q 128 188 128 158 l 128 508 q 118 646 128 578 l 56 658 l 61 750 q 160 744 94 744 l 399 750 l 404 651 l 340 646 q 329 575 329 601 z "},"Ł":{"ha":785,"x_min":36,"x_max":771,"o":"m 154 107 l 167 226 l 167 431 l 67 394 l 36 478 l 167 525 l 167 711 q 154 865 167 765 l 64 882 l 71 986 q 210 979 144 979 l 479 986 l 486 874 l 394 865 q 382 753 382 803 l 382 603 l 608 686 l 639 603 l 382 508 l 382 268 q 393 121 382 199 l 524 121 q 631 132 578 121 q 663 213 656 186 q 674 271 669 239 l 771 264 l 750 19 l 724 -6 q 565 0 593 0 l 208 0 l 69 -7 l 63 90 l 154 107 z "},"ł":{"ha":633,"x_min":3,"x_max":617,"o":"m 329 575 l 329 460 l 490 518 l 517 443 l 329 375 l 329 219 q 339 110 329 168 l 426 110 q 503 117 472 110 q 525 176 521 161 q 533 221 529 190 l 617 215 l 600 15 l 581 -4 q 458 0 479 0 l 157 0 l 61 -6 l 56 81 l 118 90 q 128 188 128 158 l 128 303 l 31 268 l 3 342 l 128 386 l 128 508 q 118 646 128 578 l 56 658 l 61 750 q 160 744 94 744 l 399 750 l 404 651 l 340 646 q 329 575 329 601 z "},"Ń":{"ha":1114,"x_min":63,"x_max":1086,"o":"m 982 753 l 982 0 l 794 0 l 343 625 l 343 268 q 356 107 343 232 l 446 99 l 439 -7 q 208 0 365 0 l 69 -7 l 63 90 l 154 107 q 167 226 167 175 l 167 711 q 154 865 167 797 l 64 882 l 71 986 q 210 979 144 979 l 351 979 l 378 951 q 500 746 479 776 l 806 319 l 806 711 q 793 865 806 765 l 703 882 l 710 986 l 849 979 l 1079 986 l 1086 874 l 994 865 q 982 753 982 790 m 724 1247 l 774 1131 q 549 1067 575 1075 l 446 1014 l 394 1103 l 724 1247 z "},"ń":{"ha":892,"x_min":56,"x_max":863,"o":"m 792 581 l 792 143 l 793 4 l 607 4 l 297 414 l 297 219 q 303 133 297 175 q 308 90 308 92 l 369 85 l 365 -6 q 163 0 303 0 l 61 -6 l 56 81 l 118 90 q 128 188 128 129 l 128 508 q 118 646 128 613 l 57 658 l 63 750 q 161 744 96 744 l 303 743 l 322 724 q 411 571 396 594 l 624 282 l 624 514 q 614 647 624 540 l 551 664 l 557 751 l 674 744 l 857 750 l 863 647 l 799 647 q 792 581 792 606 m 581 1049 l 646 943 q 451 853 476 865 l 358 785 l 293 865 l 581 1049 z "},"Ņ":{"ha":1114,"x_min":63,"x_max":1086,"o":"m 982 753 l 982 0 l 794 0 l 343 625 l 343 268 q 356 107 343 232 l 446 99 l 439 -7 q 208 0 365 0 l 69 -7 l 63 90 l 154 107 q 167 226 167 175 l 167 711 q 154 865 167 797 l 64 882 l 71 986 q 210 979 144 979 l 351 979 l 378 951 q 500 746 479 776 l 806 319 l 806 711 q 793 865 806 765 l 703 882 l 710 986 l 849 979 l 1079 986 l 1086 874 l 994 865 q 982 753 982 790 m 519 -250 q 463 -181 463 -231 q 489 -106 463 -131 q 555 -81 515 -81 q 619 -108 594 -81 q 643 -178 643 -136 q 622 -269 643 -221 q 579 -350 600 -318 l 558 -381 l 494 -364 q 519 -250 519 -287 z "},"ņ":{"ha":892,"x_min":56,"x_max":863,"o":"m 792 581 l 792 143 l 793 4 l 607 4 l 297 414 l 297 219 q 303 133 297 175 q 308 90 308 92 l 369 85 l 365 -6 q 163 0 303 0 l 61 -6 l 56 81 l 118 90 q 128 188 128 129 l 128 508 q 118 646 128 613 l 57 658 l 63 750 q 161 744 96 744 l 303 743 l 322 724 q 411 571 396 594 l 624 282 l 624 514 q 614 647 624 540 l 551 664 l 557 751 l 674 744 l 857 750 l 863 647 l 799 647 q 792 581 792 606 m 438 -250 q 381 -181 381 -231 q 407 -106 381 -131 q 473 -81 433 -81 q 537 -108 513 -81 q 561 -178 561 -136 q 540 -269 561 -221 q 497 -350 519 -318 l 476 -381 l 413 -364 q 438 -250 438 -287 z "},"Ň":{"ha":1114,"x_min":63,"x_max":1086,"o":"m 982 753 l 982 0 l 794 0 l 343 625 l 343 268 q 356 107 343 232 l 446 99 l 439 -7 q 208 0 365 0 l 69 -7 l 63 90 l 154 107 q 167 226 167 175 l 167 711 q 154 865 167 797 l 64 882 l 71 986 q 210 979 144 979 l 351 979 l 378 951 q 500 746 479 776 l 806 319 l 806 711 q 793 865 806 765 l 703 882 l 710 986 l 849 979 l 1079 986 l 1086 874 l 994 865 q 982 753 982 790 m 767 1249 l 832 1168 l 557 983 l 282 1168 l 347 1249 l 440 1181 l 557 1124 l 674 1181 l 767 1249 z "},"ň":{"ha":892,"x_min":56,"x_max":863,"o":"m 792 581 l 792 143 l 793 4 l 607 4 l 297 414 l 297 219 q 303 133 297 175 q 308 90 308 92 l 369 85 l 365 -6 q 163 0 303 0 l 61 -6 l 56 81 l 118 90 q 128 188 128 129 l 128 508 q 118 646 128 613 l 57 658 l 63 750 q 161 744 96 744 l 303 743 l 322 724 q 411 571 396 594 l 624 282 l 624 514 q 614 647 624 540 l 551 664 l 557 751 l 674 744 l 857 750 l 863 647 l 799 647 q 792 581 792 606 m 243 1063 l 336 989 q 358 975 342 986 q 446 924 383 960 q 556 989 529 976 l 649 1063 l 721 982 l 446 783 l 171 982 l 243 1063 z "},"Ŋ":{"ha":1132,"x_min":63,"x_max":1086,"o":"m 982 753 l 982 0 q 764 -278 989 -53 l 689 -235 q 794 0 789 -26 l 343 625 l 343 268 q 356 107 343 232 l 446 99 l 439 -7 q 208 0 365 0 l 69 -7 l 63 90 l 154 107 q 167 226 167 175 l 167 711 q 154 865 167 797 l 64 882 l 71 986 q 210 979 144 979 l 351 979 l 378 951 q 500 746 479 776 l 806 319 l 806 711 q 793 865 806 765 l 703 882 l 710 986 l 849 979 l 1079 986 l 1086 874 l 994 865 q 982 753 982 790 z "},"ŋ":{"ha":686,"x_min":56,"x_max":644,"o":"m 329 219 l 331 110 l 454 110 q 531 117 496 110 q 550 167 533 122 q 561 221 557 190 l 644 215 l 628 15 l 608 -4 q 515 -31 563 -4 q 467 -118 467 -58 q 483 -166 467 -147 q 525 -185 499 -185 q 576 -175 551 -185 l 601 -242 q 469 -274 538 -274 q 359 -242 400 -274 q 318 -150 318 -211 q 336 -82 318 -106 q 361 -50 354 -58 q 390 -23 368 -42 q 415 0 411 -4 l 160 0 l 61 -6 l 56 81 l 118 90 q 128 188 128 113 l 128 508 q 118 646 128 614 l 56 658 l 61 750 q 160 744 113 744 l 471 744 l 592 754 l 613 736 l 619 560 l 535 554 q 522 639 531 606 q 439 643 490 643 l 332 643 l 329 575 l 329 422 l 399 422 q 436 432 414 422 l 446 499 l 521 493 l 521 406 l 524 261 l 446 256 l 436 314 q 378 321 399 321 l 329 321 l 329 219 z "},"Ō":{"ha":1067,"x_min":38,"x_max":1029,"o":"m 533 1006 q 647 1006 533 1006 q 894 865 760 1006 q 1029 490 1029 725 q 894 114 1029 254 q 533 -26 760 -26 q 172 114 307 -26 q 38 490 38 254 q 172 865 38 725 q 533 1006 307 1006 m 533 871 q 471 871 533 871 q 348 777 408 871 q 288 490 288 683 q 348 202 288 296 q 533 108 408 108 q 719 202 658 108 q 779 490 779 296 q 719 777 779 683 q 533 871 658 871 m 308 1071 l 308 1172 l 756 1172 l 746 1071 l 308 1071 z "},"ō":{"ha":849,"x_min":26,"x_max":822,"o":"m 711 660 q 767 606 711 660 q 822 372 822 553 q 711 85 822 192 q 424 -22 600 -22 q 137 85 247 -22 q 26 372 26 192 q 137 660 26 553 q 424 767 247 767 q 711 660 600 767 m 299 580 q 279 550 299 580 q 260 372 260 521 q 299 165 260 224 q 424 106 338 106 q 550 165 511 106 q 589 372 589 224 q 550 580 589 521 q 424 639 511 639 q 299 580 338 639 m 199 828 l 199 929 l 646 929 l 636 828 l 199 828 z "},"Ŏ":{"ha":1067,"x_min":38,"x_max":1029,"o":"m 533 1006 q 647 1006 533 1006 q 894 865 760 1006 q 1029 490 1029 725 q 894 114 1029 254 q 533 -26 760 -26 q 172 114 307 -26 q 38 490 38 254 q 172 865 38 725 q 533 1006 307 1006 m 533 871 q 471 871 533 871 q 348 777 408 871 q 288 490 288 683 q 348 202 288 296 q 533 108 408 108 q 719 202 658 108 q 779 490 779 296 q 719 777 779 683 q 533 871 658 871 m 654 1247 l 746 1247 q 688 1088 746 1144 q 532 1032 631 1032 q 376 1088 433 1032 q 318 1247 318 1144 l 410 1247 q 444 1167 410 1196 q 532 1138 478 1138 q 620 1167 586 1138 q 654 1247 654 1196 z "},"ŏ":{"ha":849,"x_min":26,"x_max":822,"o":"m 711 660 q 767 606 711 660 q 822 372 822 553 q 711 85 822 192 q 424 -22 600 -22 q 137 85 247 -22 q 26 372 26 192 q 137 660 26 553 q 424 767 247 767 q 711 660 600 767 m 299 580 q 279 550 299 580 q 260 372 260 521 q 299 165 260 224 q 424 106 338 106 q 550 165 511 106 q 589 372 589 224 q 550 580 589 521 q 424 639 511 639 q 299 580 338 639 m 544 1013 l 636 1013 q 578 853 636 910 q 422 797 521 797 q 266 853 324 797 q 208 1013 208 910 l 300 1013 q 334 932 300 961 q 422 903 368 903 q 510 932 476 903 q 544 1013 544 961 z "},"Ő":{"ha":1067,"x_min":38,"x_max":1029,"o":"m 533 1006 q 647 1006 533 1006 q 894 865 760 1006 q 1029 490 1029 725 q 894 114 1029 254 q 533 -26 760 -26 q 172 114 307 -26 q 38 490 38 254 q 172 865 38 725 q 533 1006 307 1006 m 533 871 q 471 871 533 871 q 348 777 408 871 q 288 490 288 683 q 348 202 288 296 q 533 108 408 108 q 719 202 658 108 q 779 490 779 296 q 719 777 779 683 q 533 871 658 871 m 575 1275 l 625 1165 q 406 1075 432 1083 l 303 1019 l 249 1107 l 575 1275 m 888 1268 l 938 1151 q 713 1072 739 1081 l 610 1019 l 560 1106 l 888 1268 z "},"ő":{"ha":849,"x_min":26,"x_max":822,"o":"m 711 660 q 767 606 711 660 q 822 372 822 553 q 711 85 822 192 q 424 -22 600 -22 q 137 85 247 -22 q 26 372 26 192 q 137 660 26 553 q 424 767 247 767 q 711 660 600 767 m 299 580 q 279 550 299 580 q 260 372 260 521 q 299 165 260 224 q 424 106 338 106 q 550 165 511 106 q 589 372 589 224 q 550 580 589 521 q 424 639 511 639 q 299 580 338 639 m 736 1058 l 803 951 q 592 853 617 865 l 499 785 l 433 865 l 736 1058 m 478 1058 l 535 967 q 333 853 358 869 l 240 785 l 175 865 l 478 1058 z "},"Œ":{"ha":1396,"x_min":38,"x_max":1393,"o":"m 1188 0 l 796 0 l 696 -4 q 533 -26 624 -26 q 172 114 307 -26 q 38 490 38 254 q 172 865 38 725 q 533 1006 307 1006 q 694 983 624 1006 q 796 979 786 979 l 1168 979 l 1326 993 l 1353 968 l 1363 751 l 1263 744 q 1250 828 1254 811 q 1236 860 1246 844 q 1126 865 1181 865 l 974 865 q 968 753 968 765 l 968 554 q 1004 553 982 553 l 1082 553 q 1143 565 1111 553 l 1156 654 l 1242 647 q 1240 536 1240 564 l 1244 360 l 1156 351 l 1143 435 q 1054 443 1082 443 l 1011 443 q 968 442 978 443 l 968 268 q 972 121 968 204 l 1146 121 q 1253 132 1197 121 q 1296 271 1286 193 l 1393 264 l 1372 19 l 1346 -6 q 1188 0 1215 0 m 533 871 q 348 777 408 871 q 288 490 288 683 q 348 202 288 296 q 533 108 408 108 q 678 148 629 108 q 767 272 728 188 l 767 744 q 708 815 728 794 q 643 853 688 836 q 533 871 599 871 z "},"œ":{"ha":1099,"x_min":26,"x_max":1111,"o":"m 800 643 l 797 575 l 797 424 l 867 424 q 904 433 888 424 l 914 500 l 989 494 q 988 410 988 431 l 992 265 l 914 258 l 904 318 q 844 325 867 325 l 797 325 l 797 219 q 799 110 797 131 l 921 110 q 999 117 964 110 q 1018 168 1011 146 q 1028 221 1025 190 l 1111 215 l 1096 15 l 1075 -4 q 953 0 975 0 l 626 0 l 560 -3 q 424 -22 501 -22 q 137 85 247 -22 q 26 372 26 192 q 137 660 26 553 q 424 767 247 767 q 558 747 501 767 q 626 744 597 744 l 938 744 l 1060 754 l 1081 736 l 1088 560 l 1003 554 l 994 619 q 989 639 994 628 q 906 643 960 643 l 800 643 m 424 639 q 299 580 338 639 q 260 372 260 521 q 299 165 260 224 q 424 106 338 106 q 546 141 510 106 q 613 258 582 176 l 613 532 q 592 558 606 540 q 574 583 579 576 q 557 601 569 589 q 534 618 544 614 q 508 628 524 622 q 424 639 481 639 z "},"Ŕ":{"ha":918,"x_min":63,"x_max":919,"o":"m 214 979 l 500 993 q 736 915 647 993 q 825 700 825 836 q 779 546 825 614 q 656 436 733 478 q 804 182 699 350 l 853 104 l 919 99 l 913 -7 q 647 0 804 0 q 579 161 597 128 l 464 385 l 443 385 q 382 389 417 385 l 382 268 q 394 107 382 194 l 485 99 l 478 -7 q 208 0 365 0 l 69 -7 l 63 90 l 154 107 l 167 226 l 167 711 q 154 865 167 747 l 64 882 l 71 986 q 214 979 144 979 m 419 879 q 390 878 403 879 q 382 753 382 794 l 382 501 l 415 501 q 557 550 513 501 q 601 697 601 599 q 419 879 601 879 m 626 1247 l 676 1131 q 451 1067 478 1075 l 349 1014 l 297 1103 l 626 1247 z "},"ŕ":{"ha":728,"x_min":56,"x_max":729,"o":"m 189 744 l 406 754 q 592 692 519 754 q 664 529 664 631 q 546 332 664 407 q 653 153 594 235 q 661 139 661 140 l 692 88 l 729 85 l 725 -6 q 503 0 642 0 q 453 122 467 97 l 372 278 l 353 278 q 329 281 349 278 l 329 219 q 340 90 329 213 l 396 85 l 392 -6 q 157 0 297 0 l 61 -6 l 56 81 l 118 90 q 128 188 128 158 l 128 508 q 118 646 128 568 l 56 658 l 61 750 l 174 744 q 189 744 181 744 m 504 1049 l 569 943 q 375 853 400 865 l 282 785 l 217 865 l 504 1049 m 331 388 q 427 422 400 388 q 454 523 454 456 q 427 620 454 590 q 335 650 400 650 l 329 575 l 329 388 l 331 388 z "},"Ŗ":{"ha":918,"x_min":63,"x_max":919,"o":"m 214 979 l 500 993 q 736 915 647 993 q 825 700 825 836 q 779 546 825 614 q 656 436 733 478 q 804 182 699 350 l 853 104 l 919 99 l 913 -7 q 647 0 804 0 q 579 161 597 128 l 464 385 l 443 385 q 382 389 417 385 l 382 268 q 394 107 382 194 l 485 99 l 478 -7 q 208 0 365 0 l 69 -7 l 63 90 l 154 107 l 167 226 l 167 711 q 154 865 167 747 l 64 882 l 71 986 q 214 979 144 979 m 419 879 q 390 878 403 879 q 382 753 382 794 l 382 501 l 415 501 q 557 550 513 501 q 601 697 601 599 q 419 879 601 879 m 492 -250 q 435 -181 435 -231 q 461 -106 435 -131 q 527 -81 488 -81 q 591 -108 567 -81 q 615 -178 615 -136 q 594 -269 615 -221 q 551 -350 572 -318 l 531 -381 l 467 -364 q 492 -250 492 -287 z "},"ŗ":{"ha":728,"x_min":56,"x_max":729,"o":"m 189 744 l 406 754 q 592 692 519 754 q 664 529 664 631 q 546 332 664 407 q 653 153 594 235 q 661 139 661 140 l 692 88 l 729 85 l 725 -6 q 503 0 642 0 q 453 122 467 97 l 372 278 l 353 278 q 329 281 349 278 l 329 219 q 340 90 329 213 l 396 85 l 392 -6 q 157 0 297 0 l 61 -6 l 56 81 l 118 90 q 128 188 128 158 l 128 508 q 118 646 128 568 l 56 658 l 61 750 l 174 744 q 189 744 181 744 m 374 -250 q 317 -181 317 -231 q 343 -106 317 -131 q 409 -81 369 -81 q 473 -108 449 -81 q 497 -178 497 -136 q 476 -269 497 -221 q 433 -350 456 -318 l 413 -381 l 349 -364 q 374 -250 374 -287 m 331 388 q 427 422 400 388 q 454 523 454 456 q 427 620 454 590 q 335 650 400 650 l 329 575 l 329 388 l 331 388 z "},"Ř":{"ha":918,"x_min":63,"x_max":919,"o":"m 214 979 l 500 993 q 736 915 647 993 q 825 700 825 836 q 779 546 825 614 q 656 436 733 478 q 804 182 699 350 l 853 104 l 919 99 l 913 -7 q 647 0 804 0 q 579 161 597 128 l 464 385 l 443 385 q 382 389 417 385 l 382 268 q 394 107 382 194 l 485 99 l 478 -7 q 208 0 365 0 l 69 -7 l 63 90 l 154 107 l 167 226 l 167 711 q 154 865 167 747 l 64 882 l 71 986 q 214 979 144 979 m 419 879 q 390 878 403 879 q 382 753 382 794 l 382 501 l 415 501 q 557 550 513 501 q 601 697 601 599 q 419 879 601 879 m 669 1290 l 735 1210 l 460 1025 l 185 1210 l 250 1290 l 343 1222 l 460 1165 l 576 1222 l 669 1290 z "},"ř":{"ha":728,"x_min":56,"x_max":729,"o":"m 189 744 l 406 754 q 592 692 519 754 q 664 529 664 631 q 546 332 664 407 q 653 153 594 235 q 661 139 661 140 l 692 88 l 729 85 l 725 -6 q 503 0 642 0 q 453 122 467 97 l 372 278 l 353 278 q 329 281 349 278 l 329 219 q 340 90 329 213 l 396 85 l 392 -6 q 157 0 297 0 l 61 -6 l 56 81 l 118 90 q 128 188 128 158 l 128 508 q 118 646 128 568 l 56 658 l 61 750 l 174 744 q 189 744 181 744 m 167 1063 l 260 989 q 282 975 265 986 q 369 924 307 960 q 479 989 453 976 l 572 1063 l 644 982 l 369 783 l 94 982 l 167 1063 m 331 388 q 427 422 400 388 q 454 523 454 456 q 427 620 454 590 q 335 650 400 650 l 329 575 l 329 388 l 331 388 z "},"Ś":{"ha":796,"x_min":61,"x_max":742,"o":"m 197 307 q 199 213 199 226 q 218 153 199 200 q 361 114 292 114 q 472 144 431 114 q 513 226 513 174 q 480 315 513 278 q 398 376 447 353 q 292 430 349 399 q 185 494 235 461 q 103 587 136 528 q 71 724 71 646 q 162 925 71 850 q 394 1000 253 1000 q 703 950 536 1000 l 683 682 l 568 689 l 568 792 q 551 839 568 799 q 434 871 493 871 q 338 841 375 871 q 300 760 300 811 q 346 669 300 708 q 456 601 392 631 q 585 536 521 572 q 696 436 650 500 q 742 283 742 372 q 640 62 742 144 q 385 -21 539 -21 q 220 -4 301 -21 q 100 29 139 13 l 61 46 l 82 314 l 197 307 m 569 1247 l 619 1131 q 394 1067 421 1075 l 292 1014 l 240 1103 l 569 1247 z "},"ś":{"ha":632,"x_min":49,"x_max":590,"o":"m 164 254 q 165 172 165 178 q 167 162 165 165 q 174 151 169 158 q 182 138 179 143 q 275 108 224 108 q 381 172 381 108 q 264 290 381 240 q 169 338 217 311 q 87 417 121 365 q 53 542 53 468 q 126 700 53 640 q 317 760 200 760 q 560 719 435 760 l 544 492 l 443 496 l 443 592 l 431 615 q 356 640 393 640 q 293 622 319 640 q 267 570 267 603 q 300 511 267 538 q 381 465 333 485 q 476 419 428 444 q 557 344 524 393 q 590 228 590 296 q 509 52 590 119 q 306 -15 428 -15 q 177 -3 242 -15 q 81 19 113 8 l 49 32 l 65 258 l 164 254 m 457 1049 l 522 943 q 328 853 353 865 l 235 785 l 169 865 l 457 1049 z "},"Ŝ":{"ha":796,"x_min":61,"x_max":742,"o":"m 197 307 q 199 213 199 226 q 218 153 199 200 q 361 114 292 114 q 472 144 431 114 q 513 226 513 174 q 480 315 513 278 q 398 376 447 353 q 292 430 349 399 q 185 494 235 461 q 103 587 136 528 q 71 724 71 646 q 162 925 71 850 q 394 1000 253 1000 q 703 950 536 1000 l 683 682 l 568 689 l 568 792 q 551 839 568 799 q 434 871 493 871 q 338 841 375 871 q 300 760 300 811 q 346 669 300 708 q 456 601 392 631 q 585 536 521 572 q 696 436 650 500 q 742 283 742 372 q 640 62 742 144 q 385 -21 539 -21 q 220 -4 301 -21 q 100 29 139 13 l 61 46 l 82 314 l 197 307 m 403 1303 l 678 1118 l 613 1038 l 519 1106 l 403 1163 l 286 1106 l 193 1038 l 128 1118 l 403 1303 z "},"ŝ":{"ha":632,"x_min":47,"x_max":597,"o":"m 164 254 q 165 172 165 178 q 167 162 165 165 q 174 151 169 158 q 182 138 179 143 q 275 108 224 108 q 381 172 381 108 q 264 290 381 240 q 169 338 217 311 q 87 417 121 365 q 53 542 53 468 q 126 700 53 640 q 317 760 200 760 q 560 719 435 760 l 544 492 l 443 496 l 443 592 l 431 615 q 356 640 393 640 q 293 622 319 640 q 267 570 267 603 q 300 511 267 538 q 381 465 333 485 q 476 419 428 444 q 557 344 524 393 q 590 228 590 296 q 509 52 590 119 q 306 -15 428 -15 q 177 -3 242 -15 q 81 19 113 8 l 49 32 l 65 258 l 164 254 m 322 1063 l 597 864 l 532 783 l 439 857 q 322 918 383 885 l 206 857 l 113 783 l 47 864 l 322 1063 z "},"Ş":{"ha":796,"x_min":61,"x_max":742,"o":"m 197 307 q 199 213 199 226 q 218 153 199 200 q 361 114 292 114 q 472 144 431 114 q 513 226 513 174 q 480 315 513 278 q 398 376 447 353 q 292 430 349 399 q 185 494 235 461 q 103 587 136 528 q 71 724 71 646 q 162 925 71 850 q 394 1000 253 1000 q 703 950 536 1000 l 683 682 l 568 689 l 568 792 q 551 839 568 799 q 434 871 493 871 q 338 841 375 871 q 300 760 300 811 q 346 669 300 708 q 456 601 392 631 q 585 536 521 572 q 696 436 650 500 q 742 283 742 372 q 654 74 742 154 q 428 -18 567 -6 l 415 -82 q 517 -115 478 -83 q 556 -206 556 -147 q 512 -296 556 -265 q 392 -326 468 -326 q 264 -301 317 -326 l 289 -233 q 365 -249 338 -249 q 431 -203 431 -249 q 372 -160 431 -160 l 343 -161 l 328 -142 l 339 -19 q 197 1 267 -15 q 94 32 128 18 l 61 46 l 82 314 l 197 307 z "},"ş":{"ha":632,"x_min":49,"x_max":590,"o":"m 164 254 q 165 172 165 178 q 167 162 165 165 q 174 151 169 158 q 182 138 179 143 q 275 108 224 108 q 381 172 381 108 q 264 290 381 240 q 169 338 217 311 q 87 417 121 365 q 53 542 53 468 q 126 700 53 640 q 317 760 200 760 q 560 719 435 760 l 544 492 l 443 496 l 443 592 l 431 615 q 356 640 393 640 q 293 622 319 640 q 267 570 267 603 q 300 511 267 538 q 381 465 333 485 q 476 419 428 444 q 557 344 524 393 q 590 228 590 296 q 523 64 590 129 q 350 -12 456 -1 l 336 -82 q 438 -115 399 -83 q 476 -206 476 -147 q 433 -296 476 -265 q 313 -326 389 -326 q 185 -301 238 -326 l 210 -233 q 286 -249 258 -249 q 351 -203 351 -249 q 293 -160 351 -160 l 264 -161 l 249 -142 l 261 -14 q 75 22 146 -6 l 49 32 l 65 258 l 164 254 z "},"Š":{"ha":796,"x_min":61,"x_max":742,"o":"m 197 307 q 199 213 199 226 q 218 153 199 200 q 361 114 292 114 q 472 144 431 114 q 513 226 513 174 q 480 315 513 278 q 398 376 447 353 q 292 430 349 399 q 185 494 235 461 q 103 587 136 528 q 71 724 71 646 q 162 925 71 850 q 394 1000 253 1000 q 703 950 536 1000 l 683 682 l 568 689 l 568 792 q 551 839 568 799 q 434 871 493 871 q 338 841 375 871 q 300 760 300 811 q 346 669 300 708 q 456 601 392 631 q 585 536 521 572 q 696 436 650 500 q 742 283 742 372 q 640 62 742 144 q 385 -21 539 -21 q 220 -4 301 -21 q 100 29 139 13 l 61 46 l 82 314 l 197 307 m 613 1290 l 678 1210 l 403 1025 l 128 1210 l 193 1290 l 286 1222 l 403 1165 l 519 1222 l 613 1290 z "},"š":{"ha":632,"x_min":47,"x_max":597,"o":"m 164 254 q 165 172 165 178 q 167 162 165 165 q 174 151 169 158 q 182 138 179 143 q 275 108 224 108 q 381 172 381 108 q 264 290 381 240 q 169 338 217 311 q 87 417 121 365 q 53 542 53 468 q 126 700 53 640 q 317 760 200 760 q 560 719 435 760 l 544 492 l 443 496 l 443 592 l 431 615 q 356 640 393 640 q 293 622 319 640 q 267 570 267 603 q 300 511 267 538 q 381 465 333 485 q 476 419 428 444 q 557 344 524 393 q 590 228 590 296 q 509 52 590 119 q 306 -15 428 -15 q 177 -3 242 -15 q 81 19 113 8 l 49 32 l 65 258 l 164 254 m 119 1063 l 213 989 q 235 975 218 986 q 322 924 260 960 q 432 989 406 976 l 525 1063 l 597 982 l 322 783 l 47 982 l 119 1063 z "},"Ţ":{"ha":869,"x_min":14,"x_max":857,"o":"m 315 107 l 328 226 l 328 711 q 315 865 328 758 l 250 865 q 139 858 208 865 q 122 812 126 828 q 114 731 118 796 l 14 738 l 24 968 l 50 993 q 208 979 181 979 l 661 979 l 819 993 l 846 968 l 857 738 l 757 731 q 749 812 753 796 q 732 858 744 828 q 626 865 669 865 l 556 865 q 543 753 543 799 l 543 268 q 556 107 543 194 l 646 99 l 639 -7 q 481 0 575 -3 l 464 -82 q 565 -115 526 -83 q 604 -206 604 -147 q 560 -296 604 -265 q 441 -326 517 -326 q 313 -301 365 -326 l 338 -233 q 414 -249 386 -249 q 479 -203 479 -249 q 421 -160 479 -160 l 392 -161 l 376 -142 l 390 0 l 369 0 l 231 -7 l 224 90 l 315 107 z "},"ţ":{"ha":699,"x_min":17,"x_max":683,"o":"m 508 643 l 461 643 q 450 575 450 603 l 450 219 q 461 90 450 213 l 517 85 l 513 -6 q 394 -1 465 -3 l 378 -82 q 479 -115 440 -83 q 518 -206 518 -147 q 474 -296 518 -265 q 355 -326 431 -326 q 226 -301 279 -326 l 251 -233 q 328 -249 300 -249 q 393 -203 393 -249 q 335 -160 393 -160 l 306 -161 l 290 -142 l 304 0 l 278 0 l 182 -6 l 176 81 l 239 90 q 249 188 249 158 l 249 508 q 239 643 249 585 l 199 643 q 113 638 196 643 q 107 607 113 625 q 101 543 101 589 l 17 547 l 24 736 l 44 754 q 167 744 144 744 l 532 744 l 654 754 l 674 736 l 683 547 l 599 543 q 593 606 599 589 q 586 638 588 624 q 508 643 519 643 z "},"Ť":{"ha":869,"x_min":14,"x_max":857,"o":"m 315 107 l 328 226 l 328 711 q 315 865 328 758 l 250 865 q 139 858 208 865 q 122 812 126 828 q 114 731 118 796 l 14 738 l 24 968 l 50 993 q 208 979 181 979 l 661 979 l 819 993 l 846 968 l 857 738 l 757 731 q 749 812 753 796 q 732 858 744 828 q 626 865 669 865 l 556 865 q 543 753 543 799 l 543 268 q 556 107 543 194 l 646 99 l 639 -7 q 369 0 526 0 l 231 -7 l 224 90 l 315 107 m 644 1290 l 710 1210 l 435 1025 l 160 1210 l 225 1290 l 318 1222 l 435 1165 l 551 1222 l 644 1290 z "},"ť":{"ha":699,"x_min":17,"x_max":683,"o":"m 508 643 l 461 643 q 450 575 450 603 l 450 219 q 461 90 450 213 l 517 85 l 513 -6 q 278 0 418 0 l 182 -6 l 176 81 l 239 90 q 249 188 249 158 l 249 508 q 239 643 249 585 l 199 643 q 113 638 196 643 q 107 607 113 625 q 101 543 101 589 l 17 547 l 24 736 l 44 754 q 167 744 144 744 l 532 744 l 654 754 l 674 736 l 683 547 l 599 543 q 593 606 599 589 q 586 638 588 624 q 508 643 519 643 m 146 1063 l 239 989 q 261 975 244 986 q 349 924 286 960 q 458 989 432 976 l 551 1063 l 624 982 l 349 783 l 74 982 l 146 1063 z "},"Ŧ":{"ha":869,"x_min":14,"x_max":857,"o":"m 315 107 l 328 226 l 328 496 l 132 496 l 132 585 l 328 585 l 328 711 q 315 865 328 758 l 250 865 q 139 858 208 865 q 122 812 126 828 q 114 731 118 796 l 14 738 l 24 968 l 50 993 q 208 979 181 979 l 661 979 l 819 993 l 846 968 l 857 738 l 757 731 q 749 812 753 796 q 732 858 744 828 q 626 865 669 865 l 556 865 q 543 753 543 799 l 543 585 l 740 585 l 740 496 l 543 496 l 543 268 q 556 107 543 194 l 646 99 l 639 -7 q 369 0 526 0 l 231 -7 l 224 90 l 315 107 z "},"ŧ":{"ha":699,"x_min":17,"x_max":683,"o":"m 508 643 l 461 643 q 450 575 450 603 l 450 436 l 596 436 l 596 357 l 450 357 l 450 219 q 461 90 450 213 l 517 85 l 513 -6 q 278 0 418 0 l 182 -6 l 176 81 l 239 90 q 249 188 249 158 l 249 357 l 106 357 l 106 436 l 249 436 l 249 508 q 239 643 249 585 l 199 643 q 113 638 196 643 q 107 607 113 625 q 101 543 101 589 l 17 547 l 24 736 l 44 754 q 167 744 144 744 l 532 744 l 654 754 l 674 736 l 683 547 l 599 543 q 593 606 599 589 q 586 638 588 624 q 508 643 519 643 z "},"Ũ":{"ha":1082,"x_min":36,"x_max":1047,"o":"m 943 753 l 943 372 q 839 85 943 190 q 540 -21 735 -21 q 242 85 346 -21 q 139 372 139 190 l 139 711 q 126 865 139 807 l 36 882 l 43 986 q 182 979 117 979 l 458 986 l 465 874 l 374 865 q 361 753 361 819 l 361 361 q 415 201 361 264 q 569 138 468 138 q 715 194 669 138 q 760 361 760 251 l 760 711 q 747 865 760 772 l 657 882 l 664 986 q 803 979 738 979 l 1040 986 l 1047 874 l 956 865 q 943 753 943 807 m 785 1149 q 780 1137 785 1149 q 741 1086 774 1125 q 681 1047 708 1047 q 554 1074 653 1047 q 433 1100 456 1100 q 367 1056 396 1100 l 357 1042 l 292 1081 q 351 1180 314 1133 q 417 1226 389 1226 q 544 1200 444 1226 q 665 1174 643 1174 q 728 1214 703 1174 l 736 1226 l 804 1188 q 785 1149 797 1172 z "},"ũ":{"ha":874,"x_min":39,"x_max":838,"o":"m 764 578 l 764 285 q 678 65 764 146 q 435 -15 593 -15 q 194 65 278 -15 q 110 285 110 146 l 110 511 q 100 646 110 610 l 39 658 l 43 750 q 142 744 76 744 l 385 750 l 392 651 l 328 646 q 317 578 317 619 l 317 271 q 355 173 317 213 q 463 133 393 133 q 561 166 533 133 q 589 271 589 199 l 589 511 q 579 646 589 588 l 518 658 l 522 750 q 626 744 561 744 l 832 750 l 838 651 l 774 646 q 764 578 764 593 m 677 926 q 671 915 677 926 q 633 864 665 903 q 572 825 600 825 q 460 851 544 825 q 353 878 375 878 q 286 833 315 878 l 276 819 l 211 858 q 271 958 233 911 q 336 1004 308 1004 q 449 978 364 1004 q 557 951 535 951 q 619 992 594 951 l 628 1004 l 696 965 q 677 926 689 950 z "},"Ū":{"ha":1082,"x_min":36,"x_max":1047,"o":"m 943 753 l 943 372 q 839 85 943 190 q 540 -21 735 -21 q 242 85 346 -21 q 139 372 139 190 l 139 711 q 126 865 139 807 l 36 882 l 43 986 q 182 979 117 979 l 458 986 l 465 874 l 374 865 q 361 753 361 819 l 361 361 q 415 201 361 264 q 569 138 468 138 q 715 194 669 138 q 760 361 760 251 l 760 711 q 747 865 760 772 l 657 882 l 664 986 q 803 979 738 979 l 1040 986 l 1047 874 l 956 865 q 943 753 943 807 m 318 1071 l 318 1172 l 765 1172 l 756 1071 l 318 1071 z "},"ū":{"ha":874,"x_min":39,"x_max":838,"o":"m 764 578 l 764 285 q 678 65 764 146 q 435 -15 593 -15 q 194 65 278 -15 q 110 285 110 146 l 110 511 q 100 646 110 610 l 39 658 l 43 750 q 142 744 76 744 l 385 750 l 392 651 l 328 646 q 317 578 317 619 l 317 271 q 355 173 317 213 q 463 133 393 133 q 561 166 533 133 q 589 271 589 199 l 589 511 q 579 646 589 588 l 518 658 l 522 750 q 626 744 561 744 l 832 750 l 838 651 l 774 646 q 764 578 764 593 m 213 828 l 213 929 l 660 929 l 650 828 l 213 828 z "},"Ŭ":{"ha":1082,"x_min":36,"x_max":1047,"o":"m 943 753 l 943 372 q 839 85 943 190 q 540 -21 735 -21 q 242 85 346 -21 q 139 372 139 190 l 139 711 q 126 865 139 807 l 36 882 l 43 986 q 182 979 117 979 l 458 986 l 465 874 l 374 865 q 361 753 361 819 l 361 361 q 415 201 361 264 q 569 138 468 138 q 715 194 669 138 q 760 361 760 251 l 760 711 q 747 865 760 772 l 657 882 l 664 986 q 803 979 738 979 l 1040 986 l 1047 874 l 956 865 q 943 753 943 807 m 664 1247 l 756 1247 q 698 1088 756 1144 q 542 1032 640 1032 q 385 1088 443 1032 q 328 1247 328 1144 l 419 1247 q 453 1167 419 1196 q 542 1138 488 1138 q 630 1167 596 1138 q 664 1247 664 1196 z "},"ŭ":{"ha":874,"x_min":39,"x_max":838,"o":"m 764 578 l 764 285 q 678 65 764 146 q 435 -15 593 -15 q 194 65 278 -15 q 110 285 110 146 l 110 511 q 100 646 110 610 l 39 658 l 43 750 q 142 744 76 744 l 385 750 l 392 651 l 328 646 q 317 578 317 619 l 317 271 q 355 173 317 213 q 463 133 393 133 q 561 166 533 133 q 589 271 589 199 l 589 511 q 579 646 589 588 l 518 658 l 522 750 q 626 744 561 744 l 832 750 l 838 651 l 774 646 q 764 578 764 593 m 558 1013 l 650 1013 q 592 853 650 910 q 436 797 535 797 q 280 853 338 797 q 222 1013 222 910 l 314 1013 q 348 932 314 961 q 436 903 382 903 q 524 932 490 903 q 558 1013 558 961 z "},"Ů":{"ha":1082,"x_min":36,"x_max":1047,"o":"m 943 753 l 943 372 q 839 85 943 190 q 540 -21 735 -21 q 242 85 346 -21 q 139 372 139 190 l 139 711 q 126 865 139 807 l 36 882 l 43 986 q 182 979 117 979 l 458 986 l 465 874 l 374 865 q 361 753 361 819 l 361 361 q 415 201 361 264 q 569 138 468 138 q 715 194 669 138 q 760 361 760 251 l 760 711 q 747 865 760 772 l 657 882 l 664 986 q 803 979 738 979 l 1040 986 l 1047 874 l 956 865 q 943 753 943 807 m 439 1250 q 457 1268 439 1250 q 542 1286 475 1286 q 644 1251 608 1286 q 679 1153 679 1215 q 644 1056 679 1092 q 542 1021 608 1021 q 439 1056 475 1021 q 403 1153 403 1092 q 439 1250 403 1214 m 586 1153 q 586 1180 586 1153 q 542 1206 586 1206 q 499 1153 499 1206 q 542 1101 499 1101 q 586 1153 586 1101 z "},"ů":{"ha":874,"x_min":39,"x_max":838,"o":"m 764 578 l 764 285 q 678 65 764 146 q 435 -15 593 -15 q 194 65 278 -15 q 110 285 110 146 l 110 511 q 100 646 110 610 l 39 658 l 43 750 q 142 744 76 744 l 385 750 l 392 651 l 328 646 q 317 578 317 619 l 317 271 q 355 173 317 213 q 463 133 393 133 q 561 166 533 133 q 589 271 589 199 l 589 511 q 579 646 589 588 l 518 658 l 522 750 q 626 744 561 744 l 832 750 l 838 651 l 774 646 q 764 578 764 593 m 333 1022 q 351 1039 333 1022 q 436 1057 369 1057 q 538 1022 503 1057 q 574 924 574 986 q 538 827 574 863 q 436 792 503 792 q 333 827 369 792 q 297 924 297 863 q 333 1022 297 986 m 481 924 q 481 950 481 924 q 437 976 481 976 q 393 924 393 976 q 437 872 393 872 q 481 924 481 872 z "},"Ű":{"ha":1082,"x_min":36,"x_max":1047,"o":"m 943 753 l 943 372 q 839 85 943 190 q 540 -21 735 -21 q 242 85 346 -21 q 139 372 139 190 l 139 711 q 126 865 139 807 l 36 882 l 43 986 q 182 979 117 979 l 458 986 l 465 874 l 374 865 q 361 753 361 819 l 361 361 q 415 201 361 264 q 569 138 468 138 q 715 194 669 138 q 760 361 760 251 l 760 711 q 747 865 760 772 l 657 882 l 664 986 q 803 979 738 979 l 1040 986 l 1047 874 l 956 865 q 943 753 943 807 m 585 1275 l 635 1165 q 415 1075 442 1083 l 313 1019 l 258 1107 l 585 1275 m 897 1268 l 947 1151 q 722 1072 749 1081 l 619 1019 l 569 1106 l 897 1268 z "},"ű":{"ha":874,"x_min":39,"x_max":838,"o":"m 764 578 l 764 285 q 678 65 764 146 q 435 -15 593 -15 q 194 65 278 -15 q 110 285 110 146 l 110 511 q 100 646 110 610 l 39 658 l 43 750 q 142 744 76 744 l 385 750 l 392 651 l 328 646 q 317 578 317 619 l 317 271 q 355 173 317 213 q 463 133 393 133 q 561 166 533 133 q 589 271 589 199 l 589 511 q 579 646 589 588 l 518 658 l 522 750 q 626 744 561 744 l 832 750 l 838 651 l 774 646 q 764 578 764 593 m 750 1058 l 817 951 q 606 853 631 865 l 513 785 l 447 865 l 750 1058 m 492 1058 l 549 967 q 347 853 372 869 l 254 785 l 189 865 l 492 1058 z "},"Ų":{"ha":1082,"x_min":36,"x_max":1047,"o":"m 943 753 l 943 372 q 869 121 943 221 q 656 -8 796 21 q 592 -118 592 -56 q 608 -166 592 -147 q 650 -185 624 -185 q 701 -175 676 -185 l 726 -242 q 594 -274 663 -274 q 484 -242 525 -274 q 443 -144 443 -211 q 518 -21 443 -78 q 236 90 333 -15 q 139 372 139 194 l 139 711 q 126 865 139 807 l 36 882 l 43 986 q 182 979 117 979 l 458 986 l 465 874 l 374 865 q 361 753 361 819 l 361 361 q 415 201 361 264 q 569 138 468 138 q 715 194 669 138 q 760 361 760 251 l 760 711 q 747 865 760 772 l 657 882 l 664 986 q 803 979 738 979 l 1040 986 l 1047 874 l 956 865 q 943 753 943 807 z "},"ų":{"ha":874,"x_min":39,"x_max":838,"o":"m 764 578 l 764 285 q 710 101 764 176 q 556 0 657 26 q 479 -118 479 -54 q 495 -166 479 -147 q 538 -185 511 -185 q 589 -175 564 -185 l 614 -242 q 481 -274 550 -274 q 372 -242 413 -274 q 331 -144 331 -211 q 413 -15 331 -76 q 188 71 265 -10 q 110 285 110 151 l 110 511 q 100 646 110 610 l 39 658 l 43 750 q 142 744 76 744 l 385 750 l 392 651 l 328 646 q 317 578 317 619 l 317 271 q 355 173 317 213 q 463 133 393 133 q 561 166 533 133 q 589 271 589 199 l 589 511 q 579 646 589 588 l 518 658 l 522 750 q 626 744 561 744 l 832 750 l 838 651 l 774 646 q 764 578 764 593 z "},"Ŵ":{"ha":1429,"x_min":3,"x_max":1422,"o":"m 343 872 q 342 846 342 864 q 349 800 342 828 l 474 288 l 658 938 l 815 938 l 997 288 l 1138 819 q 1140 872 1146 847 l 1051 889 l 1058 986 q 1211 979 1146 979 l 1415 986 l 1422 885 l 1353 875 q 1297 756 1315 811 l 1056 0 l 896 0 l 718 588 l 532 0 l 372 0 l 118 801 l 86 876 l 3 889 l 10 986 q 138 979 86 979 l 426 986 l 433 885 l 343 872 m 715 1261 l 990 1076 l 925 996 l 832 1064 l 715 1121 l 599 1064 l 506 996 l 440 1076 l 715 1261 z "},"ŵ":{"ha":1122,"x_min":8,"x_max":1110,"o":"m 1110 658 l 1065 657 q 1026 574 1040 617 l 835 0 l 682 0 l 567 399 l 433 0 l 281 0 l 85 621 l 69 660 l 8 669 l 14 753 q 103 744 61 744 l 358 750 l 365 658 l 303 656 q 294 633 294 647 l 376 253 l 506 707 l 660 707 l 778 253 l 874 629 q 871 656 879 647 l 810 669 l 815 753 q 943 744 883 744 l 1103 750 l 1110 658 m 561 1063 l 836 864 l 771 783 l 678 857 q 561 918 622 885 l 444 857 l 351 783 l 286 864 l 561 1063 z "},"Ŷ":{"ha":989,"x_min":-8,"x_max":986,"o":"m 376 107 l 389 226 l 389 346 l 142 801 q 88 865 125 832 l 75 876 l -8 889 l -1 986 q 126 979 75 979 l 415 986 l 422 885 l 349 872 q 372 800 358 826 l 518 513 l 671 819 l 676 872 l 615 889 l 622 986 q 775 979 710 979 l 979 986 l 986 885 l 903 875 q 817 756 840 800 l 604 347 l 604 268 q 617 107 604 194 l 707 99 l 700 -7 q 431 0 588 0 l 292 -7 l 285 90 l 376 107 m 494 1303 l 769 1118 l 704 1038 l 611 1106 l 494 1163 l 378 1106 l 285 1038 l 219 1118 l 494 1303 z "},"ŷ":{"ha":800,"x_min":-7,"x_max":801,"o":"m 504 219 q 515 90 504 213 l 571 85 l 567 -6 q 332 0 472 0 l 236 -6 l 231 81 l 293 90 q 303 188 303 158 l 303 257 l 100 621 q 53 660 89 635 l -7 669 l -3 753 q 86 744 46 744 l 343 750 l 349 658 l 307 656 l 311 633 l 425 404 l 540 629 l 531 656 l 501 669 l 507 753 q 636 744 576 744 l 796 750 l 801 658 l 742 657 q 675 574 689 596 l 504 249 l 504 219 m 399 1063 l 674 864 l 608 783 l 515 857 q 399 918 460 885 l 282 857 l 189 783 l 124 864 l 399 1063 z "},"Ÿ":{"ha":989,"x_min":-8,"x_max":986,"o":"m 376 107 l 389 226 l 389 346 l 142 801 q 88 865 125 832 l 75 876 l -8 889 l -1 986 q 126 979 75 979 l 415 986 l 422 885 l 349 872 q 372 800 358 826 l 518 513 l 671 819 l 676 872 l 615 889 l 622 986 q 775 979 710 979 l 979 986 l 986 885 l 903 875 q 817 756 840 800 l 604 347 l 604 268 q 617 107 604 194 l 707 99 l 700 -7 q 431 0 588 0 l 292 -7 l 285 90 l 376 107 m 261 1218 q 274 1231 261 1218 q 331 1244 286 1244 q 399 1219 375 1244 q 424 1148 424 1193 q 399 1077 424 1103 q 331 1051 375 1051 q 261 1078 286 1051 q 236 1148 236 1104 q 261 1218 236 1192 m 591 1218 q 603 1231 591 1218 q 660 1244 615 1244 q 728 1219 704 1244 q 753 1148 753 1193 q 728 1077 753 1103 q 660 1051 704 1051 q 591 1077 615 1051 q 567 1147 567 1103 q 591 1218 567 1192 z "},"Ź":{"ha":849,"x_min":44,"x_max":803,"o":"m 299 856 q 183 849 253 856 l 165 810 q 144 704 150 753 l 44 711 l 54 968 l 82 993 q 242 979 214 979 l 768 979 l 782 868 l 633 644 l 417 294 l 328 124 l 546 124 q 663 135 604 124 q 697 222 689 189 q 708 282 706 256 l 803 275 l 782 19 l 754 -6 q 594 0 622 0 l 58 0 l 44 111 q 199 329 165 272 l 442 717 l 511 856 l 299 856 m 592 1247 l 642 1131 q 417 1067 443 1075 l 314 1014 l 263 1103 l 592 1247 z "},"ź":{"ha":694,"x_min":33,"x_max":650,"o":"m 235 633 q 147 628 231 633 l 136 601 l 118 526 l 33 531 l 42 736 l 63 754 q 186 744 165 744 l 618 744 l 631 646 l 517 472 l 369 236 l 307 111 l 449 111 q 536 119 492 111 q 571 228 561 176 l 650 222 l 635 15 l 613 -4 q 489 0 510 0 l 56 0 l 43 97 q 161 261 139 221 l 339 542 l 382 633 l 235 633 m 482 1049 l 547 943 q 353 853 378 865 l 260 785 l 194 865 l 482 1049 z "},"Ż":{"ha":849,"x_min":44,"x_max":803,"o":"m 299 856 q 183 849 253 856 l 165 810 q 144 704 150 753 l 44 711 l 54 968 l 82 993 q 242 979 214 979 l 768 979 l 782 868 l 633 644 l 417 294 l 328 124 l 546 124 q 663 135 604 124 q 697 222 689 189 q 708 282 706 256 l 803 275 l 782 19 l 754 -6 q 594 0 622 0 l 58 0 l 44 111 q 199 329 165 272 l 442 717 l 511 856 l 299 856 m 344 1226 q 359 1242 344 1226 q 425 1257 374 1257 q 506 1227 476 1257 q 535 1147 535 1197 q 506 1066 535 1096 q 425 1036 478 1036 q 344 1066 372 1036 q 315 1146 315 1096 q 344 1226 315 1196 z "},"ż":{"ha":694,"x_min":33,"x_max":650,"o":"m 235 633 q 147 628 231 633 l 136 601 l 118 526 l 33 531 l 42 736 l 63 754 q 186 744 165 744 l 618 744 l 631 646 l 517 472 l 369 236 l 307 111 l 449 111 q 536 119 492 111 q 571 228 561 176 l 650 222 l 635 15 l 613 -4 q 489 0 510 0 l 56 0 l 43 97 q 161 261 139 221 l 339 542 l 382 633 l 235 633 m 267 990 q 281 1006 267 990 q 347 1021 296 1021 q 428 991 399 1021 q 457 910 457 961 q 428 830 457 860 q 347 800 400 800 q 266 830 294 800 q 238 910 238 860 q 267 990 238 960 z "},"Ž":{"ha":849,"x_min":44,"x_max":803,"o":"m 299 856 q 183 849 253 856 l 165 810 q 144 704 150 753 l 44 711 l 54 968 l 82 993 q 242 979 214 979 l 768 979 l 782 868 l 633 644 l 417 294 l 328 124 l 546 124 q 663 135 604 124 q 697 222 689 189 q 708 282 706 256 l 803 275 l 782 19 l 754 -6 q 594 0 622 0 l 58 0 l 44 111 q 199 329 165 272 l 442 717 l 511 856 l 299 856 m 635 1290 l 700 1210 l 425 1025 l 150 1210 l 215 1290 l 308 1222 l 425 1165 l 542 1222 l 635 1290 z "},"ž":{"ha":694,"x_min":33,"x_max":650,"o":"m 235 633 q 147 628 231 633 l 136 601 l 118 526 l 33 531 l 42 736 l 63 754 q 186 744 165 744 l 618 744 l 631 646 l 517 472 l 369 236 l 307 111 l 449 111 q 536 119 492 111 q 571 228 561 176 l 650 222 l 635 15 l 613 -4 q 489 0 510 0 l 56 0 l 43 97 q 161 261 139 221 l 339 542 l 382 633 l 235 633 m 144 1063 l 238 989 q 260 975 243 986 q 347 924 285 960 q 457 989 431 976 l 550 1063 l 622 982 l 347 783 l 72 982 l 144 1063 z "},"ƒ":{"ha":535,"x_min":7,"x_max":589,"o":"m 385 1069 q 558 1056 469 1069 l 589 1050 l 568 818 l 464 822 l 465 885 l 460 946 q 409 957 435 957 q 367 946 383 957 q 344 908 351 935 q 328 778 331 860 l 324 686 l 490 686 l 478 582 l 321 582 l 300 -29 q 219 -205 294 -140 q 7 -269 143 -269 l 10 -161 q 85 -120 68 -161 q 106 14 103 -79 l 126 582 l 49 582 l 44 669 q 131 697 115 690 l 136 829 q 206 1005 140 940 q 385 1069 271 1069 z "},"Ǻ":{"ha":926,"x_min":1,"x_max":928,"o":"m 928 90 l 921 -7 q 804 0 853 0 l 521 -7 l 514 94 l 596 107 l 589 179 l 569 249 l 307 249 l 283 160 l 275 107 l 356 90 l 349 -7 q 201 0 267 0 l 8 -7 l 1 94 l 64 104 l 122 224 l 385 979 l 540 994 l 818 178 l 850 103 l 928 90 m 444 692 l 344 363 l 533 365 l 444 692 m 367 1222 q 382 1238 367 1222 q 454 1253 397 1253 q 541 1222 511 1253 q 571 1140 571 1192 q 541 1057 571 1088 q 454 1026 511 1026 q 367 1057 397 1026 q 336 1140 336 1088 q 367 1222 336 1192 m 492 1140 q 492 1163 492 1140 q 455 1185 492 1185 q 418 1140 418 1185 q 455 1096 418 1096 q 492 1140 492 1096 m 564 1443 l 608 1339 q 407 1281 431 1289 l 314 1233 l 268 1314 l 564 1443 z "},"ǻ":{"ha":726,"x_min":1,"x_max":725,"o":"m 725 75 l 719 -8 q 639 0 678 0 l 386 -6 l 381 86 l 436 89 l 443 111 l 432 158 l 247 158 l 238 114 l 233 89 l 289 75 l 283 -8 q 158 0 218 0 l 7 -6 l 1 86 l 40 88 l 85 171 l 292 744 l 442 757 l 653 122 l 668 83 l 725 75 m 349 492 l 281 264 l 400 264 l 349 492 m 258 988 q 274 1003 258 988 q 346 1018 289 1018 q 433 988 403 1018 q 463 905 463 957 q 433 822 463 853 q 346 792 403 792 q 258 822 289 792 q 228 905 228 853 q 258 988 228 957 m 383 906 q 383 928 383 906 q 347 950 383 950 q 310 906 310 950 q 347 861 310 861 q 383 906 383 861 m 460 1208 l 504 1104 q 303 1046 326 1054 l 210 999 l 164 1079 l 460 1208 z "},"Ǽ":{"ha":1267,"x_min":1,"x_max":1263,"o":"m 996 858 l 764 858 q 772 753 768 789 l 803 556 q 839 553 814 553 l 951 553 q 1013 565 981 553 l 1025 654 l 1111 647 q 1110 536 1110 564 l 1114 360 l 1025 351 l 1013 435 q 924 443 951 443 l 846 443 q 821 440 829 443 l 847 268 l 875 121 l 1015 121 q 1122 132 1067 121 q 1154 213 1147 186 q 1165 271 1161 239 l 1263 264 l 1242 19 l 1215 -6 q 1057 0 1085 0 l 681 0 l 568 -7 l 561 90 l 654 107 q 651 183 654 167 l 640 256 l 339 256 l 285 160 q 281 150 283 158 q 263 107 276 140 l 358 99 l 351 -7 q 147 0 263 0 l 8 -7 l 1 90 l 72 103 q 156 224 139 194 l 521 865 l 432 882 l 439 986 q 578 979 513 979 l 1038 979 l 1196 993 l 1222 968 l 1232 744 l 1132 738 q 1122 813 1124 804 q 1107 851 1119 821 q 996 858 1038 858 m 403 369 l 622 372 l 576 665 l 574 676 l 403 369 m 911 1247 l 961 1131 q 736 1067 763 1075 l 633 1014 l 582 1103 l 911 1247 z "},"ǽ":{"ha":989,"x_min":13,"x_max":1000,"o":"m 635 635 l 639 572 l 661 431 l 661 429 l 767 429 q 804 439 788 429 l 814 506 l 889 500 q 888 415 888 436 l 892 271 l 814 265 l 804 324 q 744 331 767 331 l 669 331 l 671 329 l 678 329 l 694 215 l 714 110 l 810 110 q 886 117 854 110 q 917 221 914 183 l 1000 215 l 983 15 l 964 -4 q 842 0 863 0 l 522 0 l 457 -6 l 451 81 l 514 90 l 514 140 l 511 157 l 271 157 l 253 129 q 233 90 251 129 l 300 85 l 294 -6 q 129 0 219 0 l 18 -6 l 13 81 l 63 86 q 126 175 107 146 l 429 646 l 363 658 l 368 750 q 467 744 401 744 l 838 744 l 960 754 l 981 736 l 988 551 l 903 546 q 899 577 901 551 q 895 608 897 603 q 890 629 893 614 q 806 635 851 635 l 635 635 m 322 261 l 494 263 l 472 507 l 322 261 m 731 1049 l 796 943 q 601 853 626 865 l 508 785 l 443 865 l 731 1049 z "},"Ǿ":{"ha":1067,"x_min":38,"x_max":1029,"o":"m 1029 489 q 894 114 1029 254 q 533 -26 760 -26 q 332 8 425 -26 l 228 -190 l 149 -150 l 253 49 q 94 227 150 114 q 38 489 38 340 q 172 865 38 725 q 533 1006 307 1006 q 736 969 644 1006 l 839 1164 l 921 1124 l 817 928 q 974 749 918 863 q 1029 489 1029 636 m 533 871 q 348 777 408 871 q 288 495 288 683 q 339 214 288 307 l 665 833 q 533 871 611 871 m 533 108 q 779 481 779 108 q 729 760 779 667 l 403 143 q 533 108 456 108 m 699 1247 l 749 1131 q 524 1067 550 1075 l 421 1014 l 369 1103 l 699 1247 z "},"ǿ":{"ha":849,"x_min":29,"x_max":825,"o":"m 543 1049 l 608 943 q 414 853 439 865 l 321 785 l 256 865 l 543 1049 m 825 372 q 715 85 825 192 q 428 -22 604 -22 q 276 1 347 -22 l 197 -146 l 128 -111 l 206 35 q 29 372 29 140 q 140 660 29 553 q 428 767 251 767 q 581 742 510 767 l 657 885 l 729 850 l 653 707 q 779 571 733 657 q 825 372 825 485 m 428 639 q 301 580 340 639 q 263 387 263 521 q 288 190 263 253 l 515 618 q 428 639 481 639 m 428 106 q 553 165 514 106 q 592 354 592 224 q 568 549 592 485 l 342 124 q 428 106 372 106 z "},"Ș":{"ha":796,"x_min":61,"x_max":742,"o":"m 197 307 q 199 213 199 226 q 218 153 199 200 q 361 114 292 114 q 472 144 431 114 q 513 226 513 174 q 480 315 513 278 q 398 376 447 353 q 292 430 349 399 q 185 494 235 461 q 103 587 136 528 q 71 724 71 646 q 162 925 71 850 q 394 1000 253 1000 q 703 950 536 1000 l 683 682 l 568 689 l 568 792 q 551 839 568 799 q 434 871 493 871 q 338 841 375 871 q 300 760 300 811 q 346 669 300 708 q 456 601 392 631 q 585 536 521 572 q 696 436 650 500 q 742 283 742 372 q 640 62 742 144 q 385 -21 539 -21 q 220 -4 301 -21 q 100 29 139 13 l 61 46 l 82 314 l 197 307 m 353 -250 q 296 -181 296 -231 q 322 -106 296 -131 q 388 -81 349 -81 q 452 -108 428 -81 q 476 -178 476 -136 q 455 -269 476 -221 q 413 -350 433 -318 l 392 -381 l 328 -364 q 353 -250 353 -287 z "},"ș":{"ha":632,"x_min":49,"x_max":590,"o":"m 164 254 q 165 172 165 178 q 167 162 165 165 q 174 151 169 158 q 182 138 179 143 q 275 108 224 108 q 381 172 381 108 q 264 290 381 240 q 169 338 217 311 q 87 417 121 365 q 53 542 53 468 q 126 700 53 640 q 317 760 200 760 q 560 719 435 760 l 544 492 l 443 496 l 443 592 l 431 615 q 356 640 393 640 q 293 622 319 640 q 267 570 267 603 q 300 511 267 538 q 381 465 333 485 q 476 419 428 444 q 557 344 524 393 q 590 228 590 296 q 509 52 590 119 q 306 -15 428 -15 q 177 -3 242 -15 q 81 19 113 8 l 49 32 l 65 258 l 164 254 m 299 -250 q 242 -181 242 -231 q 268 -106 242 -131 q 334 -81 294 -81 q 398 -108 374 -81 q 422 -178 422 -136 q 401 -269 422 -221 q 358 -350 381 -318 l 338 -381 l 274 -364 q 299 -250 299 -287 z "},"Ț":{"ha":869,"x_min":14,"x_max":857,"o":"m 315 107 l 328 226 l 328 711 q 315 865 328 758 l 250 865 q 139 858 208 865 q 122 812 126 828 q 114 731 118 796 l 14 738 l 24 968 l 50 993 q 208 979 181 979 l 661 979 l 819 993 l 846 968 l 857 738 l 757 731 q 749 812 753 796 q 732 858 744 828 q 626 865 669 865 l 556 865 q 543 753 543 799 l 543 268 q 556 107 543 194 l 646 99 l 639 -7 q 369 0 526 0 l 231 -7 l 224 90 l 315 107 m 419 -250 q 363 -181 363 -231 q 389 -106 363 -131 q 455 -81 415 -81 q 519 -108 494 -81 q 543 -178 543 -136 q 522 -269 543 -221 q 479 -350 500 -318 l 458 -381 l 394 -364 q 419 -250 419 -287 z "},"ț":{"ha":699,"x_min":17,"x_max":683,"o":"m 508 643 l 461 643 q 450 575 450 603 l 450 219 q 461 90 450 213 l 517 85 l 513 -6 q 278 0 418 0 l 182 -6 l 176 81 l 239 90 q 249 188 249 158 l 249 508 q 239 643 249 585 l 199 643 q 113 638 196 643 q 107 607 113 625 q 101 543 101 589 l 17 547 l 24 736 l 44 754 q 167 744 144 744 l 532 744 l 654 754 l 674 736 l 683 547 l 599 543 q 593 606 599 589 q 586 638 588 624 q 508 643 519 643 m 322 -250 q 265 -181 265 -231 q 292 -106 265 -131 q 358 -81 318 -81 q 422 -108 397 -81 q 446 -178 446 -136 q 424 -269 446 -221 q 382 -350 403 -318 l 361 -381 l 297 -364 q 322 -250 322 -287 z "},"ȷ":{"ha":431,"x_min":32,"x_max":388,"o":"m 313 575 l 313 22 q 101 -211 313 -28 l 32 -174 q 111 11 111 -10 l 111 508 q 101 646 111 604 l 39 658 l 44 750 q 142 744 76 744 l 381 750 l 388 651 l 324 646 q 313 575 313 601 z "},"ˆ":{"ha":500,"x_min":-25,"x_max":525,"o":"m 250 1063 l 525 864 l 460 783 l 367 857 q 250 918 311 885 l 133 857 l 40 783 l -25 864 l 250 1063 z "},"ˇ":{"ha":500,"x_min":-25,"x_max":525,"o":"m 47 1063 l 140 989 q 163 975 146 986 q 250 924 188 960 q 360 989 333 976 l 453 1063 l 525 982 l 250 783 l -25 982 l 47 1063 z "},"˘":{"ha":500,"x_min":36,"x_max":464,"o":"m 372 1010 l 464 1010 q 406 851 464 907 q 250 794 349 794 q 94 851 151 794 q 36 1010 36 907 l 128 1010 q 162 929 128 958 q 250 900 196 900 q 338 929 304 900 q 372 1010 372 958 z "},"˙":{"ha":500,"x_min":140,"x_max":360,"o":"m 169 990 q 184 1006 169 990 q 250 1021 199 1021 q 331 991 301 1021 q 360 910 360 961 q 331 830 360 860 q 250 800 303 800 q 169 830 197 800 q 140 910 140 860 q 169 990 140 960 z "},"˚":{"ha":500,"x_min":111,"x_max":388,"o":"m 147 1022 q 165 1039 147 1022 q 250 1057 183 1057 q 352 1022 317 1057 q 388 924 388 986 q 352 827 388 863 q 250 792 317 792 q 147 827 183 792 q 111 924 111 863 q 147 1022 111 986 m 294 924 q 294 950 294 924 q 251 976 294 976 q 207 924 207 976 q 251 872 207 872 q 294 924 294 872 z "},"˛":{"ha":500,"x_min":188,"x_max":471,"o":"m 336 -118 q 352 -166 336 -147 q 394 -185 368 -185 q 446 -175 421 -185 l 471 -242 q 338 -274 407 -274 q 228 -242 269 -274 q 188 -150 188 -211 q 208 -82 188 -114 q 248 -33 228 -50 q 304 8 268 -15 l 426 8 q 336 -118 336 -49 z "},"˜":{"ha":500,"x_min":7,"x_max":492,"o":"m 473 926 q 467 915 473 926 q 428 864 461 903 q 367 825 396 825 q 254 851 339 825 q 147 878 169 878 q 82 833 111 878 l 72 819 l 7 858 q 67 958 29 911 q 132 1004 104 1004 q 245 978 160 1004 q 353 951 331 951 q 415 992 390 951 l 424 1004 l 492 965 q 473 926 485 950 z "},"˝":{"ha":500,"x_min":-35,"x_max":593,"o":"m 526 1058 l 593 951 q 382 853 407 865 l 289 785 l 224 865 l 526 1058 m 268 1058 l 325 967 q 124 853 149 869 l 31 785 l -35 865 l 268 1058 z "},"̃":{"ha":500,"x_min":7,"x_max":492,"o":"m 473 926 q 467 915 473 926 q 428 864 461 903 q 367 825 396 825 q 254 851 339 825 q 147 878 169 878 q 82 833 111 878 l 72 819 l 7 858 q 67 958 29 911 q 132 1004 104 1004 q 245 978 160 1004 q 353 951 331 951 q 415 992 390 951 l 424 1004 l 492 965 q 473 926 485 950 z "},"̣":{"ha":500,"x_min":143,"x_max":357,"o":"m 143 -199 q 143 -174 143 -199 q 171 -120 143 -150 q 249 -90 199 -90 q 328 -119 300 -90 q 357 -197 357 -147 q 329 -276 357 -247 q 250 -306 301 -306 q 171 -276 199 -306 q 143 -199 143 -247 z "},"Δ":{"ha":944,"x_min":31,"x_max":914,"o":"m 883 0 l 68 0 l 31 92 l 126 285 l 397 979 l 542 994 q 844 242 833 272 l 914 96 l 883 0 m 249 113 q 334 111 289 111 q 646 117 379 111 q 617 243 626 217 l 442 682 l 272 221 q 249 113 263 182 z "},"Ω":{"ha":1203,"x_min":28,"x_max":1175,"o":"m 126 529 q 252 871 126 742 q 601 1000 378 1000 q 951 871 825 1000 q 1076 529 1076 742 q 1007 274 1076 385 q 808 114 938 163 l 928 118 q 1040 133 985 122 q 1078 271 1071 214 l 1175 264 l 1154 19 l 1128 -6 q 969 0 997 0 l 694 0 l 676 178 q 826 529 826 236 q 767 772 826 678 q 601 865 707 865 q 436 772 496 865 q 376 529 376 678 q 526 178 376 236 l 508 0 l 233 0 l 75 -6 l 49 19 l 28 264 l 125 271 q 137 206 129 239 q 163 133 144 174 q 275 118 218 122 l 394 114 q 196 274 265 163 q 126 529 126 385 z "},"π":{"ha":961,"x_min":17,"x_max":913,"o":"m 396 232 l 400 0 l 340 0 l 210 -3 l 181 24 q 202 210 200 163 q 208 550 204 258 l 196 550 q 156 533 181 550 q 114 500 131 517 l 96 482 l 17 556 q 51 600 31 574 q 119 670 72 626 q 192 714 167 714 l 736 690 q 817 742 765 690 l 833 758 l 913 685 q 881 645 900 669 q 817 578 861 621 q 747 528 774 535 l 746 232 q 758 124 746 142 q 801 92 771 107 q 833 76 831 78 l 807 -21 q 776 -17 801 -19 q 739 -12 750 -14 q 702 -7 728 -11 q 663 2 676 -3 q 629 15 650 7 q 597 32 608 22 q 572 53 585 42 q 550 118 550 76 q 556 533 550 272 l 396 542 l 396 232 z "},"Ẁ":{"ha":1429,"x_min":3,"x_max":1422,"o":"m 343 872 q 342 846 342 864 q 349 800 342 828 l 474 288 l 658 938 l 815 938 l 997 288 l 1138 819 q 1140 872 1146 847 l 1051 889 l 1058 986 q 1211 979 1146 979 l 1415 986 l 1422 885 l 1353 875 q 1297 756 1315 811 l 1056 0 l 896 0 l 718 588 l 532 0 l 372 0 l 118 801 l 86 876 l 3 889 l 10 986 q 138 979 86 979 l 426 986 l 433 885 l 343 872 m 876 1117 l 825 1028 l 722 1081 l 497 1144 l 547 1261 l 876 1117 z "},"ẁ":{"ha":1122,"x_min":8,"x_max":1110,"o":"m 1110 658 l 1065 657 q 1026 574 1040 617 l 835 0 l 682 0 l 567 399 l 433 0 l 281 0 l 85 621 l 69 660 l 8 669 l 14 753 q 103 744 61 744 l 358 750 l 365 658 l 303 656 q 294 633 294 647 l 376 253 l 506 707 l 660 707 l 778 253 l 874 629 q 871 656 879 647 l 810 669 l 815 753 q 943 744 883 744 l 1103 750 l 1110 658 m 714 865 l 649 785 l 556 853 l 361 943 l 426 1049 l 714 865 z "},"Ẃ":{"ha":1429,"x_min":3,"x_max":1422,"o":"m 343 872 q 342 846 342 864 q 349 800 342 828 l 474 288 l 658 938 l 815 938 l 997 288 l 1138 819 q 1140 872 1146 847 l 1051 889 l 1058 986 q 1211 979 1146 979 l 1415 986 l 1422 885 l 1353 875 q 1297 756 1315 811 l 1056 0 l 896 0 l 718 588 l 532 0 l 372 0 l 118 801 l 86 876 l 3 889 l 10 986 q 138 979 86 979 l 426 986 l 433 885 l 343 872 m 882 1247 l 932 1131 q 707 1067 733 1075 l 604 1014 l 553 1103 l 882 1247 z "},"ẃ":{"ha":1122,"x_min":8,"x_max":1110,"o":"m 1110 658 l 1065 657 q 1026 574 1040 617 l 835 0 l 682 0 l 567 399 l 433 0 l 281 0 l 85 621 l 69 660 l 8 669 l 14 753 q 103 744 61 744 l 358 750 l 365 658 l 303 656 q 294 633 294 647 l 376 253 l 506 707 l 660 707 l 778 253 l 874 629 q 871 656 879 647 l 810 669 l 815 753 q 943 744 883 744 l 1103 750 l 1110 658 m 696 1049 l 761 943 q 567 853 592 865 l 474 785 l 408 865 l 696 1049 z "},"Ẅ":{"ha":1429,"x_min":3,"x_max":1422,"o":"m 343 872 q 342 846 342 864 q 349 800 342 828 l 474 288 l 658 938 l 815 938 l 997 288 l 1138 819 q 1140 872 1146 847 l 1051 889 l 1058 986 q 1211 979 1146 979 l 1415 986 l 1422 885 l 1353 875 q 1297 756 1315 811 l 1056 0 l 896 0 l 718 588 l 532 0 l 372 0 l 118 801 l 86 876 l 3 889 l 10 986 q 138 979 86 979 l 426 986 l 433 885 l 343 872 m 482 1218 q 494 1231 482 1218 q 551 1244 507 1244 q 620 1219 596 1244 q 644 1148 644 1193 q 620 1077 644 1103 q 551 1051 596 1051 q 482 1078 507 1051 q 457 1148 457 1104 q 482 1218 457 1192 m 812 1218 q 824 1231 812 1218 q 881 1244 836 1244 q 949 1219 925 1244 q 974 1148 974 1193 q 949 1077 974 1103 q 881 1051 925 1051 q 812 1077 836 1051 q 788 1147 788 1103 q 812 1218 788 1192 z "},"ẅ":{"ha":1122,"x_min":8,"x_max":1110,"o":"m 1110 658 l 1065 657 q 1026 574 1040 617 l 835 0 l 682 0 l 567 399 l 433 0 l 281 0 l 85 621 l 69 660 l 8 669 l 14 753 q 103 744 61 744 l 358 750 l 365 658 l 303 656 q 294 633 294 647 l 376 253 l 506 707 l 660 707 l 778 253 l 874 629 q 871 656 879 647 l 810 669 l 815 753 q 943 744 883 744 l 1103 750 l 1110 658 m 328 981 q 340 994 328 981 q 397 1007 353 1007 q 466 981 442 1007 q 490 910 490 956 q 466 840 490 865 q 397 814 442 814 q 328 840 353 814 q 303 910 303 867 q 328 981 303 954 m 658 981 q 670 994 658 981 q 726 1007 682 1007 q 795 981 771 1007 q 819 910 819 956 q 795 840 819 865 q 726 814 771 814 q 658 840 682 814 q 633 910 633 865 q 658 981 633 954 z "},"Ẽ":{"ha":856,"x_min":63,"x_max":807,"o":"m 210 979 l 582 979 l 740 993 l 767 968 l 776 751 l 676 744 q 664 828 668 811 q 650 860 660 844 q 540 865 594 865 l 388 865 q 382 753 382 765 l 382 554 q 418 553 396 553 l 496 553 q 557 565 525 553 l 569 654 l 656 647 q 654 532 654 560 l 658 356 l 569 347 l 557 431 q 468 439 496 439 l 425 439 q 382 438 392 439 l 382 268 q 386 121 382 204 l 560 121 q 667 132 611 121 q 710 271 700 193 l 807 264 l 786 19 l 760 -6 q 601 0 629 0 l 210 0 l 69 -7 l 63 90 l 154 107 q 167 226 167 149 l 167 711 q 154 865 167 813 l 64 882 l 71 986 q 210 979 160 979 m 687 1149 q 681 1137 687 1149 q 642 1086 675 1125 q 581 1047 610 1047 q 454 1074 553 1047 q 333 1100 356 1100 q 268 1056 297 1100 l 258 1042 l 193 1081 q 253 1180 215 1133 q 318 1226 290 1226 q 445 1200 346 1226 q 567 1174 544 1174 q 629 1214 604 1174 l 638 1226 l 706 1188 q 687 1149 699 1172 z "},"ẽ":{"ha":686,"x_min":56,"x_max":644,"o":"m 329 219 l 331 110 l 454 110 q 531 117 496 110 q 550 167 533 122 q 561 221 557 190 l 644 215 l 628 15 l 608 -4 q 486 0 507 0 l 160 0 l 61 -6 l 56 81 l 118 90 q 128 188 128 113 l 128 508 q 118 646 128 614 l 56 658 l 61 750 q 160 744 113 744 l 471 744 l 592 754 l 613 736 l 619 560 l 535 554 q 522 639 531 606 q 439 643 490 643 l 332 643 l 329 575 l 329 422 l 399 422 q 436 432 414 422 l 446 499 l 521 493 l 521 406 l 524 261 l 446 256 l 436 314 q 378 321 399 321 l 329 321 l 329 219 m 542 926 q 536 915 542 926 q 498 864 531 903 q 437 825 465 825 q 324 851 408 825 q 217 878 239 878 q 151 833 181 878 l 142 819 l 76 858 q 136 958 99 911 q 201 1004 174 1004 q 315 978 229 1004 q 422 951 400 951 q 485 992 460 951 l 493 1004 l 561 965 q 542 926 554 950 z "},"Ỳ":{"ha":989,"x_min":-8,"x_max":986,"o":"m 376 107 l 389 226 l 389 346 l 142 801 q 88 865 125 832 l 75 876 l -8 889 l -1 986 q 126 979 75 979 l 415 986 l 422 885 l 349 872 q 372 800 358 826 l 518 513 l 671 819 l 676 872 l 615 889 l 622 986 q 775 979 710 979 l 979 986 l 986 885 l 903 875 q 817 756 840 800 l 604 347 l 604 268 q 617 107 604 194 l 707 99 l 700 -7 q 431 0 588 0 l 292 -7 l 285 90 l 376 107 m 656 1117 l 604 1028 l 501 1081 l 276 1144 l 326 1261 l 656 1117 z "},"ỳ":{"ha":800,"x_min":-7,"x_max":801,"o":"m 504 219 q 515 90 504 213 l 571 85 l 567 -6 q 332 0 472 0 l 236 -6 l 231 81 l 293 90 q 303 188 303 158 l 303 257 l 100 621 q 53 660 89 635 l -7 669 l -3 753 q 86 744 46 744 l 343 750 l 349 658 l 307 656 l 311 633 l 425 404 l 540 629 l 531 656 l 501 669 l 507 753 q 636 744 576 744 l 796 750 l 801 658 l 742 657 q 675 574 689 596 l 504 249 l 504 219 m 553 865 l 488 785 l 394 853 l 200 943 l 265 1049 l 553 865 z "},"Ỹ":{"ha":989,"x_min":-8,"x_max":986,"o":"m 376 107 l 389 226 l 389 346 l 142 801 q 88 865 125 832 l 75 876 l -8 889 l -1 986 q 126 979 75 979 l 415 986 l 422 885 l 349 872 q 372 800 358 826 l 518 513 l 671 819 l 676 872 l 615 889 l 622 986 q 775 979 710 979 l 979 986 l 986 885 l 903 875 q 817 756 840 800 l 604 347 l 604 268 q 617 107 604 194 l 707 99 l 700 -7 q 431 0 588 0 l 292 -7 l 285 90 l 376 107 m 740 1149 q 734 1137 740 1149 q 695 1086 728 1125 q 634 1047 663 1047 q 507 1074 606 1047 q 386 1100 408 1100 q 321 1056 350 1100 l 311 1042 l 246 1081 q 306 1180 268 1133 q 371 1226 343 1226 q 498 1200 399 1226 q 619 1174 597 1174 q 682 1214 657 1174 l 690 1226 l 758 1188 q 740 1149 751 1172 z "},"ỹ":{"ha":800,"x_min":-7,"x_max":801,"o":"m 504 219 q 515 90 504 213 l 571 85 l 567 -6 q 332 0 472 0 l 236 -6 l 231 81 l 293 90 q 303 188 303 158 l 303 257 l 100 621 q 53 660 89 635 l -7 669 l -3 753 q 86 744 46 744 l 343 750 l 349 658 l 307 656 l 311 633 l 425 404 l 540 629 l 531 656 l 501 669 l 507 753 q 636 744 576 744 l 796 750 l 801 658 l 742 657 q 675 574 689 596 l 504 249 l 504 219 m 624 926 q 618 915 624 926 q 580 864 613 903 q 519 825 547 825 q 407 851 492 825 q 300 878 322 878 q 233 833 263 878 l 224 819 l 158 858 q 218 958 181 911 q 283 1004 256 1004 q 397 978 311 1004 q 504 951 482 951 q 567 992 542 951 l 575 1004 l 643 965 q 624 926 636 950 z "},"–":{"ha":700,"x_min":0,"x_max":700,"o":"m 3 286 l 0 418 l 700 418 l 693 286 l 3 286 z "},"—":{"ha":1397,"x_min":0,"x_max":1397,"o":"m 3 286 l 0 418 l 1397 418 l 1390 286 l 3 286 z "},"‘":{"ha":318,"x_min":50,"x_max":271,"o":"m 172 929 q 243 901 215 929 q 271 828 271 874 q 240 749 271 783 q 158 714 208 714 q 79 753 108 714 q 50 862 50 793 q 104 996 50 931 q 251 1069 158 1061 l 264 1029 q 172 929 186 993 z "},"’":{"ha":318,"x_min":47,"x_max":268,"o":"m 146 854 q 75 882 103 854 q 47 955 47 910 q 78 1035 47 1000 q 160 1069 110 1069 q 239 1030 210 1069 q 268 922 268 990 q 214 788 268 853 q 67 714 160 722 l 54 754 q 146 854 132 790 z "},"‚":{"ha":304,"x_min":38,"x_max":258,"o":"m 136 -46 q 65 -18 93 -46 q 38 55 38 10 q 69 135 38 100 q 150 169 100 169 q 229 130 200 169 q 258 22 258 90 q 204 -112 258 -47 q 57 -186 150 -178 l 44 -146 q 136 -46 122 -110 z "},"“":{"ha":596,"x_min":50,"x_max":549,"o":"m 172 929 q 243 901 215 929 q 271 828 271 874 q 240 749 271 783 q 158 714 208 714 q 79 753 108 714 q 50 862 50 793 q 104 996 50 931 q 251 1069 158 1061 l 264 1029 q 172 929 186 993 m 450 929 q 521 901 493 929 q 549 828 549 874 q 517 749 549 783 q 436 714 486 714 q 357 753 386 714 q 328 862 328 793 q 382 996 328 931 q 529 1069 436 1061 l 542 1029 q 450 929 464 993 z "},"”":{"ha":597,"x_min":47,"x_max":547,"o":"m 146 847 q 75 875 103 847 q 47 948 47 903 q 78 1028 47 993 q 160 1063 110 1063 q 239 1023 210 1063 q 268 915 268 983 q 214 781 268 846 q 67 707 160 715 l 54 747 q 146 847 132 783 m 425 847 q 354 875 382 847 q 326 948 326 903 q 358 1028 326 993 q 439 1063 389 1063 q 518 1023 489 1063 q 547 915 547 983 q 493 781 547 846 q 346 707 439 715 l 333 747 q 425 847 411 783 z "},"„":{"ha":597,"x_min":47,"x_max":547,"o":"m 146 -46 q 75 -18 103 -46 q 47 55 47 10 q 78 135 47 100 q 160 169 110 169 q 239 130 210 169 q 268 22 268 90 q 214 -112 268 -47 q 67 -186 160 -178 l 54 -146 q 146 -46 132 -110 m 425 -46 q 354 -18 382 -46 q 326 55 326 10 q 358 135 326 100 q 439 169 389 169 q 518 130 489 169 q 547 22 547 90 q 493 -112 547 -47 q 346 -186 439 -178 l 333 -146 q 425 -46 411 -110 z "},"†":{"ha":739,"x_min":49,"x_max":690,"o":"m 425 714 l 314 714 l 268 1042 l 276 1050 l 440 1064 l 471 1039 q 425 714 425 783 m 314 588 l 425 588 l 471 -117 l 463 -125 l 299 -139 l 268 -114 q 314 588 314 518 m 307 707 l 307 594 l 71 568 l 63 576 l 49 701 l 74 728 q 307 707 219 713 m 432 594 l 432 707 l 668 733 l 676 725 l 690 600 l 665 574 q 432 594 519 589 z "},"‡":{"ha":739,"x_min":49,"x_max":690,"o":"m 314 310 l 425 310 l 471 -117 l 463 -125 l 299 -139 l 268 -114 q 314 310 314 240 m 425 714 l 314 714 l 268 1042 l 276 1050 l 440 1064 l 471 1039 q 425 714 425 783 m 432 594 l 432 707 l 668 733 l 676 725 l 690 600 l 665 574 q 432 594 519 589 m 307 707 l 307 594 l 71 568 l 63 576 l 49 701 l 74 728 q 307 707 219 713 m 432 319 l 432 432 l 626 458 l 635 450 l 649 325 l 624 299 q 432 319 519 314 m 307 432 l 307 319 l 113 293 l 104 301 l 90 426 l 115 453 q 307 432 219 438 m 425 435 l 314 435 l 314 588 l 425 588 l 425 435 z "},"•":{"ha":319,"x_min":28,"x_max":292,"o":"m 28 351 q 28 383 28 351 q 63 454 28 415 q 159 493 97 493 q 256 456 221 493 q 292 353 292 418 q 257 249 292 288 q 160 211 222 211 q 63 249 97 211 q 28 351 28 288 z "},"․":{"ha":344,"x_min":63,"x_max":282,"o":"m 92 181 q 106 198 92 181 q 172 214 121 214 q 253 183 224 214 q 282 97 282 151 q 253 11 282 43 q 172 -21 224 -21 q 92 11 121 -21 q 63 96 63 43 q 92 181 63 149 z "},"‥":{"ha":604,"x_min":56,"x_max":542,"o":"m 56 82 q 56 108 56 82 q 83 165 56 133 q 160 196 111 196 q 238 165 210 196 q 267 83 267 135 q 239 0 267 31 q 161 -31 211 -31 q 83 0 111 -31 q 56 82 56 31 m 331 82 q 331 108 331 82 q 358 165 331 133 q 435 196 386 196 q 513 165 485 196 q 542 83 542 135 q 514 0 542 31 q 436 -31 486 -31 q 358 0 386 -31 q 331 82 331 31 z "},"…":{"ha":879,"x_min":56,"x_max":817,"o":"m 56 82 q 56 108 56 82 q 83 165 56 133 q 160 196 111 196 q 238 165 210 196 q 267 83 267 135 q 239 0 267 31 q 161 -31 211 -31 q 83 0 111 -31 q 56 82 56 31 m 331 82 q 331 108 331 82 q 358 165 331 133 q 435 196 386 196 q 513 165 485 196 q 542 83 542 135 q 514 0 542 31 q 436 -31 486 -31 q 358 0 386 -31 q 331 82 331 31 m 606 82 q 606 108 606 82 q 633 165 606 133 q 710 196 661 196 q 788 165 760 196 q 817 83 817 135 q 789 0 817 31 q 711 -31 761 -31 q 633 0 661 -31 q 606 82 606 31 z "},"‰":{"ha":1822,"x_min":25,"x_max":1788,"o":"m 960 -11 q 895 -11 960 -11 q 769 68 831 -11 q 707 270 707 147 q 769 472 707 393 q 960 551 831 551 q 1151 472 1089 551 q 1213 270 1213 393 q 1151 68 1213 147 q 960 -11 1089 -11 m 868 270 q 868 177 868 270 q 960 85 868 85 q 1051 270 1051 85 q 960 456 1051 456 q 868 270 868 456 m 1535 -11 q 1470 -11 1535 -11 q 1344 68 1406 -11 q 1282 270 1282 147 q 1344 472 1282 393 q 1535 551 1406 551 q 1726 472 1664 551 q 1788 270 1788 393 q 1726 68 1788 147 q 1535 -11 1664 -11 m 1443 270 q 1443 177 1443 270 q 1535 85 1443 85 q 1626 270 1626 85 q 1535 456 1626 456 q 1443 270 1443 456 m 85 520 q 55 559 85 520 q 25 717 25 597 q 85 913 25 836 q 267 989 144 989 q 449 913 389 989 q 508 717 508 836 q 449 520 508 597 q 267 443 389 443 q 85 520 144 443 m 267 536 q 311 536 267 536 q 354 717 354 536 q 267 897 354 897 q 181 717 181 897 q 267 536 181 536 m 822 1000 l 919 938 l 331 -68 l 232 -6 l 822 1000 z "},"‹":{"ha":375,"x_min":28,"x_max":333,"o":"m 28 336 l 240 658 l 333 596 l 188 336 l 333 76 l 240 14 l 28 336 z "},"›":{"ha":375,"x_min":42,"x_max":347,"o":"m 347 336 l 135 14 l 42 76 l 188 336 l 42 596 l 135 658 l 347 336 z "},"⁄":{"ha":139,"x_min":-301,"x_max":386,"o":"m 289 1000 l 386 938 l -203 -68 l -301 -6 l 289 1000 z "},"⁰":{"ha":533,"x_min":25,"x_max":508,"o":"m 267 615 q 206 615 267 615 q 85 701 144 615 q 25 919 25 786 q 85 1137 25 1051 q 267 1222 144 1222 q 449 1137 389 1222 q 508 919 508 1051 q 449 701 508 786 q 267 615 389 615 m 267 697 q 307 697 267 697 q 347 919 347 697 q 267 1142 347 1142 q 188 919 188 1142 q 267 697 188 697 z "},"⁴":{"ha":533,"x_min":15,"x_max":499,"o":"m 272 875 l 272 954 l 413 1001 l 413 883 l 499 888 l 499 786 l 413 786 l 413 768 q 421 696 413 715 l 479 692 l 475 621 q 286 625 392 625 l 182 621 l 178 686 l 264 696 q 267 718 265 708 q 269 739 268 728 q 272 775 272 761 l 272 786 l 89 786 l 15 876 l 339 1292 l 436 1210 q 331 1103 344 1124 l 156 875 l 272 875 z "},"⁵":{"ha":461,"x_min":42,"x_max":422,"o":"m 261 1086 l 169 1086 q 161 972 167 1043 q 214 974 178 974 q 369 926 315 974 q 422 796 422 879 q 67 531 422 586 l 44 603 q 221 670 174 632 q 268 772 268 708 q 167 875 268 875 q 88 863 131 875 l 42 917 l 67 1197 l 83 1214 l 168 1214 l 390 1222 l 396 1097 q 261 1086 288 1086 z "},"⁶":{"ha":522,"x_min":28,"x_max":492,"o":"m 303 1004 q 442 958 393 1004 q 492 824 492 911 q 426 676 492 736 q 256 615 360 615 q 90 681 153 615 q 28 854 28 746 q 139 1137 28 1007 q 447 1300 250 1267 l 463 1235 q 258 1083 325 1190 q 190 854 190 975 q 208 749 190 790 q 264 707 226 707 q 328 821 328 707 q 313 899 328 869 q 271 928 297 928 l 247 925 l 242 996 q 303 1004 267 1004 z "},"⁷":{"ha":481,"x_min":33,"x_max":485,"o":"m 169 1214 l 471 1214 l 485 1146 l 190 531 l 61 575 l 269 960 q 315 1083 307 1035 l 178 1083 q 132 1081 171 1083 q 118 1042 131 1071 l 110 1000 l 33 1003 l 43 1204 l 60 1222 q 169 1214 149 1214 z "},"⁸":{"ha":513,"x_min":32,"x_max":479,"o":"m 51 1096 q 111 1201 51 1163 q 255 1240 171 1240 q 399 1201 339 1240 q 460 1093 460 1161 q 357 943 460 1011 q 479 771 479 871 q 415 654 479 693 q 256 615 350 615 q 97 656 163 615 q 32 777 32 696 q 156 932 32 858 q 51 1096 51 1000 m 174 774 q 255 694 174 694 q 336 769 336 694 q 311 833 336 808 q 238 885 286 858 q 174 774 174 835 m 319 1093 q 301 1144 319 1125 q 256 1163 283 1163 q 210 1144 229 1163 q 192 1093 192 1126 q 213 1035 192 1060 q 275 986 233 1011 q 319 1093 319 1039 z "},"⁹":{"ha":522,"x_min":33,"x_max":492,"o":"m 225 838 q 84 886 135 838 q 33 1020 33 935 q 99 1164 33 1106 q 266 1222 164 1222 q 430 1159 368 1222 q 492 994 492 1096 q 449 798 492 892 q 309 628 406 704 q 81 531 213 553 l 58 603 q 196 665 139 622 q 281 764 253 708 q 335 992 335 871 q 315 1092 335 1051 q 258 1133 296 1133 q 192 1024 192 1133 q 208 944 192 975 q 250 913 225 913 q 281 915 275 913 l 286 846 q 225 838 249 838 z "},"ⁿ":{"ha":599,"x_min":18,"x_max":588,"o":"m 368 1079 q 481 1040 440 1079 q 521 928 521 1001 l 521 804 l 531 697 l 588 692 l 583 621 q 410 625 519 625 l 335 621 l 329 688 l 379 697 q 382 776 382 767 l 382 913 q 319 982 382 982 q 260 951 286 982 q 235 863 235 919 l 233 865 l 235 854 l 235 804 l 243 697 l 300 692 l 296 621 q 124 625 232 625 l 33 621 l 29 688 l 88 697 q 96 778 96 760 l 96 914 l 86 994 l 18 1010 l 26 1081 q 139 1071 96 1071 l 185 1074 l 204 1056 l 214 989 q 368 1079 275 1079 z "},"₀":{"ha":575,"x_min":35,"x_max":540,"o":"m 288 -149 q 224 -149 288 -149 q 97 -60 160 -149 q 35 165 35 28 q 97 390 35 301 q 288 478 158 478 q 478 390 417 478 q 540 165 540 301 q 478 -60 540 28 q 288 -149 415 -149 m 288 -65 q 330 -65 288 -65 q 372 164 372 -65 q 288 393 372 393 q 203 164 203 393 q 288 -65 203 -65 z "},"₁":{"ha":443,"x_min":50,"x_max":418,"o":"m 185 17 l 185 304 l 88 272 l 50 333 q 186 433 167 418 l 233 486 l 342 475 q 333 257 333 304 l 333 46 q 336 -8 333 13 q 339 -37 339 -29 q 343 -64 342 -56 l 418 -69 l 413 -143 q 219 -139 335 -139 l 96 -143 l 90 -75 l 176 -64 l 178 -50 q 185 17 185 -1 z "},"₂":{"ha":557,"x_min":29,"x_max":504,"o":"m 51 444 q 251 478 147 478 q 415 435 356 478 q 474 319 474 393 q 417 172 474 246 q 211 -24 360 97 l 317 -24 l 403 -14 q 417 33 414 24 l 425 71 l 504 65 l 496 -124 l 465 -142 q 364 -139 381 -139 l 43 -139 l 29 -42 q 249 167 190 94 q 308 303 308 240 q 286 360 308 340 q 226 379 264 379 q 144 357 189 379 q 138 324 138 335 l 138 285 l 57 279 l 51 444 z "},"₃":{"ha":501,"x_min":31,"x_max":453,"o":"m 207 478 q 426 313 426 478 q 321 169 426 224 q 415 117 376 160 q 453 24 453 74 q 339 -151 453 -76 q 54 -236 225 -225 l 33 -161 q 216 -103 147 -151 q 285 13 285 -56 q 193 110 285 110 l 135 106 l 121 178 q 232 227 193 190 q 271 321 271 264 q 200 389 271 389 q 131 381 169 389 q 126 354 126 361 l 126 294 l 44 290 l 31 450 q 207 478 114 478 z "},"₄":{"ha":572,"x_min":24,"x_max":528,"o":"m 293 118 l 293 200 l 438 249 l 438 126 l 528 132 l 528 28 l 438 28 l 438 8 q 447 -65 438 -40 l 508 -71 l 504 -143 q 307 -139 418 -139 l 199 -143 l 194 -76 l 285 -65 q 288 -42 286 -53 q 290 -21 289 -32 q 293 15 293 1 l 293 28 l 100 28 l 24 119 l 363 549 l 464 465 q 353 354 367 375 l 171 118 l 293 118 z "},"₅":{"ha":497,"x_min":53,"x_max":449,"o":"m 279 338 l 183 338 q 176 218 182 292 q 232 221 213 221 q 393 172 338 221 q 449 38 449 122 q 76 -236 449 -178 l 56 -162 q 239 -92 189 -132 q 289 14 289 -53 q 183 118 289 118 q 99 106 144 118 l 53 161 l 78 451 l 96 468 l 183 468 l 417 478 l 422 349 q 279 338 308 338 z "},"₆":{"ha":561,"x_min":40,"x_max":518,"o":"m 318 247 q 465 198 413 247 q 518 60 518 149 q 450 -88 518 -28 q 275 -149 382 -149 q 104 -83 168 -149 q 40 87 40 -18 q 87 287 40 192 q 235 457 133 382 q 475 556 336 532 l 492 492 q 274 332 344 444 q 203 90 203 219 q 223 -15 203 26 q 283 -57 243 -57 q 354 57 354 -57 q 335 138 354 106 q 288 171 317 171 l 260 168 l 254 239 q 318 247 279 247 z "},"₇":{"ha":518,"x_min":43,"x_max":514,"o":"m 186 468 l 499 468 l 514 399 l 207 -236 l 74 -192 l 290 207 q 317 263 299 219 q 339 335 335 307 l 194 335 q 146 332 188 335 q 138 310 144 325 q 131 290 132 296 l 124 249 l 43 251 l 54 457 l 71 476 q 186 468 164 468 z "},"₈":{"ha":551,"x_min":42,"x_max":508,"o":"m 63 346 q 125 455 63 414 q 274 496 188 496 q 424 455 361 496 q 488 344 488 414 q 379 189 488 260 q 508 13 508 118 q 441 -108 508 -68 q 276 -149 374 -149 q 110 -108 178 -149 q 42 18 42 -67 q 169 178 42 103 q 63 346 63 246 m 189 14 q 211 -47 189 -25 q 275 -68 233 -68 q 360 10 360 -68 q 333 76 360 50 q 256 129 307 101 q 189 14 189 79 m 343 344 q 324 397 343 378 q 276 415 306 415 q 227 397 247 415 q 207 343 207 378 q 229 283 207 308 q 296 233 251 258 q 343 344 343 289 z "},"₉":{"ha":561,"x_min":43,"x_max":521,"o":"m 243 81 q 96 131 149 81 q 43 269 43 181 q 111 417 43 357 q 285 478 179 478 q 456 412 392 478 q 521 239 521 346 q 408 -62 521 78 q 92 -236 296 -203 l 68 -162 q 213 -98 153 -142 q 303 4 272 -54 q 358 239 358 114 q 338 344 358 301 q 278 386 318 386 q 207 272 207 386 q 225 191 207 224 q 269 158 243 158 q 301 161 296 158 l 307 89 q 243 81 282 81 z "},"€":{"ha":978,"x_min":49,"x_max":922,"o":"m 178 404 l 176 451 l 176 461 l 51 456 l 49 546 l 183 551 q 322 826 210 725 q 624 926 435 926 q 910 881 732 926 l 893 668 l 793 672 l 789 735 q 774 789 789 743 q 631 803 693 803 q 488 738 540 803 q 419 563 436 674 l 618 571 l 621 482 l 413 472 l 413 453 q 414 414 413 426 l 625 424 l 628 335 l 422 325 q 629 103 463 103 q 788 118 704 103 q 810 183 810 169 l 814 244 l 911 246 l 922 25 q 624 -21 742 -21 q 334 68 444 -21 q 190 314 224 157 l 58 308 l 56 399 l 178 404 z "},"™":{"ha":765,"x_min":4,"x_max":722,"o":"m 397 729 l 399 693 l 426 690 l 425 651 q 349 654 407 654 l 303 651 l 301 689 l 329 693 l 335 715 l 347 915 q 344 938 347 918 l 318 943 l 319 981 l 361 976 l 447 976 l 457 969 q 474 900 468 922 l 514 769 l 558 910 l 574 969 l 582 979 l 646 979 l 701 981 l 703 943 l 676 938 l 676 915 l 690 715 l 696 693 l 722 690 l 721 651 q 635 654 690 654 l 585 651 l 583 689 l 611 693 q 613 729 613 706 l 608 875 l 533 654 l 476 654 l 407 875 l 397 729 m 217 935 l 197 935 q 193 906 193 910 l 193 751 q 197 696 193 713 l 221 693 l 218 651 q 125 654 186 654 l 75 651 l 74 690 l 100 696 l 103 714 q 104 738 104 731 l 104 874 q 100 935 104 910 l 83 935 q 46 931 61 935 l 46 924 q 42 890 42 899 l 4 892 l 8 974 l 17 983 q 69 979 60 979 l 226 979 l 278 983 l 288 974 l 292 892 l 256 890 q 253 924 256 907 l 249 931 q 217 935 240 935 z "},"℮":{"ha":1107,"x_min":56,"x_max":1079,"o":"m 250 432 q 243 426 243 432 l 243 175 q 256 146 243 161 q 576 11 382 11 q 899 163 769 11 l 974 163 q 796 31 903 79 q 568 -17 689 -17 q 206 118 357 -17 q 56 444 56 253 q 206 769 56 635 q 567 904 356 904 q 929 769 779 904 q 1079 443 1079 635 l 1079 432 l 250 432 m 893 717 q 879 747 893 733 q 568 876 750 876 q 257 743 386 876 q 243 711 243 729 l 243 464 q 250 457 243 457 l 886 457 q 893 464 893 457 l 893 717 z "},"∂":{"ha":808,"x_min":90,"x_max":760,"o":"m 552 753 q 543 785 552 753 q 494 854 533 817 q 394 892 456 892 q 243 856 333 892 l 210 938 q 406 1000 310 1000 q 572 958 503 1000 q 682 844 642 917 q 741 682 722 771 q 760 489 760 593 q 741 297 760 385 q 682 138 722 210 q 572 25 642 65 q 406 -15 501 -15 q 180 67 269 -15 q 90 275 90 149 q 181 481 90 401 q 408 560 271 560 q 546 532 472 560 l 535 440 q 421 450 467 450 q 308 397 351 450 q 264 272 264 344 q 301 145 264 199 q 400 92 339 92 q 499 128 461 92 q 554 228 536 165 q 580 353 572 290 q 588 489 588 417 q 579 626 588 561 q 552 753 571 690 z "},"∏":{"ha":860,"x_min":28,"x_max":832,"o":"m 568 -317 l 568 838 l 293 835 l 300 -317 l 140 -317 l 140 833 l 28 833 l 28 979 l 832 979 l 832 840 l 721 839 l 728 -317 l 568 -317 z "},"∑":{"ha":778,"x_min":56,"x_max":729,"o":"m 729 -317 l 69 -317 l 56 -224 l 435 338 l 69 889 l 83 979 l 692 979 l 692 840 l 279 847 l 613 339 l 265 -185 l 729 -178 l 729 -317 z "},"−":{"ha":807,"x_min":88,"x_max":719,"o":"m 88 429 l 719 429 l 719 289 l 88 282 l 88 429 z "},"√":{"ha":914,"x_min":14,"x_max":928,"o":"m 553 151 l 775 1001 l 928 964 l 618 -125 l 482 -125 l 290 532 l 53 465 l 14 619 l 406 718 l 553 151 z "},"∞":{"ha":1042,"x_min":25,"x_max":1017,"o":"m 778 799 q 914 750 858 799 q 1017 465 1017 658 q 956 229 1017 326 q 775 132 894 132 q 528 313 642 132 q 416 179 478 228 q 269 131 354 131 q 128 181 183 131 q 25 464 25 271 q 86 700 25 603 q 267 797 147 797 q 517 621 407 797 q 778 799 622 799 m 775 349 q 872 379 835 349 q 910 465 910 410 q 874 551 910 521 q 779 582 839 582 q 681 546 719 582 q 601 436 643 510 q 775 349 683 349 m 267 581 q 169 550 207 581 q 132 464 132 519 q 167 378 132 408 q 262 347 203 347 q 360 384 321 347 q 439 492 399 421 q 267 581 356 581 z "},"∫":{"ha":600,"x_min":68,"x_max":533,"o":"m 344 756 q 374 349 344 664 q 404 -81 404 35 q 342 -262 404 -197 q 164 -326 279 -326 q 68 -310 113 -326 l 92 -206 q 161 -215 128 -215 q 258 -89 258 -215 q 228 317 258 3 q 199 748 199 632 q 261 928 199 864 q 439 993 324 993 q 533 976 481 993 l 511 872 q 442 882 475 882 q 344 756 344 882 z "},"≈":{"ha":839,"x_min":83,"x_max":756,"o":"m 727 205 q 718 191 727 205 q 666 133 710 178 q 585 89 622 89 q 418 131 549 89 q 261 172 288 172 q 172 122 213 172 l 158 104 l 83 167 q 112 212 94 185 q 173 283 129 239 q 247 328 217 328 q 426 286 299 328 q 579 244 553 244 q 667 294 626 244 l 681 313 l 756 250 q 727 205 744 232 m 727 483 q 718 469 727 483 q 666 411 710 456 q 585 367 622 367 q 418 408 549 367 q 261 450 288 450 q 172 400 213 450 l 158 382 l 83 444 q 112 490 94 463 q 173 561 129 517 q 247 606 217 606 q 426 564 299 606 q 579 522 553 522 q 667 572 626 522 l 681 590 l 756 528 q 727 483 744 510 z "},"≠":{"ha":826,"x_min":97,"x_max":729,"o":"m 97 283 l 313 283 l 368 403 l 97 400 l 97 547 l 435 547 l 513 714 l 640 692 l 574 547 l 729 547 l 729 407 l 507 404 l 450 283 l 729 283 l 729 143 l 383 139 l 307 -26 l 179 -4 l 244 138 l 97 136 l 97 283 z "},"≤":{"ha":807,"x_min":88,"x_max":719,"o":"m 719 0 l 88 0 l 88 126 l 719 133 l 719 0 m 369 492 l 650 293 l 564 178 l 132 492 l 564 806 l 650 690 l 369 492 z "},"≥":{"ha":807,"x_min":88,"x_max":719,"o":"m 719 0 l 88 0 l 88 126 l 719 133 l 719 0 m 425 490 l 144 689 l 231 804 l 663 490 l 231 176 l 144 292 l 425 490 z "},"◊":{"ha":839,"x_min":56,"x_max":783,"o":"m 419 792 l 783 394 l 419 3 l 56 394 l 419 792 m 419 192 l 607 396 l 419 601 l 232 396 l 419 192 z "}}}
